<svg aria-hidden="true" style="position: absolute; width: 0; height: 0; overflow: hidden;" version="1.1" xmlns="http://www.w3.org/2000/svg" xmlns:xlink="http://www.w3.org/1999/xlink">
<defs>
<symbol id="icon-bird" viewBox="0 0 32 32">
<path fill="none" stroke="#1e88e5" style="stroke: var(--color1, #1e88e5)" stroke-linejoin="miter" stroke-linecap="round" stroke-miterlimit="10" stroke-width="1.3333" d="M24.113 21.017l5.203 3.795c0.007 0.006 0.012 0.013 0.015 0.021s0.003 0.018 0.001 0.026c-0.002 0.009-0.007 0.017-0.013 0.023s-0.015 0.010-0.023 0.012l-3.028 0.433c-0.147 0.021-0.297-0.015-0.419-0.1l-3.056-2.156c-0.111-0.079-0.249-0.111-0.384-0.089-1.334 0.218-8.701 1.303-11.662-0.839 0 0-4.645-2.522-4.277-7.723l0.197-3.646c0.005-0.098-0.015-0.196-0.060-0.284s-0.111-0.162-0.193-0.216l-2.373-1.557c-0.013-0.009-0.024-0.021-0.031-0.035s-0.010-0.030-0.009-0.046c0.001-0.016 0.007-0.031 0.017-0.044s0.022-0.023 0.037-0.029l2.757-1.184c0.026-0.011 0.049-0.029 0.066-0.051s0.030-0.048 0.035-0.076c0.093-0.481 0.638-2.759 2.733-3.192 0.549-0.105 1.116-0.070 1.648 0.104 0.451 0.137 1.017 0.388 1.396 0.8 1.078 1.17 1.105 4.711 3.752 7.929 2.323 2.83 4.624 6.104 5.685 6.637 0.010 0.005 0.018 0.013 0.022 0.024s0.006 0.021 0.003 0.032c-0.003 0.011-0.009 0.020-0.018 0.027s-0.020 0.010-0.031 0.010c-1.619 0-6.832 0.295-9.701-1.69 0 0-2.323-1.658-2.263-3.352s1.212-2.825 1.212-2.825"></path>
<path fill="none" stroke="#1e88e5" style="stroke: var(--color1, #1e88e5)" stroke-linejoin="miter" stroke-linecap="butt" stroke-miterlimit="10" stroke-width="1.3333" d="M14.667 24l-1.333 4"></path>
<path fill="none" stroke="#1e88e5" style="stroke: var(--color1, #1e88e5)" stroke-linejoin="miter" stroke-linecap="butt" stroke-miterlimit="10" stroke-width="1.3333" d="M17.333 24l-1.333 4"></path>
<path fill="none" stroke="#1e88e5" style="stroke: var(--color1, #1e88e5)" stroke-linejoin="miter" stroke-linecap="round" stroke-miterlimit="10" stroke-width="1.3333" d="M10.667 28h8"></path>
<path fill="#1e88e5" style="fill: var(--color1, #1e88e5)" d="M10 8c0.368 0 0.667-0.298 0.667-0.667s-0.298-0.667-0.667-0.667c-0.368 0-0.667 0.298-0.667 0.667s0.298 0.667 0.667 0.667z"></path>
</symbol>
<symbol id="icon-cat" viewBox="0 0 32 32">
<path fill="none" stroke="#1e88e5" style="stroke: var(--color1, #1e88e5)" stroke-linejoin="miter" stroke-linecap="round" stroke-miterlimit="10" stroke-width="1.3333" d="M21.476 28.438h2.733c0.057 0 0.114-0.012 0.167-0.036s0.099-0.060 0.136-0.104c0.037-0.044 0.064-0.096 0.079-0.151s0.017-0.114 0.007-0.171c-0.028-0.154-0.066-0.305-0.112-0.454-0.152-0.476-0.452-0.892-0.856-1.186s-0.892-0.452-1.392-0.45h-1.142c-0.012 0-0.024-0.005-0.034-0.013s-0.015-0.020-0.017-0.032l-0.185-4.637c-0.002-0.048 0.008-0.096 0.027-0.14s0.049-0.083 0.086-0.114c0.639-0.531 3.232-2.146 3.328-7.249 0-0.442-0.043-1.701-0.043-1.701 0.023-0.17 0.043-0.634 0.686-0.755 0.67-0.128 2.346-0.214 2.761-1.074 0.147-0.287 0.244-0.597 0.288-0.916 0.023-0.206-0.010-0.415-0.096-0.603s-0.223-0.35-0.394-0.467c-0.262-0.18-0.676-0.542-1.384-1.171-1.040-0.923-0.9-2.429-3.263-2.851M22.564 5.571v-2.828c0-0.012-0.002-0.024-0.007-0.034s-0.013-0.020-0.022-0.027c-0.009-0.007-0.020-0.012-0.032-0.014s-0.024-0.001-0.035 0.002c-0.567 0.173-4.027 1.428-4.801 7.378-0.017 0.134-0.077 0.26-0.171 0.357s-0.217 0.162-0.351 0.184c-1.165 0.19-4.569 1.539-5.639 2.675-1.936 2.059-2.954 2.633-3.46 10.794M8.614 13.121c0 0-2.142-5.119-5.234-4.746-0.922 0.112-0.908 1.484-0.206 1.99 0.936 0.676 2.547 1.606 2.675 3.512 0.187 2.815-0.631 5.232-0.564 8.342 0.037 1.691 1.007 6.171 2.402 6.433 1.169 0.221 8.727 0.071 11.074 0.017 0.094-0.002 0.187-0.023 0.272-0.063s0.161-0.097 0.223-0.168c0.062-0.071 0.108-0.154 0.136-0.244s0.037-0.185 0.026-0.278c-0.091-0.749-0.378-1.805-1.271-1.854-1.024-0.055-2.413-0.009-3.073 0.020-0.025 0.002-0.050-0.005-0.072-0.019s-0.037-0.034-0.046-0.058c-0.009-0.024-0.010-0.050-0.003-0.074s0.022-0.046 0.042-0.061c2.431-1.992 3.596-6.184-1.050-6.299"></path>
</symbol>
<symbol id="icon-dog" viewBox="0 0 32 32">
<path fill="none" stroke="#1e88e5" style="stroke: var(--color1, #1e88e5)" stroke-linejoin="miter" stroke-linecap="round" stroke-miterlimit="10" stroke-width="1.3333" d="M20.289 29.040h2.618c0.082 0.001 0.164-0.016 0.239-0.050s0.143-0.082 0.198-0.143c0.055-0.061 0.097-0.133 0.122-0.211s0.034-0.161 0.026-0.243c-0.080-0.685-0.329-1.67-1.087-1.681-0.853-0.015-1.911-0.079-2.416-0.114-0.081-0.005-0.158-0.041-0.215-0.099s-0.090-0.136-0.094-0.217l-0.202-4.293c-0.011-0.112 0.008-0.225 0.054-0.328s0.118-0.191 0.209-0.258c0.767-0.566 1.451-1.238 2.031-1.994 0.899-1.212 1.347-2.7 1.269-4.207l-0.212-4.627c-0.001-0.014 0.001-0.028 0.005-0.041s0.012-0.025 0.021-0.035 0.021-0.018 0.034-0.024c0.013-0.006 0.027-0.008 0.040-0.008h2.94c0.34 0 0.67-0.12 0.929-0.341 0.535-0.459 1.302-1.424 1.189-3.128-0.005-0.063-0.027-0.123-0.063-0.175s-0.086-0.092-0.143-0.118l-2.916-1.289c-0.123-0.070-0.216-0.183-0.26-0.318-0.209-0.62-1.097-2.464-4.257-2.432 0 0-2.487 0-3.855 2.691-1.212 2.373-1.333 4.27-1.068 5.572 0.168 0.828 0.616 1.719 1.431 1.948 0.705 0.198 1.728 0.083 2.252-0.293 1.149-0.808 0.844-5.246 0.844-5.246M13.563 12.623c0 0-5.041 3.793-6.071 6.57-0.878 2.341-0.868 5.367-0.868 5.367M10.945 20.269c0 0 3.169-1.299 4.201 0.228 0.96 1.424-0.029 3.894-1.282 5.867-0.041 0.063-0.023 0.137 0.050 0.132 0.822-0.079 2.83-0.146 3.695 0.789 0.012 0.013 0.024 0.027 0.035 0.041 0.136 0.159 0.913 1.128 0.465 1.746-0.097 0.132-9.148 0.013-11.695-0.023-0.409-0.005-0.809-0.112-1.165-0.314s-0.654-0.49-0.868-0.838c-0.48-0.786-0.887-2.107-0.831-4.318 0.021-0.864 0.211-1.715 0.559-2.506 0.622-1.411 1.288-4.043 0.585-5.259-0.517-0.903-1.189-1.708-1.987-2.376-0.018-0.014-0.030-0.033-0.037-0.055s-0.006-0.045 0.002-0.066c0.007-0.021 0.021-0.040 0.040-0.053s0.040-0.020 0.063-0.020c0.91-0.012 3.589 0.146 4.315 2.341"></path>
</symbol>
<symbol id="icon-other" viewBox="0 0 31 32">
<path fill="#1e88e5" style="fill: var(--color1, #1e88e5)" d="M14.182 27.52c-0.091 0-0.18-0.019-0.264-0.056s-0.16-0.092-0.224-0.161c-0.064-0.069-0.115-0.152-0.15-0.242s-0.053-0.188-0.053-0.286v-10.296h-2.273c-1.956-0.002-3.832-0.844-5.215-2.341s-2.161-3.526-2.163-5.642c0.001-0.198 0.074-0.387 0.203-0.527s0.305-0.218 0.488-0.218h5.56l3.036-2.39c0.728-0.575 1.607-0.883 2.509-0.881 2.98 0.006 5.837 1.289 7.944 3.57s3.294 5.371 3.299 8.596v1.446c0 0.198-0.073 0.389-0.203 0.529s-0.305 0.219-0.489 0.219h-8.809c-0.183 0-0.359-0.079-0.489-0.219s-0.203-0.331-0.203-0.529v-8.681c0-0.198 0.073-0.389 0.203-0.529s0.305-0.219 0.489-0.219 0.359 0.079 0.489 0.219c0.13 0.14 0.203 0.33 0.203 0.529v7.936h7.424v-0.701c-0.003-2.829-1.042-5.541-2.89-7.541s-4.354-3.127-6.968-3.131c-0.611 0.002-1.206 0.216-1.697 0.609l-3.218 2.521c-0.118 0.092-0.259 0.141-0.404 0.141h-5.056c0.171 1.58 0.872 3.038 1.97 4.096s2.517 1.644 3.987 1.646h2.964c0.181 0 0.356 0.077 0.485 0.215s0.203 0.325 0.206 0.522v9.883l11.026-5.518c0.082-0.041 0.171-0.064 0.262-0.068s0.181 0.012 0.266 0.045 0.163 0.085 0.23 0.152c0.067 0.066 0.12 0.146 0.158 0.235s0.059 0.185 0.063 0.283c0.004 0.098-0.011 0.196-0.042 0.288s-0.079 0.176-0.14 0.248c-0.061 0.072-0.135 0.13-0.217 0.171l-12.006 6.008c-0.091 0.046-0.189 0.070-0.289 0.069z"></path>
<path fill="#1e88e5" style="fill: var(--color1, #1e88e5)" d="M14.357 11.117c0.626 0 1.134-0.549 1.134-1.227s-0.508-1.227-1.134-1.227c-0.626 0-1.134 0.549-1.134 1.227s0.508 1.227 1.134 1.227z"></path>
</symbol>
<symbol id="icon-paw" viewBox="0 0 32 32">
<path stroke-linejoin="miter" stroke-linecap="butt" stroke-miterlimit="4" stroke-width="1.3333" d="M23.025 7.633c0 1.866-1.234 3.159-2.51 3.159s-2.51-1.293-2.51-3.159 1.234-3.159 2.51-3.159c1.275 0 2.51 1.293 2.51 3.159z"></path>
<path stroke-linejoin="miter" stroke-linecap="butt" stroke-miterlimit="4" stroke-width="1.3333" d="M8.353 15.284c0 1.866-1.234 3.159-2.51 3.159s-2.51-1.293-2.51-3.159c0-1.866 1.234-3.159 2.51-3.159s2.51 1.293 2.51 3.159z"></path>
<path stroke-linejoin="miter" stroke-linecap="butt" stroke-miterlimit="4" stroke-width="1.3333" d="M14.113 7.633c0 1.866-1.234 3.159-2.51 3.159s-2.51-1.293-2.51-3.159c0-1.866 1.234-3.159 2.51-3.159s2.51 1.293 2.51 3.159z"></path>
<path stroke-linejoin="miter" stroke-linecap="butt" stroke-miterlimit="4" stroke-width="1.3333" d="M28.665 15.284c0 1.866-1.234 3.159-2.51 3.159s-2.51-1.293-2.51-3.159c0-1.866 1.234-3.159 2.51-3.159s2.51 1.293 2.51 3.159z"></path>
<path d="M23.331 22.855v0zM20.794 26.819v0zM21.731 19.317v0zM21.487 19.036v0zM20.244 16.979v0zM19.272 15.274v0zM16.003 13.592l-0.061 0.664 0.061 0.006 0.061-0.006-0.061-0.664zM12.733 15.274v0zM11.761 16.979v0zM10.518 19.036v0zM10.274 19.317v0zM8.674 22.855v0zM11.211 26.819v0zM15.874 28.179l0.667 0.005 0.005-0.637-0.636-0.035-0.036 0.666zM15.874 28.189l-0.667-0.005-0.005 0.683 0.683-0.011-0.011-0.667zM16.003 28.185l0.025-0.666-0.025-0.001-0.025 0.001 0.025 0.666zM16.131 28.189l-0.011 0.667 0.683 0.011-0.005-0.683-0.667 0.005zM16.131 28.179l-0.036-0.666-0.636 0.035 0.005 0.637 0.667-0.005zM22.666 22.898c0.089 1.362-0.845 2.359-2.262 3.38l0.779 1.082c1.424-1.025 2.953-2.411 2.813-4.549l-1.331 0.087zM21.23 19.757c0.681 0.778 1.33 1.519 1.436 3.142l1.331-0.087c-0.136-2.075-1.031-3.097-1.763-3.933l-1.003 0.878zM20.98 19.468c0.083 0.098 0.168 0.195 0.25 0.289l1.003-0.878c-0.083-0.095-0.162-0.184-0.237-0.274l-1.016 0.864zM19.654 17.289c0.396 0.755 0.839 1.607 1.326 2.179l1.016-0.864c-0.369-0.434-0.739-1.131-1.161-1.935l-1.181 0.62zM18.721 15.65c0.307 0.449 0.609 1.022 0.932 1.639l1.181-0.62c-0.314-0.598-0.653-1.245-1.012-1.771l-1.101 0.753zM16.064 14.256c1.2-0.11 2.131 0.624 2.658 1.394l1.101-0.753c-0.676-0.989-2.015-2.141-3.881-1.97l0.122 1.328zM16.064 12.928c-1.866-0.172-3.204 0.98-3.881 1.97l1.101 0.753c0.526-0.77 1.458-1.505 2.658-1.394l0.122-1.328zM12.183 14.898c-0.36 0.526-0.699 1.174-1.012 1.771l1.181 0.62c0.324-0.617 0.625-1.19 0.932-1.639l-1.101-0.753zM11.171 16.669c-0.422 0.804-0.792 1.501-1.161 1.935l1.016 0.864c0.487-0.572 0.93-1.424 1.326-2.179l-1.181-0.62zM10.010 18.604c-0.076 0.089-0.154 0.179-0.237 0.274l1.003 0.878c0.082-0.094 0.167-0.191 0.25-0.289l-1.016-0.864zM9.772 18.878c-0.732 0.836-1.627 1.858-1.763 3.933l1.33 0.087c0.106-1.623 0.755-2.364 1.436-3.142l-1.003-0.878zM8.009 22.811c-0.14 2.138 1.389 3.524 2.813 4.549l0.779-1.082c-1.417-1.021-2.351-2.018-2.262-3.38l-1.33-0.087zM10.822 27.36c0.74 0.533 1.704 0.882 2.597 1.108 0.903 0.228 1.79 0.343 2.418 0.377l0.072-1.331c-0.548-0.030-1.35-0.133-2.165-0.338-0.824-0.208-1.602-0.506-2.145-0.897l-0.779 1.082zM16.541 28.194v-0.009l-1.333-0.011-0 0.009 1.333 0.011zM15.978 27.519c-0.041 0.001-0.079 0.003-0.115 0.003l0.022 1.333c0.046-0.001 0.093-0.002 0.142-0.004l-0.050-1.332zM15.978 28.851c0.049 0.002 0.097 0.003 0.142 0.004l0.022-1.333c-0.036-0.001-0.075-0.002-0.115-0.003l-0.050 1.332zM16.798 28.183l-0-0.009-1.333 0.011v0.009l1.333-0.011zM20.404 26.278c-0.542 0.391-1.321 0.689-2.145 0.897-0.814 0.205-1.617 0.309-2.165 0.338l0.072 1.331c0.628-0.034 1.516-0.149 2.418-0.377 0.893-0.225 1.858-0.575 2.597-1.108l-0.779-1.082z"></path>
</symbol>
<symbol id="icon-rabbit" viewBox="0 0 32 32">
<path fill="none" stroke="#1e88e5" style="stroke: var(--color1, #1e88e5)" stroke-linejoin="miter" stroke-linecap="round" stroke-miterlimit="10" stroke-width="1.3333" d="M21.078 27.376h3.953c0.032 0 0.065-0.006 0.095-0.019s0.057-0.031 0.080-0.054c0.023-0.023 0.040-0.051 0.052-0.081s0.017-0.063 0.016-0.095c-0.016-0.461-0.235-1.451-0.825-1.647-0.461-0.137-0.942-0.201-1.423-0.188-0.093 0.001-0.182-0.031-0.254-0.090s-0.12-0.141-0.136-0.232l-0.465-2.496c-0.009-0.051-0.007-0.103 0.006-0.154s0.036-0.097 0.069-0.137c0.4-0.502 1.783-2.556 1.735-4.069M21.565 17.208c0 0 4.356 1.263 6.215-1.051 0.090-0.113 0.154-0.243 0.189-0.383s0.040-0.285 0.014-0.426c0-0.012 0-0.024-0.007-0.036-0.233-1.22-0.839-2.338-1.735-3.198s-2.036-1.422-3.264-1.607c-0.457-0.071-0.897-0.133-1.239-0.159 0 0-2.412-6.128-5.51-6.347-0.059-0.004-0.119 0.005-0.175 0.024s-0.108 0.050-0.152 0.089c-0.044 0.039-0.080 0.087-0.106 0.141s-0.041 0.111-0.044 0.171c-0.088 1.492 0.134 6.461 3.619 7.733M18.431 11.979l-1.259 1.887c-0.098 0.146-0.24 0.257-0.406 0.316s-0.346 0.063-0.514 0.013c-1.42-0.425-5.072-1.011-7.816 0.36-0.625 0.312-4.611 2.879-3.54 9.2 0 0.128-2.16-0.027-2.229 1.81-0.037 0.968 0.709 1.853 1.678 1.889 0.577 0.021 1.237-0.243 1.948-1.232 0.048-0.067 0.107-0.059 0.133 0.019 0.075 0.252 0.033 0.828 0.55 1.129 0.782 0.458 8.195 0.18 10.915 0.021 1.335-0.077 1.767-1.637 0.159-2.145-0.965-0.306-3.973-0.192-4.385-0.176-0.003 0-0.006-0-0.009-0.002s-0.005-0.004-0.006-0.007c-0.001-0.003-0.002-0.006-0.001-0.009s0.002-0.006 0.005-0.008c0.275-0.302 2.507-2.416 1.785-4.43-0.667-1.845-3.305-2.002-3.305-2.002"></path>
</symbol>
<symbol id="icon-turtle" viewBox="0 0 32 32">
<path fill="none" stroke="#1e88e5" style="stroke: var(--color1, #1e88e5)" stroke-linejoin="miter" stroke-linecap="round" stroke-miterlimit="10" stroke-width="1.3333" d="M6.889 15.667l1.296-0.383 1.263 0.799M8.185 15.136l1.939-2.941M10.123 12.195h4.947M10.123 12.195l-0.676-0.328M15.070 12.195l1.819 2.947M15.070 12.195l0.577-0.328M16.037 15.925l0.629-0.624M17.22 15.143l0.762 0.158M23.158 12.316c1.355-0.523 4.13-0.322 4.634 0.586 0.543 0.981-0.025 2.291-1.146 3.023-0.343 0.219-0.743 0.334-1.15 0.331h-0.859c-0.092-0-0.182 0.019-0.266 0.056s-0.158 0.092-0.219 0.16c-0.576 0.646-0.152 0.194-1.673 1.112M20.667 18.667c0 0 0.826 0.429 1.111 1.448 0.125 0.521 0.137 1.062 0.037 1.588-0.009 0.046-0.005 0.094 0.010 0.138s0.042 0.084 0.078 0.114c0.262 0.222 0.882 0.75 0.665 1.638-0.011 0.059-0.042 0.113-0.088 0.153s-0.103 0.063-0.164 0.065h-3.718c-0.025 0-0.050-0.005-0.074-0.015s-0.044-0.025-0.061-0.043c-0.017-0.019-0.030-0.041-0.039-0.065s-0.011-0.049-0.009-0.075c0.058-0.749 0.34-3.104-1.33-3.498M17.863 20.935c0 0-5.49 0.63-7.473 0.185M8.399 20.35c0 0-0.28 0.159 0 1.243 0.244 0.949 0.734 1.659 0.328 2.058-0.109 0.101-0.253 0.155-0.402 0.151h-4.041c-0.060 0-0.118-0.023-0.16-0.065s-0.067-0.099-0.068-0.159c-0.011-0.765-0.145-2.941 0.611-3.578M21.981 14.654c0.064 0.095 0.097 0.208 0.092 0.322s-0.044 0.225-0.115 0.315c-0.583 0.742-2.287 2.078-4.264 2.786-4.682 1.675-9.151-0.126-11.911 0.073-1.499 0.112-2.090 0.316-2.372 0.327-0.063 0.002-0.125-0.013-0.18-0.044s-0.1-0.077-0.13-0.132l-0.421-0.771c-0.012-0.028-0.017-0.060-0.014-0.090s0.015-0.060 0.034-0.085c0.82-1.118 1.48-2.344 1.963-3.643 0.801-2.28 2.154-3.867 4.323-4.212 1.756-0.28 5.352-0.139 6.66-0.076 0.404 0.019 0.805 0.087 1.193 0.203 0.801 0.242 2.062 0.756 2.548 1.697 1.63 3.145 2.105 2.613 2.594 3.329z"></path>
</symbol>
<symbol id="icon-dog-image" viewBox="0 0 33 32">
<path d="M30.31 0h-28.732v30.535h28.732v-30.535z"></path>
</symbol>
</defs>
</svg>
