<svg aria-hidden="true" style="position: absolute; width: 0; height: 0; overflow: hidden;" version="1.1" xmlns="http://www.w3.org/2000/svg" xmlns:xlink="http://www.w3.org/1999/xlink">
<defs>
<symbol id="icon-icon-logos_apple" viewBox="0 0 32 32">
<path fill="#1e88e5" style="fill: var(--color1, #1e88e5)" d="M21.971 8.602c1.324 0 2.697 0.601 3.851 1.657-0.804 0.691-1.454 1.519-1.925 2.453-0.65 1.3-0.942 2.787-0.829 4.281 0.106 1.519 0.617 2.973 1.462 4.208 0.65 0.942 1.479 1.722 2.437 2.299-0.406 0.869-0.747 1.495-1.365 2.478-0.682 1.064-2.478 3.899-4.225 3.916h-0.033c-0.601 0-0.991-0.179-1.568-0.455-0.812-0.382-1.812-0.861-3.526-0.861h-0.049c-1.714 0.008-2.746 0.479-3.566 0.861-0.601 0.276-0.999 0.463-1.617 0.463h-0.033c-1.592-0.016-3.047-1.974-4.127-3.672-1.568-2.47-2.575-5.329-2.835-8.051-0.236-2.478 0.162-4.753 1.097-6.231 0.65-1.032 1.503-1.893 2.47-2.486 0.91-0.552 1.869-0.845 2.778-0.845 1.007 0 1.844 0.309 2.738 0.634 0.934 0.341 1.909 0.699 3.063 0.699 1.105 0 1.974-0.341 2.811-0.666 0.91-0.357 1.739-0.682 2.99-0.682zM21.971 7.302c-2.73 0-3.883 1.34-5.784 1.34-1.95 0-3.436-1.332-5.8-1.332-2.315 0-4.785 1.454-6.353 3.932-2.202 3.493-1.828 10.074 1.739 15.679 1.275 2.007 2.982 4.257 5.216 4.281 0.016 0 0.024 0 0.041 0 1.942 0 2.518-1.308 5.191-1.324 0.016 0 0.024 0 0.041 0 2.632 0 3.16 1.316 5.094 1.316 0.016 0 0.024 0 0.041 0 2.234-0.024 4.029-2.519 5.305-4.517 0.918-1.438 1.259-2.161 1.966-3.786-5.159-2.015-5.987-9.538-0.885-12.422-1.56-2.007-3.745-3.168-5.809-3.168z"></path>
<path fill="#1e88e5" style="fill: var(--color1, #1e88e5)" d="M20.045 1.665c-0.219 1.21-0.853 2.177-1.186 2.616-0.601 0.796-1.462 1.414-2.34 1.714 0.041-0.244 0.106-0.496 0.195-0.747 0.284-0.829 0.723-1.479 1.040-1.877 0.577-0.715 1.43-1.332 2.291-1.706zM21.369-0c-1.625 0.114-3.518 1.178-4.631 2.567-1.007 1.259-1.836 3.128-1.511 4.939 0.041 0 0.081 0 0.13 0 1.73 0 3.501-1.072 4.533-2.445 0.999-1.308 1.755-3.16 1.479-5.061z"></path>
</symbol>
<symbol id="icon-icon-logos_applepay" viewBox="0 0 32 32">
<path fill="#1e88e5" style="fill: var(--color1, #1e88e5)" d="M5.85 11.045c-0.376 0.449-0.976 0.803-1.576 0.752-0.075-0.607 0.219-1.251 0.563-1.649 0.376-0.461 1.032-0.788 1.563-0.815 0.063 0.632-0.181 1.251-0.549 1.712zM6.392 11.917c-0.868-0.051-1.613 0.5-2.024 0.5-0.42 0-1.051-0.475-1.739-0.461-0.893 0.013-1.724 0.524-2.18 1.34-0.939 1.629-0.244 4.044 0.661 5.371 0.444 0.657 0.976 1.377 1.676 1.352 0.661-0.025 0.924-0.436 1.724-0.436 0.807 0 1.037 0.436 1.739 0.424 0.724-0.013 1.18-0.657 1.624-1.315 0.507-0.747 0.713-1.472 0.725-1.511-0.013-0.013-1.4-0.549-1.413-2.167-0.012-1.353 1.093-1.997 1.144-2.035-0.624-0.936-1.6-1.037-1.937-1.063zM11.412 10.085v9.852h1.513v-3.368h2.093c1.912 0 3.256-1.328 3.256-3.248 0-1.921-1.319-3.236-3.205-3.236h-3.657zM12.926 11.375h1.744c1.312 0 2.061 0.707 2.061 1.952s-0.749 1.96-2.068 1.96h-1.739v-3.913l0.001 0.001zM21.038 20.012c0.951 0 1.832-0.485 2.232-1.257h0.031v1.183h1.4v-4.904c0-1.421-1.125-2.339-2.856-2.339-1.607 0-2.793 0.929-2.837 2.205h1.363c0.112-0.607 0.668-1.004 1.431-1.004 0.925 0 1.444 0.436 1.444 1.239v0.543l-1.888 0.115c-1.756 0.107-2.707 0.833-2.707 2.097 0 1.276 0.981 2.123 2.388 2.123zM21.444 18.844c-0.807 0-1.32-0.392-1.32-0.992 0-0.62 0.495-0.98 1.439-1.037l1.68-0.107v0.556c0 0.923-0.772 1.58-1.799 1.58zM26.57 22.617c1.475 0 2.168-0.569 2.773-2.295l2.656-7.533h-1.537l-1.781 5.82h-0.031l-1.781-5.82h-1.581l2.561 7.173-0.137 0.436c-0.231 0.739-0.605 1.023-1.275 1.023-0.119 0-0.349-0.013-0.444-0.025v1.183c0.088 0.025 0.463 0.037 0.576 0.037l0.001 0.001z"></path>
</symbol>
<symbol id="icon-icon-logos_facebook" viewBox="0 0 32 32">
<path fill="#1877f2" style="fill: var(--color2, #1877f2)" d="M32 16c0-8.836-7.163-16-16-16s-16 7.163-16 16c0 7.986 5.851 14.605 13.5 15.806v-11.181h-4.063v-4.625h4.063v-3.525c0-4.010 2.389-6.225 6.043-6.225 1.751 0 3.582 0.313 3.582 0.313v3.938h-2.018c-1.988 0-2.607 1.233-2.607 2.499v3.001h4.437l-0.709 4.625h-3.728v11.181c7.649-1.2 13.5-7.819 13.5-15.806z"></path>
<path fill="#fff" style="fill: var(--color3, #fff)" d="M22.223 20.625l0.709-4.625h-4.437v-3.001c0-1.265 0.62-2.499 2.607-2.499h2.017v-3.938c0 0-1.831-0.313-3.582-0.313-3.655 0-6.043 2.215-6.043 6.225v3.525h-4.063v4.625h4.063v11.181c0.827 0.13 1.663 0.195 2.5 0.194s1.673-0.065 2.5-0.194v-11.181h3.728z"></path>
</symbol>
<symbol id="icon-icon-logos_google" viewBox="0 0 32 32">
<path fill="#1e88e5" style="fill: var(--color1, #1e88e5)" d="M16.311 31.253c-5.248 0-9.94-2.91-12.247-7.593-0.928-1.887-1.398-3.916-1.398-6.034 0-2.119 0.471-4.151 1.399-6.036 2.306-4.682 6.998-7.591 12.246-7.591 3.325 0 6.435 1.177 8.992 3.405 0.095 0.083 0.152 0.201 0.155 0.327s-0.044 0.248-0.133 0.337l-3.836 3.832c-0.165 0.164-0.429 0.177-0.609 0.030-1.308-1.069-2.889-1.634-4.569-1.634-3.177 0-5.978 2.020-6.968 5.026-0.247 0.751-0.372 1.526-0.372 2.304 0 0.776 0.124 1.549 0.371 2.298 0.991 3.009 3.792 5.031 6.97 5.031 1.584 0 3.015-0.374 4.139-1.082 0.776-0.49 1.393-1.125 1.836-1.89 0.125-0.217 0.401-0.292 0.621-0.166 0.217 0.126 0.292 0.403 0.166 0.621-0.517 0.894-1.236 1.635-2.139 2.204-1.269 0.799-2.867 1.222-4.623 1.222-3.57 0-6.718-2.273-7.833-5.656-0.277-0.841-0.417-1.71-0.417-2.582 0-0.875 0.141-1.745 0.418-2.588 1.114-3.379 4.26-5.651 7.831-5.651 1.756 0 3.413 0.547 4.819 1.586l3.203-3.199c-2.317-1.878-5.080-2.867-8.023-2.867-4.899 0-9.279 2.714-11.431 7.083-0.867 1.76-1.305 3.656-1.305 5.635 0 1.977 0.439 3.873 1.305 5.632 2.151 4.371 6.532 7.086 11.431 7.086 3.147 0 6.090-1.123 8.286-3.161 2.52-2.339 3.852-5.643 3.852-9.557 0-0.546-0.065-1.156-0.193-1.817h-11.337v4.057h6.466c0.251 0 0.454 0.203 0.454 0.454s-0.203 0.454-0.454 0.454h-6.921c-0.251 0-0.454-0.203-0.454-0.454v-4.965c0-0.251 0.203-0.454 0.454-0.454h12.159c0.213 0 0.398 0.148 0.443 0.356 0.191 0.863 0.288 1.661 0.288 2.369 0 4.173-1.433 7.707-4.142 10.223-2.365 2.195-5.526 3.404-8.904 3.404z"></path>
</symbol>
<symbol id="icon-icon-logos_google-icon" viewBox="0 0 32 32">
<path fill="#4285f4" style="fill: var(--color4, #4285f4)" d="M31.984 16.301c0-1.311-0.109-2.268-0.345-3.26h-15.321v5.917h8.993c-0.181 1.471-1.16 3.685-3.336 5.173l-0.031 0.198 4.844 3.667 0.336 0.033c3.082-2.782 4.859-6.874 4.859-11.729z"></path>
<path fill="#34a853" style="fill: var(--color5, #34a853)" d="M16.318 31.89c4.406 0 8.105-1.417 10.807-3.862l-5.15-3.898c-1.378 0.939-3.227 1.595-5.657 1.595-4.315 0-7.978-2.781-9.284-6.626l-0.191 0.016-5.037 3.809-0.066 0.179c2.684 5.209 8.196 8.788 14.578 8.788z"></path>
<path fill="#fbbc05" style="fill: var(--color6, #fbbc05)" d="M7.035 19.097c-0.345-0.992-0.544-2.055-0.544-3.154s0.199-2.161 0.526-3.154l-0.009-0.211-5.1-3.87-0.167 0.078c-1.106 2.161-1.741 4.589-1.741 7.158s0.635 4.996 1.741 7.158l5.295-4.004z"></path>
<path fill="#eb4335" style="fill: var(--color7, #eb4335)" d="M16.318 6.165c3.064 0 5.131 1.293 6.31 2.374l4.605-4.394c-2.829-2.569-6.509-4.146-10.915-4.146-6.383 0-11.895 3.579-14.578 8.787l5.276 4.004c1.324-3.845 4.986-6.626 9.302-6.626z"></path>
</symbol>
<symbol id="icon-icon-logos_googlepay" viewBox="0 0 32 32">
<path fill="#1e88e5" style="fill: var(--color1, #1e88e5)" d="M31.999 13.333l-4.179 9.333h-1.291l1.551-3.267-2.748-6.067h1.36l1.987 4.653h0.027l1.931-4.653h1.363zM14.643 16.221v3.779h-1.311v-9.333h3.476c0.824-0.021 1.627 0.268 2.249 0.808 0.611 0.503 0.953 1.22 0.941 1.971 0.005 0.38-0.078 0.756-0.241 1.099s-0.403 0.645-0.7 0.881c-0.607 0.531-1.357 0.795-2.249 0.795l-2.165 0.001zM14.641 11.816v3.259h2.197c0.487 0.013 0.957-0.163 1.297-0.483 0.336-0.3 0.527-0.711 0.527-1.141 0-0.429-0.191-0.84-0.527-1.14-0.172-0.165-0.376-0.293-0.599-0.378s-0.46-0.125-0.699-0.116h-2.197zM22.629 13.333c0.836 0 1.496 0.232 1.98 0.696 0.483 0.464 0.724 1.101 0.724 1.909v3.857h-1.081v-0.869h-0.049c-0.468 0.716-1.091 1.073-1.867 1.073-0.664 0-1.219-0.204-1.667-0.613-0.216-0.192-0.388-0.428-0.504-0.693s-0.172-0.552-0.166-0.84c0-0.647 0.236-1.161 0.707-1.544s1.1-0.573 1.887-0.575c0.671 0 1.224 0.128 1.657 0.383v-0.268c0.002-0.197-0.039-0.392-0.119-0.571s-0.199-0.34-0.348-0.469c-0.294-0.279-0.685-0.433-1.091-0.429-0.632 0-1.132 0.277-1.499 0.831l-0.996-0.651c0.547-0.817 1.357-1.227 2.431-1.227zM21.166 17.88c-0.001 0.148 0.032 0.295 0.097 0.428s0.161 0.249 0.279 0.339c0.249 0.204 0.56 0.312 0.879 0.307 0.476-0.001 0.933-0.2 1.271-0.549 0.178-0.164 0.32-0.364 0.417-0.585s0.147-0.462 0.146-0.704c-0.353-0.293-0.844-0.439-1.475-0.439-0.46 0-0.843 0.116-1.149 0.347-0.309 0.232-0.464 0.516-0.464 0.857zM5.441 10.666c1.346-0.017 2.648 0.48 3.64 1.389l-1.552 1.523c-0.566-0.527-1.315-0.814-2.088-0.8-0.675 0.004-1.331 0.218-1.879 0.612s-0.958 0.949-1.176 1.588c-0.228 0.662-0.228 1.381 0 2.043 0.218 0.639 0.629 1.193 1.176 1.588s1.204 0.608 1.879 0.612c0.735 0 1.364-0.184 1.853-0.508 0.572-0.373 0.964-0.96 1.085-1.623h-2.939v-2.053h5.132c0.063 0.359 0.093 0.72 0.093 1.084 0 1.623-0.592 2.996-1.619 3.924-0.901 0.816-2.139 1.288-3.607 1.288-1.002 0.004-1.986-0.268-2.844-0.786s-1.556-1.263-2.018-2.152c-0.381-0.741-0.579-1.562-0.579-2.395s0.199-1.654 0.579-2.395c0.462-0.889 1.16-1.634 2.017-2.152s1.842-0.791 2.844-0.787z"></path>
</symbol>
<symbol id="icon-icon-monobank" viewBox="0 0 32 32">
<path stroke-linejoin="round" stroke-linecap="round" stroke-miterlimit="4" stroke-width="0.5897" d="M29.173 1.231h-26.345c-0.882 0-1.597 0.715-1.597 1.597v26.345c0 0.882 0.715 1.597 1.597 1.597h26.345c0.882 0 1.597-0.715 1.597-1.597v-26.345c0-0.882-0.715-1.597-1.597-1.597z"></path>
<path stroke-linejoin="round" stroke-linecap="round" stroke-miterlimit="4" stroke-width="0.5897" d="M4.423 15.481c0-0.882 0.715-1.597 1.597-1.597s1.597 0.715 1.597 1.597M7.616 15.481v2.635M7.616 15.481c0-0.882 0.715-1.597 1.597-1.597s1.597 0.715 1.597 1.597v2.635M4.423 13.885v4.231"></path>
<path stroke-linejoin="round" stroke-linecap="round" stroke-miterlimit="4" stroke-width="0.5897" d="M14.801 18.116c-0.882 0-1.597-0.715-1.597-1.597v-1.038c0-0.882 0.715-1.597 1.597-1.597s1.597 0.715 1.597 1.597v1.038c0 0.882-0.715 1.597-1.597 1.597zM25.978 18.116c-0.882 0-1.597-0.715-1.597-1.597v-1.038c0-0.882 0.715-1.597 1.597-1.597s1.597 0.715 1.597 1.597v1.038c0 0.882-0.715 1.597-1.597 1.597z"></path>
<path stroke-linejoin="round" stroke-linecap="round" stroke-miterlimit="4" stroke-width="0.5897" d="M21.987 18.116v-2.635c0-0.882-0.715-1.597-1.597-1.597s-1.597 0.715-1.597 1.597M18.793 18.116v-4.231"></path>
</symbol>
<symbol id="icon-icon-privat24" viewBox="0 0 32 32">
<path fill="#231f20" style="fill: var(--color8, #231f20)" d="M0 31.995h12.506v-12.507h-12.506v12.507z"></path>
<path fill="#5ebb46" style="fill: var(--color9, #5ebb46)" d="M0.010 0v15.569h3.312c8.699 0 13.111 4.42 13.111 13.123v3.308h15.567v-32h-31.99zM25.387 6.616c0 4.251 0 14.518 0 18.768-1.193 0-1.4 0-2.549 0-1.1-9.281-6.939-15.112-16.215-16.212 0-1.161 0-1.362 0-2.556 4.254 0 14.511 0 18.765 0z"></path>
</symbol>
</defs>
</svg>
