<svg aria-hidden="true" style="position: absolute; width: 0; height: 0; overflow: hidden;" version="1.1" xmlns="http://www.w3.org/2000/svg" xmlns:xlink="http://www.w3.org/1999/xlink">
<defs>
<symbol id="icon-allergy" viewBox="0 0 32 32">
<path fill="none" stroke="#1e88e5" style="stroke: var(--color1, #1e88e5)" stroke-linejoin="miter" stroke-linecap="butt" stroke-miterlimit="10" stroke-width="1.3333" d="M16.778 20.208c2.302 0 4.169-1.866 4.169-4.169s-1.866-4.169-4.169-4.169-4.169 1.866-4.169 4.169c0 2.302 1.866 4.169 4.169 4.169z"></path>
<path fill="none" stroke="#1e88e5" style="stroke: var(--color1, #1e88e5)" stroke-linejoin="miter" stroke-linecap="butt" stroke-miterlimit="10" stroke-width="1.3333" d="M10.319 8.439c0.858 0 1.553-0.695 1.553-1.553s-0.695-1.553-1.553-1.553c-0.858 0-1.553 0.695-1.553 1.553s0.695 1.553 1.553 1.553z"></path>
<path fill="none" stroke="#1e88e5" style="stroke: var(--color1, #1e88e5)" stroke-linejoin="miter" stroke-linecap="butt" stroke-miterlimit="10" stroke-width="1.3333" d="M6.886 19.637c0.858 0 1.553-0.695 1.553-1.553s-0.695-1.553-1.553-1.553c-0.858 0-1.553 0.695-1.553 1.553s0.695 1.553 1.553 1.553z"></path>
<path fill="none" stroke="#1e88e5" style="stroke: var(--color1, #1e88e5)" stroke-linejoin="miter" stroke-linecap="butt" stroke-miterlimit="10" stroke-width="1.3333" d="M16.777 27.81c0.858 0 1.553-0.695 1.553-1.553s-0.695-1.553-1.553-1.553-1.553 0.695-1.553 1.553c0 0.858 0.695 1.553 1.553 1.553z"></path>
<path fill="none" stroke="#1e88e5" style="stroke: var(--color1, #1e88e5)" stroke-linejoin="miter" stroke-linecap="butt" stroke-miterlimit="10" stroke-width="1.3333" d="M25.113 19.637c0.858 0 1.553-0.695 1.553-1.553s-0.695-1.553-1.553-1.553c-0.858 0-1.553 0.695-1.553 1.553s0.695 1.553 1.553 1.553z"></path>
<path fill="none" stroke="#1e88e5" style="stroke: var(--color1, #1e88e5)" stroke-linejoin="miter" stroke-linecap="butt" stroke-miterlimit="10" stroke-width="1.3333" d="M19.8 9.747c0.858 0 1.553-0.695 1.553-1.553s-0.695-1.553-1.553-1.553c-0.858 0-1.553 0.695-1.553 1.553s0.695 1.553 1.553 1.553z"></path>
<path fill="none" stroke="#1e88e5" style="stroke: var(--color1, #1e88e5)" stroke-linejoin="round" stroke-linecap="round" stroke-miterlimit="4" stroke-width="1.3333" d="M11.219 8.193l3.27 4.332"></path>
<path fill="none" stroke="#1e88e5" style="stroke: var(--color1, #1e88e5)" stroke-linejoin="round" stroke-linecap="round" stroke-miterlimit="4" stroke-width="1.3333" d="M8.521 17.84l4.005-0.981"></path>
<path fill="none" stroke="#1e88e5" style="stroke: var(--color1, #1e88e5)" stroke-linejoin="round" stroke-linecap="round" stroke-miterlimit="4" stroke-width="1.3333" d="M16.776 24.542v-4.332"></path>
<path fill="none" stroke="#1e88e5" style="stroke: var(--color1, #1e88e5)" stroke-linejoin="round" stroke-linecap="round" stroke-miterlimit="4" stroke-width="1.3333" d="M23.397 17.594l-2.452-0.572"></path>
<path fill="none" stroke="#1e88e5" style="stroke: var(--color1, #1e88e5)" stroke-linejoin="round" stroke-linecap="round" stroke-miterlimit="4" stroke-width="1.3333" d="M19.229 9.828l-0.817 2.125"></path>
</symbol>
<symbol id="icon-bones" viewBox="0 0 32 32">
<path fill="none" stroke="#1e88e5" style="stroke: var(--color1, #1e88e5)" stroke-linejoin="round" stroke-linecap="round" stroke-miterlimit="4" stroke-width="1.3333" d="M11.963 16.814c-0.619-0.379-1.355-0.497-2.056-0.331-0.267-0.691-0.78-1.248-1.434-1.559-1.312-0.61-2.857-0.105-3.591 1.173-0.544 0.954-0.511 2.146 0.084 3.068 0.411 0.619 0.465 1.421 0.139 2.093l-2.438 4.718 3.74 2.024 2.439-4.718c0.349-0.659 1.017-1.071 1.745-1.074 1.072-0.019 2.038-0.67 2.487-1.675 0.598-1.352 0.12-2.952-1.112-3.719h-0.002z"></path>
<path fill="none" stroke="#1e88e5" style="stroke: var(--color1, #1e88e5)" stroke-linejoin="round" stroke-linecap="round" stroke-miterlimit="4" stroke-width="1.3333" d="M16.027 9.932c0.11 0.723 0.503 1.378 1.1 1.829-0.369 0.638-0.471 1.388-0.284 2.097 0.386 1.413 1.808 2.322 3.306 2.111 1.116-0.161 2.038-0.924 2.373-1.964 0.217-0.708 0.817-1.247 1.565-1.405l6.58-1.476-0.42-2.024-0.453-2.181-6.58 1.476c-0.753 0.132-1.521-0.142-2.005-0.714-0.725-0.835-1.88-1.195-2.973-0.928-1.466 0.364-2.416 1.732-2.207 3.179l-0.001-0.001z"></path>
</symbol>
<symbol id="icon-care" viewBox="0 0 32 32">
<path stroke-linejoin="miter" stroke-linecap="butt" stroke-miterlimit="4" stroke-width="1.3333" d="M6.379 11.096c-0.051 0.018-0.091 0.005-0.119-0.040s-0.023-0.088 0.017-0.125l0.031-0.029 0.072 0.194zM6.379 11.096l0.521-0.194c-0.015-0.086-0.047-0.153-0.074-0.198-0.028-0.046-0.076-0.105-0.146-0.156l-0.372 0.352 0.071 0.195zM8.019 9.961c-0.139 0.267-0.317 0.517-0.533 0.74 0.773-0.192 1.589-0.002 2.197 0.512-0.095-0.295-0.145-0.598-0.151-0.899M8.019 9.961c0.526-0.011 1.046 0.11 1.513 0.353M8.019 9.961c0.242-0.467 0.364-0.987 0.353-1.513M8.019 9.961l0.353-1.513M9.532 10.313c0.267 0.139 0.517 0.317 0.74 0.533-0.192-0.773-0.002-1.589 0.512-2.197-0.295 0.095-0.598 0.145-0.899 0.151M9.532 10.313c-0.011-0.526 0.11-1.046 0.353-1.513M9.885 8.8c-0.526 0.011-1.046-0.11-1.513-0.353M9.885 8.8l-1.513-0.353M7.12 10.521l-0.108-0.289c0.038-0.039 0.074-0.079 0.108-0.12l-0.001 0.409z"></path>
<path stroke-linejoin="miter" stroke-linecap="butt" stroke-miterlimit="4" stroke-width="1.3333" d="M26.663 19.586c0.010-0.036-0.001-0.063-0.034-0.081l-0.025-0.013-0.001-0.001-0.497-0.265c-0.043 0.061-0.067 0.12-0.081 0.164l0.637 0.196zM26.663 19.586c-0.011 0.036-0.035 0.052-0.073 0.049l-0.028-0.003-0.001-0-0.561-0.051c-0.002-0.071 0.009-0.132 0.021-0.176l0.642 0.181zM24.667 18.568c0.203-0.144 0.385-0.32 0.537-0.524 0.068 0.327 0.231 0.628 0.467 0.865-0.254 0.015-0.501 0.071-0.732 0.162M24.667 18.568c-0.091-0.231-0.147-0.478-0.162-0.732-0.237 0.237-0.537 0.399-0.865 0.467 0.204 0.152 0.38 0.333 0.524 0.537M24.667 18.568c0.070 0.178 0.161 0.347 0.272 0.503M24.667 18.568c-0.156 0.11-0.325 0.202-0.503 0.272M24.165 18.84c-0.231 0.091-0.478 0.147-0.732 0.162 0.237 0.237 0.399 0.537 0.467 0.865 0.152-0.204 0.333-0.38 0.537-0.524M24.165 18.84c0.11 0.156 0.202 0.325 0.272 0.503M24.436 19.343c0.091 0.231 0.147 0.478 0.162 0.732 0.237-0.237 0.537-0.399 0.865-0.467-0.204-0.152-0.38-0.333-0.524-0.537M24.436 19.343c0.156-0.111 0.325-0.202 0.503-0.272M23.922 21.066c0.036 0.010 0.063-0.001 0.081-0.034l0.013-0.025 0.001-0.001 0.265-0.497c-0.061-0.043-0.12-0.067-0.164-0.081l-0.196 0.637zM23.922 21.066c-0.036-0.011-0.052-0.035-0.049-0.073l0.003-0.028v-0.001l0.051-0.561c0.071-0.002 0.132 0.009 0.176 0.021l-0.162 0.575-0 0.001-0.019 0.066zM22.441 18.325l0.066 0.020 0 0 0.571 0.176c-0.014 0.044-0.038 0.103-0.081 0.164l-0.522-0.279c-0.033-0.017-0.044-0.045-0.034-0.081zM22.441 18.325l0.642 0.181c0.013-0.045 0.023-0.105 0.021-0.176l-0.59-0.053c-0.038-0.004-0.061 0.013-0.073 0.049zM25.088 16.903l0.013-0.025c0.017-0.033 0.045-0.044 0.081-0.034s0.052 0.035 0.049 0.073l-0.003 0.028v0.001l-0.051 0.561c-0.071 0.002-0.132-0.009-0.176-0.021-0.051-0.014-0.115-0.041-0.179-0.086l0.266-0.497z"></path>
<path fill="none" stroke="#1e88e5" style="stroke: var(--color1, #1e88e5)" stroke-linejoin="round" stroke-linecap="round" stroke-miterlimit="4" stroke-width="1.3333" d="M21.219 25.561h3.672"></path>
<path fill="none" stroke="#1e88e5" style="stroke: var(--color1, #1e88e5)" stroke-linejoin="round" stroke-linecap="round" stroke-miterlimit="4" stroke-width="1.3333" d="M5.333 25.561h3.672"></path>
<path fill="none" stroke="#1e88e5" style="stroke: var(--color1, #1e88e5)" stroke-linejoin="round" stroke-linecap="round" stroke-miterlimit="4" stroke-width="1.3333" d="M13.443 25.561h2.561"></path>
<path fill="none" stroke="#1e88e5" style="stroke: var(--color1, #1e88e5)" stroke-linejoin="round" stroke-linecap="round" stroke-miterlimit="4" stroke-width="1.3333" d="M18.047 13.75c-1.093 3.209-1.419 6.399-1.080 9.157-0.68 0.546-1.068 1.424-0.944 2.352 0.188 1.411 1.483 2.401 2.894 2.214s2.401-1.483 2.214-2.894c-0.124-0.933-0.733-1.682-1.538-2.028-0.512-3.211-0.186-7.009 1.116-10.832 1.027-3.015 2.526-5.646 4.275-7.718-2.858 1.908-5.447 5.382-6.935 9.75h-0.002z"></path>
<path fill="none" stroke="#1e88e5" style="stroke: var(--color1, #1e88e5)" stroke-linejoin="round" stroke-linecap="round" stroke-miterlimit="4" stroke-width="1.3333" d="M10.906 16.637c-0.869 2.55-1.128 5.085-0.859 7.277-0.541 0.433-0.848 1.132-0.75 1.869 0.15 1.121 1.179 1.908 2.299 1.76 1.121-0.15 1.908-1.179 1.76-2.299-0.098-0.741-0.582-1.337-1.223-1.612-0.408-2.552-0.148-5.57 0.887-8.608 0.816-2.396 2.008-4.487 3.396-6.134-2.27 1.516-4.328 4.277-5.511 7.747h0.001z"></path>
</symbol>
<symbol id="icon-digestive-problems" viewBox="0 0 32 32">
<path fill="none" stroke="#1e88e5" style="stroke: var(--color1, #1e88e5)" stroke-linejoin="round" stroke-linecap="round" stroke-miterlimit="4" stroke-width="1.3333" d="M23.198 25.001l-0-0-1.649-10.408c-0-0-0-0-0-0-0.121-0.765 0.408-1.492 1.173-1.613s1.493 0.407 1.614 1.172v0l1.649 10.408c0.121 0.765-0.407 1.493-1.172 1.613s-1.493-0.407-1.614-1.172z"></path>
<path fill="none" stroke="#1e88e5" style="stroke: var(--color1, #1e88e5)" stroke-linejoin="round" stroke-linecap="round" stroke-miterlimit="4" stroke-width="1.3333" d="M14.704 16.387l-0-0c-0.671-0.388-0.903-1.256-0.516-1.926l0-0 2.939-5.090c0.388-0.671 1.257-0.903 1.926-0.516l0 0c0.671 0.387 0.903 1.256 0.516 1.926l-0 0-2.939 5.090c-0.387 0.671-1.256 0.903-1.926 0.516z"></path>
<path fill="none" stroke="#1e88e5" style="stroke: var(--color1, #1e88e5)" stroke-linejoin="round" stroke-linecap="round" stroke-miterlimit="4" stroke-width="1.3333" d="M10.678 21.957h-0l-5.696-6.991c-0.489-0.601-0.398-1.496 0.202-1.985s1.496-0.398 1.985 0.202l0 0 5.696 6.99c0 0 0 0 0 0 0.489 0.601 0.398 1.496-0.202 1.985s-1.496 0.398-1.985-0.202z"></path>
<path fill="none" stroke="#1e88e5" style="stroke: var(--color1, #1e88e5)" stroke-linejoin="round" stroke-linecap="round" stroke-miterlimit="4" stroke-width="1.3333" d="M19.209 20.819c0.333 0.333 0.333 0.873 0 1.207s-0.873 0.333-1.207 0c-0.333-0.333-0.333-0.873 0-1.207s0.873-0.333 1.207 0z"></path>
<path fill="none" stroke="#1e88e5" style="stroke: var(--color1, #1e88e5)" stroke-linejoin="round" stroke-linecap="round" stroke-miterlimit="4" stroke-width="1.3333" d="M11.654 5.546c0.333 0.333 0.333 0.873 0 1.207s-0.873 0.333-1.207 0c-0.333-0.333-0.333-0.873 0-1.207s0.873-0.333 1.207 0z"></path>
<path fill="#1e88e5" style="fill: var(--color1, #1e88e5)" d="M12.813 10.056c0 0.422-0.342 0.764-0.764 0.764s-0.764-0.342-0.764-0.764c0-0.423 0.342-0.764 0.764-0.764s0.764 0.342 0.764 0.764z"></path>
<path fill="#1e88e5" style="fill: var(--color1, #1e88e5)" d="M16.096 22.918c0 0.422-0.342 0.764-0.764 0.764s-0.764-0.342-0.764-0.764c0-0.423 0.342-0.764 0.764-0.764s0.764 0.342 0.764 0.764z"></path>
<path fill="none" stroke="#1e88e5" style="stroke: var(--color1, #1e88e5)" stroke-linejoin="round" stroke-linecap="round" stroke-miterlimit="4" stroke-width="1.3333" d="M18.024 26.331c0.459 0.108 0.743 0.568 0.634 1.026s-0.568 0.743-1.026 0.634-0.743-0.568-0.634-1.026c0.108-0.459 0.568-0.743 1.026-0.634z"></path>
</symbol>
<symbol id="icon-eating-disorder" viewBox="0 0 32 32">
<path fill="none" stroke="#1e88e5" style="stroke: var(--color1, #1e88e5)" stroke-linejoin="miter" stroke-linecap="butt" stroke-miterlimit="10" stroke-width="1.3333" d="M15.011 9.954c0.908 0 1.644-0.736 1.644-1.644s-0.736-1.644-1.644-1.644c-0.908 0-1.644 0.736-1.644 1.644s0.736 1.644 1.644 1.644z"></path>
<path fill="none" stroke="#1e88e5" style="stroke: var(--color1, #1e88e5)" stroke-linejoin="miter" stroke-linecap="butt" stroke-miterlimit="10" stroke-width="1.3333" d="M17.806 24.561c0.527-0.74 0.354-1.766-0.386-2.292s-1.766-0.354-2.292 0.386c-0.527 0.74-0.354 1.766 0.386 2.292s1.766 0.354 2.292-0.386z"></path>
<path fill="none" stroke="#1e88e5" style="stroke: var(--color1, #1e88e5)" stroke-linejoin="miter" stroke-linecap="butt" stroke-miterlimit="10" stroke-width="1.3333" d="M18.417 18.24c1.284-1.284 1.284-3.365 0-4.649s-3.365-1.284-4.649 0c-1.284 1.284-1.284 3.365 0 4.649s3.365 1.284 4.649 0z"></path>
<path fill="none" stroke="#1e88e5" style="stroke: var(--color1, #1e88e5)" stroke-linejoin="miter" stroke-linecap="butt" stroke-miterlimit="10" stroke-width="1.3333" d="M16.647 8.264c0.025 0.859-0.62 1.601-1.487 1.683-0.815 0.077-1.545-0.456-1.743-1.224-3.173 1.18-5.298 4.381-4.967 7.908s3.016 6.277 6.354 6.844c0.052-0.792 0.67-1.451 1.484-1.527 0.868-0.081 1.64 0.527 1.775 1.376 3.553-0.945 6.018-4.35 5.661-8.129-0.355-3.779-3.411-6.665-7.078-6.931z"></path>
<path fill="none" stroke="#1e88e5" style="stroke: var(--color1, #1e88e5)" stroke-linejoin="miter" stroke-linecap="butt" stroke-miterlimit="10" stroke-width="1.3333" d="M6 12.007c0.368 0 0.667-0.298 0.667-0.667s-0.298-0.667-0.667-0.667c-0.368 0-0.667 0.298-0.667 0.667s0.298 0.667 0.667 0.667z"></path>
<path fill="none" stroke="#1e88e5" style="stroke: var(--color1, #1e88e5)" stroke-linejoin="miter" stroke-linecap="butt" stroke-miterlimit="10" stroke-width="1.3333" d="M27.333 17.34c0.368 0 0.667-0.299 0.667-0.667s-0.299-0.667-0.667-0.667-0.667 0.298-0.667 0.667c0 0.368 0.299 0.667 0.667 0.667z"></path>
</symbol>
<symbol id="icon-eye-problems" viewBox="0 0 32 32">
<path fill="none" stroke="#1e88e5" style="stroke: var(--color1, #1e88e5)" stroke-linejoin="miter" stroke-linecap="butt" stroke-miterlimit="4" stroke-width="1.3333" d="M20.667 16c0 2.577-2.089 4.667-4.667 4.667s-4.667-2.089-4.667-4.667c0-2.577 2.089-4.667 4.667-4.667s4.667 2.089 4.667 4.667z"></path>
<path fill="none" stroke="#1e88e5" style="stroke: var(--color1, #1e88e5)" stroke-linejoin="miter" stroke-linecap="butt" stroke-miterlimit="4" stroke-width="1.3333" d="M26.917 14.579c0.518 0.628 0.776 0.943 0.776 1.421s-0.259 0.793-0.776 1.421c-1.893 2.299-6.070 6.579-10.917 6.579s-9.024-4.28-10.917-6.579c-0.518-0.628-0.776-0.943-0.776-1.421s0.259-0.793 0.776-1.421c1.893-2.299 6.070-6.579 10.917-6.579s9.024 4.28 10.917 6.579z"></path>
</symbol>
<symbol id="icon-insects" viewBox="0 0 32 32">
<path fill="none" stroke="#1e88e5" style="stroke: var(--color1, #1e88e5)" stroke-linejoin="round" stroke-linecap="round" stroke-miterlimit="4" stroke-width="1.3333" d="M7.453 12.546v-4.24c4.824-0.107 7.433-2.166 8.274-2.973 0.841 0.807 3.45 2.866 8.274 2.973v7.13c0 3.871-1.735 7.546-4.643 9.831-1.136 0.893-2.357 1.545-3.632 1.939-1.275-0.394-2.496-1.046-3.632-1.939-0.336-0.264-0.657-0.547-0.96-0.846"></path>
<path fill="none" stroke="#1e88e5" style="stroke: var(--color1, #1e88e5)" stroke-linejoin="round" stroke-linecap="round" stroke-miterlimit="4" stroke-width="1.3333" d="M14.075 20.216l0.392 1.463"></path>
<path fill="none" stroke="#1e88e5" style="stroke: var(--color1, #1e88e5)" stroke-linejoin="round" stroke-linecap="round" stroke-miterlimit="4" stroke-width="1.3333" d="M16.487 19.568l0.392 1.463"></path>
<path fill="none" stroke="#1e88e5" style="stroke: var(--color1, #1e88e5)" stroke-linejoin="round" stroke-linecap="round" stroke-miterlimit="4" stroke-width="1.3333" d="M11.661 20.862l0.392 1.463"></path>
<path fill="none" stroke="#1e88e5" style="stroke: var(--color1, #1e88e5)" stroke-linejoin="round" stroke-linecap="round" stroke-miterlimit="4" stroke-width="1.3333" d="M11.979 12.958l0.392 1.463"></path>
<path fill="none" stroke="#1e88e5" style="stroke: var(--color1, #1e88e5)" stroke-linejoin="round" stroke-linecap="round" stroke-miterlimit="4" stroke-width="1.3333" d="M14.396 12.31l0.392 1.463"></path>
<path fill="none" stroke="#1e88e5" style="stroke: var(--color1, #1e88e5)" stroke-linejoin="round" stroke-linecap="round" stroke-miterlimit="4" stroke-width="1.3333" d="M9.56 13.604l0.392 1.463"></path>
<path fill="none" stroke="#1e88e5" style="stroke: var(--color1, #1e88e5)" stroke-linejoin="round" stroke-linecap="round" stroke-miterlimit="4" stroke-width="1.3333" d="M17.942 12.686l-0.757 1.312"></path>
<path fill="none" stroke="#1e88e5" style="stroke: var(--color1, #1e88e5)" stroke-linejoin="round" stroke-linecap="round" stroke-miterlimit="4" stroke-width="1.3333" d="M6.667 15.708l1.312 0.757"></path>
<path fill="none" stroke="#1e88e5" style="stroke: var(--color1, #1e88e5)" stroke-linejoin="round" stroke-linecap="round" stroke-miterlimit="4" stroke-width="1.3333" d="M8.357 22.002l0.757-1.312"></path>
<path fill="none" stroke="#1e88e5" style="stroke: var(--color1, #1e88e5)" stroke-linejoin="round" stroke-linecap="round" stroke-miterlimit="4" stroke-width="1.3333" d="M19.635 18.983l-1.312-0.757"></path>
<path fill="none" stroke="#1e88e5" style="stroke: var(--color1, #1e88e5)" stroke-linejoin="miter" stroke-linecap="butt" stroke-miterlimit="10" stroke-width="1.3333" d="M11.154 20.771l5.397-1.447c1.484-0.397 2.373-1.938 1.976-3.422s-1.937-2.373-3.422-1.976l-5.397 1.447c-1.484 0.397-2.373 1.938-1.976 3.422s1.938 2.373 3.422 1.976z"></path>
<path fill="#1e88e5" style="fill: var(--color1, #1e88e5)" d="M15.079 16.012c0.085-0.331-0.115-0.668-0.447-0.753s-0.668 0.115-0.753 0.446 0.115 0.668 0.446 0.753c0.331 0.085 0.669-0.115 0.753-0.446z"></path>
<path fill="#1e88e5" style="fill: var(--color1, #1e88e5)" d="M17.177 16.599c0 0.26-0.211 0.47-0.47 0.47s-0.47-0.211-0.47-0.47c0-0.259 0.211-0.47 0.47-0.47s0.47 0.211 0.47 0.47z"></path>
<path fill="#1e88e5" style="fill: var(--color1, #1e88e5)" d="M10.799 19.079c0 0.26-0.211 0.47-0.47 0.47s-0.47-0.211-0.47-0.47c0-0.259 0.211-0.47 0.47-0.47s0.47 0.211 0.47 0.47z"></path>
<path fill="#1e88e5" style="fill: var(--color1, #1e88e5)" d="M12.648 17.889c0 0.26-0.211 0.47-0.47 0.47s-0.47-0.211-0.47-0.47c0-0.259 0.211-0.47 0.47-0.47s0.47 0.211 0.47 0.47z"></path>
</symbol>
<symbol id="icon-skin-infection" viewBox="0 0 32 32">
<path fill="none" stroke="#1e88e5" style="stroke: var(--color1, #1e88e5)" stroke-linejoin="round" stroke-linecap="round" stroke-miterlimit="4" stroke-width="1.3333" d="M2.667 15.529c4.238-1.698 8.721-2.559 13.333-2.559s9.095 0.861 13.333 2.559"></path>
<path fill="none" stroke="#1e88e5" style="stroke: var(--color1, #1e88e5)" stroke-linejoin="round" stroke-linecap="round" stroke-miterlimit="4" stroke-width="1.3333" d="M8.173 17.446c0 0.22-0.199 0.459-0.523 0.459s-0.523-0.24-0.523-0.459c0-0.22 0.199-0.459 0.523-0.459s0.523 0.24 0.523 0.459z"></path>
<path fill="none" stroke="#1e88e5" style="stroke: var(--color1, #1e88e5)" stroke-linejoin="round" stroke-linecap="round" stroke-miterlimit="4" stroke-width="1.3333" d="M12.348 17.446c0 0.22-0.199 0.459-0.523 0.459s-0.523-0.24-0.523-0.459c0-0.22 0.199-0.459 0.523-0.459s0.523 0.24 0.523 0.459z"></path>
<path fill="none" stroke="#1e88e5" style="stroke: var(--color1, #1e88e5)" stroke-linejoin="round" stroke-linecap="round" stroke-miterlimit="4" stroke-width="1.3333" d="M16.522 17.446c0 0.22-0.199 0.459-0.523 0.459s-0.523-0.24-0.523-0.459c0-0.22 0.199-0.459 0.523-0.459s0.523 0.24 0.523 0.459z"></path>
<path fill="none" stroke="#1e88e5" style="stroke: var(--color1, #1e88e5)" stroke-linejoin="round" stroke-linecap="round" stroke-miterlimit="4" stroke-width="1.3333" d="M20.697 17.446c0 0.22-0.199 0.459-0.523 0.459s-0.523-0.24-0.523-0.459c0-0.22 0.199-0.459 0.523-0.459s0.523 0.24 0.523 0.459z"></path>
<path fill="none" stroke="#1e88e5" style="stroke: var(--color1, #1e88e5)" stroke-linejoin="round" stroke-linecap="round" stroke-miterlimit="4" stroke-width="1.3333" d="M24.871 17.446c0 0.22-0.199 0.459-0.523 0.459s-0.523-0.24-0.523-0.459c0-0.22 0.199-0.459 0.523-0.459s0.523 0.24 0.523 0.459z"></path>
<path fill="#1e88e5" style="fill: var(--color1, #1e88e5)" d="M9.736 21.964c0.657 0 1.189-0.504 1.189-1.126s-0.533-1.126-1.189-1.126-1.189 0.504-1.189 1.126c0 0.622 0.533 1.126 1.189 1.126z"></path>
<path fill="#1e88e5" style="fill: var(--color1, #1e88e5)" d="M13.911 21.964c0.657 0 1.189-0.504 1.189-1.126s-0.533-1.126-1.189-1.126-1.189 0.504-1.189 1.126c0 0.622 0.533 1.126 1.189 1.126z"></path>
<path fill="#1e88e5" style="fill: var(--color1, #1e88e5)" d="M18.085 21.964c0.657 0 1.189-0.504 1.189-1.126s-0.533-1.126-1.189-1.126c-0.657 0-1.189 0.504-1.189 1.126s0.533 1.126 1.189 1.126z"></path>
<path fill="#1e88e5" style="fill: var(--color1, #1e88e5)" d="M22.26 21.964c0.657 0 1.189-0.504 1.189-1.126s-0.533-1.126-1.189-1.126-1.189 0.504-1.189 1.126c0 0.622 0.533 1.126 1.189 1.126z"></path>
<path fill="none" stroke="#1e88e5" style="stroke: var(--color1, #1e88e5)" stroke-linejoin="round" stroke-linecap="round" stroke-miterlimit="4" stroke-width="1.3333" d="M2.667 13.226c4.238-1.698 8.721-2.559 13.333-2.559s9.095 0.861 13.333 2.559"></path>
</symbol>
<symbol id="icon-allproblems" viewBox="0 0 32 32">
<path fill="none" stroke="#1e88e5" style="stroke: var(--color1, #1e88e5)" stroke-linejoin="miter" stroke-linecap="butt" stroke-miterlimit="4" stroke-width="1.3333" d="M27.333 14c0 1.473-1.194 2.667-2.667 2.667s-2.667-1.194-2.667-2.667c0-1.473 1.194-2.667 2.667-2.667s2.667 1.194 2.667 2.667z"></path>
<path fill="#1e88e5" style="fill: var(--color1, #1e88e5)" d="M25.333 14c0 0.368-0.298 0.667-0.667 0.667s-0.667-0.298-0.667-0.667c0-0.368 0.298-0.667 0.667-0.667s0.667 0.298 0.667 0.667z"></path>
<path fill="#1e88e5" style="fill: var(--color1, #1e88e5)" d="M13.333 18c0 1.105-0.895 2-2 2s-2-0.895-2-2c0-1.105 0.895-2 2-2s2 0.895 2 2z"></path>
<path fill="none" stroke="#1e88e5" style="stroke: var(--color1, #1e88e5)" stroke-linejoin="miter" stroke-linecap="round" stroke-miterlimit="4" stroke-width="1.3333" d="M11.333 18c4.791 0 6.354-6.457 6.623-10.669 0.047-0.735-0.553-1.331-1.289-1.331h-1.333"></path>
<path fill="none" stroke="#1e88e5" style="stroke: var(--color1, #1e88e5)" stroke-linejoin="miter" stroke-linecap="round" stroke-miterlimit="4" stroke-width="1.3333" d="M11.333 18c-4.791 0-6.354-6.457-6.623-10.669-0.047-0.735 0.553-1.331 1.289-1.331h1.333"></path>
<path fill="none" stroke="#1e88e5" style="stroke: var(--color1, #1e88e5)" stroke-linejoin="miter" stroke-linecap="round" stroke-miterlimit="4" stroke-width="1.3333" d="M24.667 16.667v2.667c0 3.682-2.985 6.667-6.667 6.667v0c-3.682 0-6.667-2.985-6.667-6.667v-1.333"></path>
</symbol>
<symbol id="icon-other" viewBox="0 0 32 32">
<path fill="none" stroke="#1e88e5" style="stroke: var(--color1, #1e88e5)" stroke-linejoin="round" stroke-linecap="round" stroke-miterlimit="4" stroke-width="1.3333" d="M21.057 27.853l-2.787-2.787 4.278-9.463 2.787 2.787-4.278 9.463z"></path>
<path fill="none" stroke="#1e88e5" style="stroke: var(--color1, #1e88e5)" stroke-linejoin="round" stroke-linecap="round" stroke-miterlimit="4" stroke-width="1.3333" d="M15.256 22.052l-2.788-2.787 4.278-9.464 2.787 2.787-4.278 9.463z"></path>
<path fill="none" stroke="#1e88e5" style="stroke: var(--color1, #1e88e5)" stroke-linejoin="round" stroke-linecap="round" stroke-miterlimit="4" stroke-width="1.3333" d="M9.453 16.251l-2.787-2.788 4.278-9.463 2.787 2.788-4.278 9.464z"></path>
<path fill="none" stroke="#1e88e5" style="stroke: var(--color1, #1e88e5)" stroke-linejoin="round" stroke-linecap="round" stroke-miterlimit="4" stroke-width="1.3333" d="M9.453 16.251l5.186-2.074"></path>
<path fill="none" stroke="#1e88e5" style="stroke: var(--color1, #1e88e5)" stroke-linejoin="round" stroke-linecap="round" stroke-miterlimit="4" stroke-width="1.3333" d="M11.526 11.843l5.185-2.074"></path>
<path fill="none" stroke="#1e88e5" style="stroke: var(--color1, #1e88e5)" stroke-linejoin="round" stroke-linecap="round" stroke-miterlimit="4" stroke-width="1.3333" d="M15.286 22.087l5.186-2.074"></path>
<path fill="none" stroke="#1e88e5" style="stroke: var(--color1, #1e88e5)" stroke-linejoin="round" stroke-linecap="round" stroke-miterlimit="4" stroke-width="1.3333" d="M17.359 17.679l5.185-2.074"></path>
</symbol>
</defs>
</svg>
