<svg aria-hidden="true" style="position: absolute; width: 0; height: 0; overflow: hidden;" version="1.1" xmlns="http://www.w3.org/2000/svg" xmlns:xlink="http://www.w3.org/1999/xlink">
<defs>
<symbol id="icon-insects" viewBox="0 0 32 32">
<path fill="#80bcf0" style="fill: var(--color1, #80bcf0)" d="M16 0c8.837 0 16 7.163 16 16s-7.163 16-16 16c-8.837 0-16-7.163-16-16s7.163-16 16-16z"></path>
<path fill="none" stroke="#fff" style="stroke: var(--color2, #fff)" stroke-linejoin="round" stroke-linecap="round" stroke-miterlimit="4" stroke-width="1" d="M9.59 13.409v-3.18c3.618-0.080 5.575-1.625 6.206-2.229 0.631 0.605 2.588 2.149 6.206 2.229v5.348c0 2.903-1.302 5.659-3.482 7.373-0.852 0.67-1.768 1.159-2.724 1.454-0.956-0.296-1.872-0.785-2.724-1.454-0.252-0.198-0.492-0.41-0.72-0.635"></path>
<path fill="none" stroke="#fff" style="stroke: var(--color2, #fff)" stroke-linejoin="round" stroke-linecap="round" stroke-miterlimit="4" stroke-width="1" d="M14.557 19.162l0.294 1.097"></path>
<path fill="none" stroke="#fff" style="stroke: var(--color2, #fff)" stroke-linejoin="round" stroke-linecap="round" stroke-miterlimit="4" stroke-width="1" d="M16.365 18.675l0.294 1.097"></path>
<path fill="none" stroke="#fff" style="stroke: var(--color2, #fff)" stroke-linejoin="round" stroke-linecap="round" stroke-miterlimit="4" stroke-width="1" d="M12.746 19.646l0.294 1.097"></path>
<path fill="none" stroke="#fff" style="stroke: var(--color2, #fff)" stroke-linejoin="round" stroke-linecap="round" stroke-miterlimit="4" stroke-width="1" d="M12.984 13.719l0.294 1.097"></path>
<path fill="none" stroke="#fff" style="stroke: var(--color2, #fff)" stroke-linejoin="round" stroke-linecap="round" stroke-miterlimit="4" stroke-width="1" d="M14.797 13.232l0.294 1.097"></path>
<path fill="none" stroke="#fff" style="stroke: var(--color2, #fff)" stroke-linejoin="round" stroke-linecap="round" stroke-miterlimit="4" stroke-width="1" d="M11.17 14.203l0.294 1.097"></path>
<path fill="none" stroke="#fff" style="stroke: var(--color2, #fff)" stroke-linejoin="round" stroke-linecap="round" stroke-miterlimit="4" stroke-width="1" d="M17.457 13.515l-0.568 0.984"></path>
<path fill="none" stroke="#fff" style="stroke: var(--color2, #fff)" stroke-linejoin="round" stroke-linecap="round" stroke-miterlimit="4" stroke-width="1" d="M9 15.781l0.984 0.568"></path>
<path fill="none" stroke="#fff" style="stroke: var(--color2, #fff)" stroke-linejoin="round" stroke-linecap="round" stroke-miterlimit="4" stroke-width="1" d="M10.268 20.502l0.568-0.984"></path>
<path fill="none" stroke="#fff" style="stroke: var(--color2, #fff)" stroke-linejoin="round" stroke-linecap="round" stroke-miterlimit="4" stroke-width="1" d="M18.726 18.237l-0.984-0.568"></path>
<path fill="none" stroke="#fff" style="stroke: var(--color2, #fff)" stroke-linejoin="miter" stroke-linecap="butt" stroke-miterlimit="10" stroke-width="1" d="M12.366 19.578l4.048-1.085c1.113-0.298 1.78-1.453 1.482-2.566s-1.453-1.78-2.566-1.482l-4.048 1.085c-1.113 0.298-1.78 1.453-1.482 2.566s1.453 1.78 2.566 1.482z"></path>
<path fill="#fff" style="fill: var(--color2, #fff)" d="M15.31 16.009c0.063-0.248-0.086-0.501-0.335-0.565s-0.501 0.086-0.565 0.335 0.086 0.501 0.335 0.565c0.248 0.064 0.501-0.086 0.565-0.335z"></path>
<path fill="#fff" style="fill: var(--color2, #fff)" d="M16.883 16.449c0 0.195-0.158 0.352-0.352 0.352s-0.352-0.158-0.352-0.352c0-0.194 0.158-0.352 0.352-0.352s0.352 0.158 0.352 0.352z"></path>
<path fill="#fff" style="fill: var(--color2, #fff)" d="M12.1 18.309c0 0.195-0.158 0.352-0.352 0.352s-0.352-0.158-0.352-0.352c0-0.194 0.158-0.352 0.352-0.352s0.352 0.158 0.352 0.352z"></path>
<path fill="#fff" style="fill: var(--color2, #fff)" d="M13.486 17.417c0 0.195-0.158 0.352-0.352 0.352s-0.352-0.158-0.352-0.352c0-0.194 0.158-0.352 0.352-0.352s0.352 0.158 0.352 0.352z"></path>
</symbol>
<symbol id="icon-skin-infection" viewBox="0 0 32 32">
<path fill="#80bcf0" style="fill: var(--color1, #80bcf0)" d="M16 0c8.837 0 16 7.163 16 16s-7.163 16-16 16c-8.837 0-16-7.163-16-16s7.163-16 16-16z"></path>
<path fill="none" stroke="#fff" style="stroke: var(--color2, #fff)" stroke-linejoin="round" stroke-linecap="round" stroke-miterlimit="4" stroke-width="1" d="M6 15.647c3.179-1.274 6.54-1.919 10-1.919s6.821 0.646 10 1.919"></path>
<path fill="none" stroke="#fff" style="stroke: var(--color2, #fff)" stroke-linejoin="round" stroke-linecap="round" stroke-miterlimit="4" stroke-width="1" d="M10.13 17.085c0 0.165-0.149 0.345-0.392 0.345s-0.392-0.18-0.392-0.345c0-0.165 0.149-0.345 0.392-0.345s0.392 0.18 0.392 0.345z"></path>
<path fill="none" stroke="#fff" style="stroke: var(--color2, #fff)" stroke-linejoin="round" stroke-linecap="round" stroke-miterlimit="4" stroke-width="1" d="M13.261 17.085c0 0.165-0.149 0.345-0.392 0.345s-0.392-0.18-0.392-0.345c0-0.165 0.149-0.345 0.392-0.345s0.392 0.18 0.392 0.345z"></path>
<path fill="none" stroke="#fff" style="stroke: var(--color2, #fff)" stroke-linejoin="round" stroke-linecap="round" stroke-miterlimit="4" stroke-width="1" d="M16.392 17.085c0 0.165-0.149 0.345-0.392 0.345s-0.392-0.18-0.392-0.345c0-0.165 0.149-0.345 0.392-0.345s0.392 0.18 0.392 0.345z"></path>
<path fill="none" stroke="#fff" style="stroke: var(--color2, #fff)" stroke-linejoin="round" stroke-linecap="round" stroke-miterlimit="4" stroke-width="1" d="M19.522 17.085c0 0.165-0.149 0.345-0.392 0.345s-0.392-0.18-0.392-0.345c0-0.165 0.149-0.345 0.392-0.345s0.392 0.18 0.392 0.345z"></path>
<path fill="none" stroke="#fff" style="stroke: var(--color2, #fff)" stroke-linejoin="round" stroke-linecap="round" stroke-miterlimit="4" stroke-width="1" d="M22.653 17.085c0 0.165-0.149 0.345-0.392 0.345s-0.392-0.18-0.392-0.345c0-0.165 0.149-0.345 0.392-0.345s0.392 0.18 0.392 0.345z"></path>
<path fill="#fff" style="fill: var(--color2, #fff)" d="M11.302 20.473c0.493 0 0.892-0.378 0.892-0.845s-0.399-0.845-0.892-0.845c-0.493 0-0.892 0.378-0.892 0.845s0.399 0.845 0.892 0.845z"></path>
<path fill="#fff" style="fill: var(--color2, #fff)" d="M14.433 20.473c0.493 0 0.892-0.378 0.892-0.845s-0.399-0.845-0.892-0.845-0.892 0.378-0.892 0.845c0 0.466 0.399 0.845 0.892 0.845z"></path>
<path fill="#fff" style="fill: var(--color2, #fff)" d="M17.564 20.473c0.493 0 0.892-0.378 0.892-0.845s-0.399-0.845-0.892-0.845c-0.493 0-0.892 0.378-0.892 0.845s0.399 0.845 0.892 0.845z"></path>
<path fill="#fff" style="fill: var(--color2, #fff)" d="M20.695 20.473c0.493 0 0.892-0.378 0.892-0.845s-0.399-0.845-0.892-0.845-0.892 0.378-0.892 0.845c0 0.466 0.399 0.845 0.892 0.845z"></path>
<path fill="none" stroke="#fff" style="stroke: var(--color2, #fff)" stroke-linejoin="round" stroke-linecap="round" stroke-miterlimit="4" stroke-width="1" d="M6 13.919c3.179-1.274 6.54-1.919 10-1.919s6.821 0.646 10 1.919"></path>
</symbol>
<symbol id="icon-eye-problems" viewBox="0 0 32 32">
<path fill="#80bcf0" style="fill: var(--color1, #80bcf0)" d="M16 0c8.837 0 16 7.163 16 16s-7.163 16-16 16c-8.837 0-16-7.163-16-16s7.163-16 16-16z"></path>
<path fill="none" stroke="#fff" style="stroke: var(--color2, #fff)" stroke-linejoin="miter" stroke-linecap="butt" stroke-miterlimit="4" stroke-width="1" d="M19.5 16c0 1.933-1.567 3.5-3.5 3.5s-3.5-1.567-3.5-3.5c0-1.933 1.567-3.5 3.5-3.5s3.5 1.567 3.5 3.5z"></path>
<path fill="none" stroke="#fff" style="stroke: var(--color2, #fff)" stroke-linejoin="miter" stroke-linecap="butt" stroke-miterlimit="4" stroke-width="1" d="M24.188 14.934c0.388 0.471 0.582 0.707 0.582 1.066s-0.194 0.594-0.582 1.066c-1.42 1.724-4.552 4.934-8.188 4.934s-6.768-3.21-8.188-4.934c-0.388-0.471-0.582-0.707-0.582-1.066s0.194-0.594 0.582-1.066c1.42-1.724 4.552-4.934 8.188-4.934s6.768 3.21 8.188 4.934z"></path>
</symbol>
<symbol id="icon-bones" viewBox="0 0 32 32">
<path fill="#80bcf0" style="fill: var(--color1, #80bcf0)" d="M16 0c8.837 0 16 7.163 16 16s-7.163 16-16 16c-8.837 0-16-7.163-16-16s7.163-16 16-16z"></path>
<path fill="none" stroke="#fff" style="stroke: var(--color2, #fff)" stroke-linejoin="round" stroke-linecap="round" stroke-miterlimit="4" stroke-width="1" d="M12.972 16.611c-0.464-0.284-1.016-0.372-1.542-0.248-0.2-0.518-0.585-0.936-1.076-1.169-0.984-0.457-2.143-0.079-2.694 0.88-0.408 0.716-0.383 1.61 0.063 2.301 0.308 0.464 0.348 1.066 0.105 1.57l-1.828 3.538 2.805 1.518 1.829-3.538c0.262-0.494 0.763-0.803 1.309-0.805 0.804-0.015 1.529-0.503 1.865-1.257 0.448-1.014 0.090-2.214-0.834-2.789h-0.002z"></path>
<path fill="none" stroke="#fff" style="stroke: var(--color2, #fff)" stroke-linejoin="round" stroke-linecap="round" stroke-miterlimit="4" stroke-width="1" d="M16.021 11.449c0.083 0.542 0.378 1.034 0.825 1.372-0.277 0.478-0.353 1.041-0.213 1.573 0.29 1.060 1.356 1.742 2.48 1.584 0.837-0.121 1.528-0.693 1.78-1.473 0.163-0.531 0.613-0.935 1.173-1.054l4.935-1.107-0.315-1.518-0.339-1.636-4.935 1.107c-0.565 0.099-1.141-0.106-1.503-0.536-0.544-0.626-1.41-0.896-2.23-0.696-1.099 0.273-1.812 1.299-1.656 2.384l-0.001-0.001z"></path>
</symbol>
<symbol id="icon-care" viewBox="0 0 32 32">
<path fill="#80bcf0" style="fill: var(--color1, #80bcf0)" d="M16 0c8.837 0 16 7.163 16 16s-7.163 16-16 16c-8.837 0-16-7.163-16-16s7.163-16 16-16z"></path>
<path fill="#fff" style="fill: var(--color2, #fff); stroke: var(--color2, #fff)" stroke="#fff" stroke-linejoin="miter" stroke-linecap="butt" stroke-miterlimit="4" stroke-width="1" d="M8.785 12.322c-0.038 0.014-0.068 0.004-0.089-0.030s-0.017-0.066 0.012-0.094l0.023-0.022 0.028 0.076 0 0.001 0.025 0.069zM8.785 12.322l0.028-0.011 0.001-0.001 0.361-0.134c-0.011-0.064-0.035-0.115-0.056-0.148-0.021-0.034-0.057-0.079-0.109-0.117l-0.279 0.264 0.028 0.078 0.001 0.001 0.024 0.067zM10.014 11.47c-0.104 0.2-0.238 0.387-0.4 0.555 0.579-0.144 1.192-0.002 1.648 0.384-0.071-0.222-0.109-0.448-0.113-0.674M10.014 11.47c0.394-0.008 0.785 0.083 1.135 0.264M10.014 11.47c0.182-0.35 0.273-0.741 0.264-1.135M10.014 11.47l0.264-1.135M11.149 11.735c0.2 0.104 0.387 0.238 0.555 0.4-0.144-0.579-0.002-1.192 0.384-1.648-0.221 0.071-0.448 0.108-0.674 0.113M11.149 11.735c-0.008-0.394 0.083-0.785 0.264-1.135M11.414 10.6c-0.394 0.008-0.785-0.083-1.135-0.264M11.414 10.6l-1.135-0.264M9.34 11.89l-0.081-0.217c0.028-0.029 0.055-0.059 0.081-0.090l-0.001 0.307z"></path>
<path fill="#fff" style="fill: var(--color2, #fff); stroke: var(--color2, #fff)" stroke="#fff" stroke-linejoin="miter" stroke-linecap="butt" stroke-miterlimit="4" stroke-width="1" d="M23.997 18.689c0.008-0.027-0.001-0.047-0.026-0.061l-0.018-0.010-0.001-0-0.372-0.199c-0.032 0.046-0.050 0.090-0.061 0.123l0.478 0.147zM23.997 18.689c-0.008 0.027-0.026 0.039-0.054 0.037l-0.021-0.002-0.001-0-0.421-0.038c-0.002-0.053 0.006-0.099 0.016-0.132l0.481 0.136zM22.501 17.926c0.152-0.108 0.289-0.24 0.402-0.393 0.051 0.246 0.173 0.471 0.351 0.648-0.191 0.012-0.375 0.053-0.549 0.122M22.501 17.926c-0.069-0.174-0.11-0.359-0.122-0.549-0.177 0.177-0.403 0.299-0.648 0.351 0.153 0.114 0.285 0.25 0.393 0.402M22.501 17.926c0.053 0.133 0.121 0.26 0.204 0.377M22.501 17.926c-0.117 0.083-0.244 0.151-0.377 0.204M22.123 18.13c-0.174 0.068-0.359 0.11-0.549 0.122 0.177 0.177 0.299 0.403 0.351 0.648 0.114-0.153 0.25-0.285 0.402-0.393M22.123 18.13c0.083 0.117 0.151 0.244 0.204 0.377M22.327 18.507c0.069 0.174 0.11 0.359 0.122 0.549 0.177-0.177 0.403-0.299 0.648-0.351-0.153-0.114-0.285-0.25-0.393-0.402M22.327 18.507c0.117-0.083 0.244-0.151 0.377-0.204M21.941 19.8c0.027 0.008 0.047-0.001 0.061-0.026l0.010-0.018 0-0.001 0.199-0.372c-0.046-0.032-0.090-0.050-0.123-0.061l-0.147 0.478zM21.941 19.8c-0.027-0.008-0.039-0.026-0.037-0.054l0.002-0.021v-0.001l0.038-0.421c0.053-0.002 0.099 0.006 0.132 0.016l-0.122 0.431-0 0-0.014 0.049zM20.831 17.744l0.049 0.015 0 0 0.428 0.132c-0.010 0.033-0.029 0.077-0.061 0.123l-0.392-0.209c-0.025-0.013-0.033-0.034-0.026-0.061zM20.831 17.744l0.481 0.136c0.009-0.033 0.017-0.079 0.016-0.132l-0.443-0.040c-0.028-0.003-0.046 0.010-0.054 0.037zM22.816 16.677l0.010-0.018c0.013-0.025 0.034-0.033 0.061-0.025s0.039 0.026 0.037 0.054l-0.002 0.021v0.001l-0.038 0.421c-0.053 0.002-0.099-0.006-0.132-0.016-0.038-0.011-0.086-0.030-0.134-0.064l0.199-0.373z"></path>
<path fill="none" stroke="#fff" style="stroke: var(--color2, #fff)" stroke-linejoin="round" stroke-linecap="round" stroke-miterlimit="4" stroke-width="1" d="M19.914 23.171h2.754"></path>
<path fill="none" stroke="#fff" style="stroke: var(--color2, #fff)" stroke-linejoin="round" stroke-linecap="round" stroke-miterlimit="4" stroke-width="1" d="M8 23.171h2.754"></path>
<path fill="none" stroke="#fff" style="stroke: var(--color2, #fff)" stroke-linejoin="round" stroke-linecap="round" stroke-miterlimit="4" stroke-width="1" d="M14.082 23.171h1.921"></path>
<path fill="none" stroke="#fff" style="stroke: var(--color2, #fff)" stroke-linejoin="round" stroke-linecap="round" stroke-miterlimit="4" stroke-width="1" d="M17.535 14.312c-0.82 2.407-1.064 4.799-0.81 6.867-0.51 0.41-0.801 1.068-0.708 1.764 0.141 1.058 1.113 1.801 2.171 1.661s1.801-1.113 1.661-2.171c-0.093-0.7-0.549-1.261-1.154-1.521-0.384-2.408-0.14-5.257 0.837-8.124 0.77-2.261 1.895-4.235 3.206-5.789-2.143 1.431-4.085 4.037-5.201 7.312h-0.001z"></path>
<path fill="none" stroke="#fff" style="stroke: var(--color2, #fff)" stroke-linejoin="round" stroke-linecap="round" stroke-miterlimit="4" stroke-width="1" d="M12.18 16.478c-0.652 1.913-0.846 3.813-0.644 5.457-0.405 0.325-0.636 0.849-0.563 1.402 0.112 0.841 0.884 1.431 1.725 1.32s1.431-0.884 1.32-1.725c-0.074-0.556-0.437-1.002-0.917-1.209-0.306-1.914-0.111-4.178 0.665-6.456 0.612-1.797 1.506-3.365 2.547-4.6-1.703 1.137-3.246 3.207-4.133 5.811h0.001z"></path>
</symbol>
<symbol id="icon-allergy" viewBox="0 0 32 32">
<path fill="#80bcf0" style="fill: var(--color1, #80bcf0)" d="M16 0c8.837 0 16 7.163 16 16s-7.163 16-16 16c-8.837 0-16-7.163-16-16s7.163-16 16-16z"></path>
<path fill="none" stroke="#fff" style="stroke: var(--color2, #fff)" stroke-linejoin="miter" stroke-linecap="butt" stroke-miterlimit="10" stroke-width="1" d="M16.584 19.156c1.727 0 3.126-1.4 3.126-3.126s-1.4-3.127-3.126-3.127-3.127 1.4-3.127 3.127c0 1.727 1.4 3.126 3.127 3.126z"></path>
<path fill="none" stroke="#fff" style="stroke: var(--color2, #fff)" stroke-linejoin="miter" stroke-linecap="butt" stroke-miterlimit="10" stroke-width="1" d="M11.739 10.329c0.643 0 1.165-0.521 1.165-1.165s-0.521-1.165-1.165-1.165c-0.643 0-1.165 0.521-1.165 1.165s0.521 1.165 1.165 1.165z"></path>
<path fill="none" stroke="#fff" style="stroke: var(--color2, #fff)" stroke-linejoin="miter" stroke-linecap="butt" stroke-miterlimit="10" stroke-width="1" d="M9.165 18.728c0.643 0 1.165-0.521 1.165-1.165s-0.521-1.165-1.165-1.165c-0.643 0-1.165 0.521-1.165 1.165s0.521 1.165 1.165 1.165z"></path>
<path fill="none" stroke="#fff" style="stroke: var(--color2, #fff)" stroke-linejoin="miter" stroke-linecap="butt" stroke-miterlimit="10" stroke-width="1" d="M16.583 24.858c0.643 0 1.165-0.521 1.165-1.165s-0.521-1.165-1.165-1.165-1.165 0.521-1.165 1.165c0 0.643 0.521 1.165 1.165 1.165z"></path>
<path fill="none" stroke="#fff" style="stroke: var(--color2, #fff)" stroke-linejoin="miter" stroke-linecap="butt" stroke-miterlimit="10" stroke-width="1" d="M22.835 18.728c0.643 0 1.165-0.521 1.165-1.165s-0.521-1.165-1.165-1.165c-0.643 0-1.165 0.521-1.165 1.165s0.521 1.165 1.165 1.165z"></path>
<path fill="none" stroke="#fff" style="stroke: var(--color2, #fff)" stroke-linejoin="miter" stroke-linecap="butt" stroke-miterlimit="10" stroke-width="1" d="M18.85 11.31c0.643 0 1.165-0.521 1.165-1.165s-0.521-1.165-1.165-1.165-1.165 0.521-1.165 1.165c0 0.643 0.521 1.165 1.165 1.165z"></path>
<path fill="none" stroke="#fff" style="stroke: var(--color2, #fff)" stroke-linejoin="round" stroke-linecap="round" stroke-miterlimit="4" stroke-width="1" d="M12.414 10.145l2.452 3.249"></path>
<path fill="none" stroke="#fff" style="stroke: var(--color2, #fff)" stroke-linejoin="round" stroke-linecap="round" stroke-miterlimit="4" stroke-width="1" d="M10.391 17.38l3.004-0.736"></path>
<path fill="none" stroke="#fff" style="stroke: var(--color2, #fff)" stroke-linejoin="round" stroke-linecap="round" stroke-miterlimit="4" stroke-width="1" d="M16.582 22.406v-3.249"></path>
<path fill="none" stroke="#fff" style="stroke: var(--color2, #fff)" stroke-linejoin="round" stroke-linecap="round" stroke-miterlimit="4" stroke-width="1" d="M21.548 17.196l-1.839-0.429"></path>
<path fill="none" stroke="#fff" style="stroke: var(--color2, #fff)" stroke-linejoin="round" stroke-linecap="round" stroke-miterlimit="4" stroke-width="1" d="M18.422 11.371l-0.613 1.594"></path>
</symbol>
<symbol id="icon-digestive-problems" viewBox="0 0 32 32">
<path fill="#80bcf0" style="fill: var(--color1, #80bcf0)" d="M16 0c8.837 0 16 7.163 16 16s-7.163 16-16 16c-8.837 0-16-7.163-16-16s7.163-16 16-16z"></path>
<path fill="none" stroke="#fff" style="stroke: var(--color2, #fff)" stroke-linejoin="round" stroke-linecap="round" stroke-miterlimit="4" stroke-width="1" d="M21.398 22.751l-0-0-1.237-7.806c-0-0-0-0-0-0-0.091-0.574 0.306-1.119 0.879-1.21s1.119 0.306 1.21 0.879v0l1.237 7.806c0.091 0.574-0.306 1.119-0.879 1.21s-1.119-0.305-1.21-0.879z"></path>
<path fill="none" stroke="#fff" style="stroke: var(--color2, #fff)" stroke-linejoin="round" stroke-linecap="round" stroke-miterlimit="4" stroke-width="1" d="M15.028 16.29l-0-0c-0.503-0.291-0.678-0.942-0.387-1.445l0-0 2.204-3.817c0.291-0.503 0.942-0.678 1.445-0.387l0 0c0.503 0.291 0.677 0.942 0.387 1.445l-0 0-2.204 3.817c-0.291 0.503-0.942 0.677-1.445 0.387z"></path>
<path fill="none" stroke="#fff" style="stroke: var(--color2, #fff)" stroke-linejoin="round" stroke-linecap="round" stroke-miterlimit="4" stroke-width="1" d="M12.008 20.468v0l-4.272-5.243c-0.367-0.451-0.299-1.122 0.152-1.489s1.122-0.299 1.489 0.152l0 0 4.272 5.243c0 0 0 0 0 0 0.367 0.451 0.298 1.122-0.152 1.488s-1.122 0.299-1.489-0.152z"></path>
<path fill="none" stroke="#fff" style="stroke: var(--color2, #fff)" stroke-linejoin="round" stroke-linecap="round" stroke-miterlimit="4" stroke-width="1" d="M18.406 19.614c0.25 0.25 0.25 0.655 0 0.905s-0.655 0.25-0.905 0c-0.25-0.25-0.25-0.655 0-0.905s0.655-0.25 0.905 0z"></path>
<path fill="none" stroke="#fff" style="stroke: var(--color2, #fff)" stroke-linejoin="round" stroke-linecap="round" stroke-miterlimit="4" stroke-width="1" d="M12.74 8.16c0.25 0.25 0.25 0.655 0 0.905s-0.655 0.25-0.905 0c-0.25-0.25-0.25-0.655 0-0.905s0.655-0.25 0.905 0z"></path>
<path fill="#fff" style="fill: var(--color2, #fff)" d="M13.609 11.542c0 0.316-0.256 0.573-0.573 0.573s-0.573-0.256-0.573-0.573 0.256-0.573 0.573-0.573c0.317 0 0.573 0.256 0.573 0.573z"></path>
<path fill="#fff" style="fill: var(--color2, #fff)" d="M16.072 21.189c0 0.316-0.256 0.573-0.573 0.573s-0.573-0.256-0.573-0.573c0-0.317 0.256-0.573 0.573-0.573s0.573 0.256 0.573 0.573z"></path>
<path fill="none" stroke="#fff" style="stroke: var(--color2, #fff)" stroke-linejoin="round" stroke-linecap="round" stroke-miterlimit="4" stroke-width="1" d="M17.518 23.748c0.344 0.081 0.557 0.426 0.476 0.77s-0.426 0.557-0.77 0.476-0.557-0.426-0.476-0.77c0.081-0.344 0.426-0.557 0.77-0.476z"></path>
</symbol>
<symbol id="icon-eating-disorder" viewBox="0 0 32 32">
<path fill="#80bcf0" style="fill: var(--color1, #80bcf0)" d="M16 0c8.837 0 16 7.163 16 16s-7.163 16-16 16c-8.837 0-16-7.163-16-16s7.163-16 16-16z"></path>
<path fill="none" stroke="#fff" style="stroke: var(--color2, #fff)" stroke-linejoin="miter" stroke-linecap="butt" stroke-miterlimit="10" stroke-width="1" d="M15.258 11.466c0.681 0 1.233-0.552 1.233-1.233s-0.552-1.233-1.233-1.233-1.233 0.552-1.233 1.233c0 0.681 0.552 1.233 1.233 1.233z"></path>
<path fill="none" stroke="#fff" style="stroke: var(--color2, #fff)" stroke-linejoin="miter" stroke-linecap="butt" stroke-miterlimit="10" stroke-width="1" d="M17.354 22.421c0.395-0.555 0.265-1.324-0.289-1.719s-1.324-0.265-1.719 0.289c-0.395 0.555-0.265 1.324 0.289 1.719s1.324 0.265 1.719-0.289z"></path>
<path fill="none" stroke="#fff" style="stroke: var(--color2, #fff)" stroke-linejoin="miter" stroke-linecap="butt" stroke-miterlimit="10" stroke-width="1" d="M17.812 17.68c0.963-0.963 0.963-2.524 0-3.487s-2.524-0.963-3.487 0c-0.963 0.963-0.963 2.524 0 3.487s2.524 0.963 3.487 0z"></path>
<path fill="none" stroke="#fff" style="stroke: var(--color2, #fff)" stroke-linejoin="miter" stroke-linecap="butt" stroke-miterlimit="10" stroke-width="1" d="M16.486 10.198c0.019 0.645-0.465 1.201-1.116 1.262-0.611 0.058-1.159-0.342-1.307-0.918-2.38 0.885-3.973 3.286-3.725 5.931s2.262 4.708 4.766 5.133c0.039-0.594 0.502-1.088 1.113-1.145 0.651-0.061 1.23 0.395 1.331 1.032 2.665-0.709 4.513-3.262 4.246-6.097s-2.559-4.998-5.309-5.198z"></path>
<path fill="none" stroke="#fff" style="stroke: var(--color2, #fff)" stroke-linejoin="miter" stroke-linecap="butt" stroke-miterlimit="10" stroke-width="1" d="M8.5 13.005c0.276 0 0.5-0.224 0.5-0.5s-0.224-0.5-0.5-0.5-0.5 0.224-0.5 0.5c0 0.276 0.224 0.5 0.5 0.5z"></path>
<path fill="none" stroke="#fff" style="stroke: var(--color2, #fff)" stroke-linejoin="miter" stroke-linecap="butt" stroke-miterlimit="10" stroke-width="1" d="M24.5 17.005c0.276 0 0.5-0.224 0.5-0.5s-0.224-0.5-0.5-0.5-0.5 0.224-0.5 0.5c0 0.276 0.224 0.5 0.5 0.5z"></path>
</symbol>
<symbol id="icon-allproblems" viewBox="0 0 32 32">
<path fill="none" stroke="#1e88e5" style="stroke: var(--color1, #1e88e5)" stroke-linejoin="miter" stroke-linecap="butt" stroke-miterlimit="4" stroke-width="1.3333" d="M27.333 14c0 1.473-1.194 2.667-2.667 2.667s-2.667-1.194-2.667-2.667c0-1.473 1.194-2.667 2.667-2.667s2.667 1.194 2.667 2.667z"></path>
<path fill="#1e88e5" style="fill: var(--color1, #1e88e5)" d="M25.333 14c0 0.368-0.298 0.667-0.667 0.667s-0.667-0.298-0.667-0.667c0-0.368 0.298-0.667 0.667-0.667s0.667 0.298 0.667 0.667z"></path>
<path fill="#1e88e5" style="fill: var(--color1, #1e88e5)" d="M13.333 18c0 1.105-0.895 2-2 2s-2-0.895-2-2c0-1.105 0.895-2 2-2s2 0.895 2 2z"></path>
<path fill="none" stroke="#1e88e5" style="stroke: var(--color1, #1e88e5)" stroke-linejoin="miter" stroke-linecap="round" stroke-miterlimit="4" stroke-width="1.3333" d="M11.333 18c4.791 0 6.354-6.457 6.623-10.669 0.047-0.735-0.553-1.331-1.289-1.331h-1.333"></path>
<path fill="none" stroke="#1e88e5" style="stroke: var(--color1, #1e88e5)" stroke-linejoin="miter" stroke-linecap="round" stroke-miterlimit="4" stroke-width="1.3333" d="M11.333 18c-4.791 0-6.354-6.457-6.623-10.669-0.047-0.735 0.553-1.331 1.289-1.331h1.333"></path>
<path fill="none" stroke="#1e88e5" style="stroke: var(--color1, #1e88e5)" stroke-linejoin="miter" stroke-linecap="round" stroke-miterlimit="4" stroke-width="1.3333" d="M24.667 16.667v2.667c0 3.682-2.985 6.667-6.667 6.667v0c-3.682 0-6.667-2.985-6.667-6.667v-1.333"></path>
</symbol>
<symbol id="icon-other" viewBox="0 0 32 32">
<path fill="none" stroke="#1e88e5" style="stroke: var(--color1, #1e88e5)" stroke-linejoin="round" stroke-linecap="round" stroke-miterlimit="4" stroke-width="1.3333" d="M21.057 27.853l-2.787-2.787 4.278-9.463 2.787 2.787-4.278 9.463z"></path>
<path fill="none" stroke="#1e88e5" style="stroke: var(--color1, #1e88e5)" stroke-linejoin="round" stroke-linecap="round" stroke-miterlimit="4" stroke-width="1.3333" d="M15.256 22.052l-2.788-2.787 4.278-9.464 2.787 2.787-4.278 9.463z"></path>
<path fill="none" stroke="#1e88e5" style="stroke: var(--color1, #1e88e5)" stroke-linejoin="round" stroke-linecap="round" stroke-miterlimit="4" stroke-width="1.3333" d="M9.453 16.251l-2.787-2.788 4.278-9.463 2.787 2.788-4.278 9.464z"></path>
<path fill="none" stroke="#1e88e5" style="stroke: var(--color1, #1e88e5)" stroke-linejoin="round" stroke-linecap="round" stroke-miterlimit="4" stroke-width="1.3333" d="M9.453 16.251l5.186-2.074"></path>
<path fill="none" stroke="#1e88e5" style="stroke: var(--color1, #1e88e5)" stroke-linejoin="round" stroke-linecap="round" stroke-miterlimit="4" stroke-width="1.3333" d="M11.526 11.843l5.185-2.074"></path>
<path fill="none" stroke="#1e88e5" style="stroke: var(--color1, #1e88e5)" stroke-linejoin="round" stroke-linecap="round" stroke-miterlimit="4" stroke-width="1.3333" d="M15.286 22.087l5.186-2.074"></path>
<path fill="none" stroke="#1e88e5" style="stroke: var(--color1, #1e88e5)" stroke-linejoin="round" stroke-linecap="round" stroke-miterlimit="4" stroke-width="1.3333" d="M17.359 17.679l5.185-2.074"></path>
</symbol>
</defs>
</svg>
