<svg aria-hidden="true" style="position: absolute; width: 0; height: 0; overflow: hidden;" version="1.1" xmlns="http://www.w3.org/2000/svg" xmlns:xlink="http://www.w3.org/1999/xlink">
<defs>
<symbol id="icon-login" viewBox="0 0 32 32">
<path fill="none" stroke-linejoin="miter" stroke-linecap="butt" stroke-miterlimit="4" stroke-width="1.3333" d="M9.333 9.509v-0.693c0-2.861 0-4.292 0.919-5.089s2.336-0.595 5.168-0.191l5.71 0.816c3.275 0.468 4.912 0.702 5.891 1.83s0.978 2.782 0.978 6.090v7.457c0 3.308 0 4.962-0.978 6.090s-2.616 1.362-5.891 1.83l-5.71 0.816c-2.832 0.405-4.249 0.607-5.168-0.191s-0.919-2.228-0.919-5.089v-0.429"></path>
<path  d="M21.333 16l0.521-0.416 0.333 0.416-0.333 0.416-0.521-0.416zM5.333 16.667c-0.368 0-0.667-0.299-0.667-0.667s0.298-0.667 0.667-0.667v1.333zM16.521 8.917l5.333 6.667-1.041 0.833-5.333-6.667 1.041-0.833zM21.854 16.416l-5.333 6.667-1.041-0.833 5.333-6.667 1.041 0.833zM21.333 16.667h-16v-1.333h16v1.333z"></path>
</symbol>
<symbol id="icon-pet-helsi-logo" viewBox="0 0 201 32">
<path  d="M34.986 1.036c-2.66-1.28-5.452-1.125-7.364-0.833-3.657 0.557-4.482 1.944-7.371 1.975-3.2 0.035-4.516-2.303-8.728-2.13-0.688 0.028-5.794 0.662-9.053 4.74-0.492 0.615-3.020 3.918-2.362 8.060 0.378 2.38 1.617 3.836 4.029 6.669 0.834 0.982 1.589 1.776 7.086 6.531l0.162 0.135c0.928-0.948 1.761-1.749 2.242-2.327 0.666-0.813 1.134-1.331 1.47-2.323 0 0 0.259-0.458 0.271-1.576 0.008-0.136 0.003-0.272-0.016-0.406l-0.198-0.008c-0.097 0-0.173 0-0.313-0.016-0.275-0.034-0.547-0.091-0.813-0.171-0.542-0.135-1.107-0.526-1.67-1.205-0.334-0.409-0.541-0.906-0.596-1.43-0.192-1.329 0.226-2.573 1.219-3.405 0.636-0.53 1.438-0.821 2.266-0.822 0.768 0.010 1.513 0.271 2.12 0.742 0.538 0.416 0.947 0.976 1.178 1.616 0.1 0.279 0.414 1.191 0.080 2.16-0.146 0.484-0.394 0.931-0.729 1.311-0.104 0.126-0.217 0.246-0.337 0.358-0.045 0.041-0.135 0.108-0.15 0.123s-0.049 0.037-0.066 0.047c-0.010 0.005-0.019 0.012-0.027 0.019-0.002 0.005-0.003 0.010-0.003 0.015s0.001 0.010 0.003 0.015c0 0.016 0 0.018 0.011 0.057 0.018 0.093 0.026 0.111 0.039 0.177s0.031 0.15 0.041 0.21c0.031 0.215 0.038 0.297 0.057 0.53 0.020 0.488-0.016 0.977-0.106 1.457-0.074 0.49-0.216 0.968-0.424 1.418-0.288 0.658-0.672 1.269-1.139 1.815-0.677 0.761-0.474 0.512-1.392 1.551-0.378 0.428-0.611 0.745-1.153 1.272-0.072 0.069-0.081 0.084-0.209 0.209 3.353 2.861 4.274 3.446 5.791 3.792 1.031 0.233 3.314 0.576 5.739-0.34 1.685-0.637 2.641-1.323 4.677-3.24l-0.429-0.416c-0.542-0.527-0.773-0.844-1.153-1.272-0.918-1.039-0.718-0.79-1.391-1.551-0.468-0.545-0.853-1.157-1.14-1.815-0.209-0.445-0.354-0.917-0.432-1.402-0.089-0.48-0.125-0.969-0.106-1.457 0.019-0.233 0.026-0.314 0.058-0.53 0.008-0.060 0.023-0.135 0.039-0.21s0.022-0.084 0.041-0.177c0.007-0.039 0.007-0.041 0.009-0.057 0.002-0.005 0.003-0.010 0.003-0.015s-0.001-0.010-0.003-0.015c-0.008-0.007-0.017-0.014-0.026-0.019-0.019-0.011-0.046-0.033-0.066-0.047s-0.107-0.083-0.15-0.123c-0.121-0.112-0.234-0.231-0.339-0.358-0.334-0.38-0.582-0.827-0.729-1.311-0.335-0.97-0.020-1.881 0.080-2.16 0.231-0.64 0.641-1.201 1.18-1.616 0.607-0.471 1.351-0.732 2.12-0.742 0.828 0.001 1.63 0.292 2.266 0.822 0.991 0.832 1.41 2.076 1.219 3.405-0.056 0.525-0.264 1.022-0.597 1.43-0.563 0.677-1.123 1.065-1.669 1.205-0.266 0.080-0.537 0.137-0.813 0.171-0.135 0.012-0.215 0.011-0.313 0.016l-0.198 0.008c-0.018 0.135-0.024 0.271-0.016 0.406 0.007 1.119 0.264 1.576 0.264 1.576 0.336 0.991 0.803 1.512 1.471 2.323 0.481 0.568 1.429 1.509 2.351 2.462 3.73-3.608 3.355-3.001 5.122-4.935 2.564-2.804 4.922-5.225 5.334-8.804 0.517-4.53-2.168-9.595-6.251-11.565z"></path>
<path  d="M200.567 11.094v19.88h-3.816v-19.88h3.816zM201.29 4.95c0 0.352-0.072 0.691-0.216 1.017-0.143 0.313-0.339 0.594-0.586 0.841-0.235 0.235-0.515 0.424-0.841 0.567-0.326 0.13-0.666 0.196-1.018 0.196s-0.684-0.065-0.998-0.196c-0.313-0.143-0.594-0.333-0.841-0.567-0.234-0.248-0.423-0.528-0.567-0.841-0.131-0.326-0.196-0.665-0.196-1.017 0-0.365 0.065-0.704 0.196-1.017 0.143-0.326 0.332-0.607 0.567-0.841 0.248-0.248 0.529-0.437 0.841-0.567 0.314-0.143 0.646-0.215 0.998-0.215s0.692 0.072 1.018 0.215c0.326 0.13 0.606 0.32 0.841 0.567 0.248 0.235 0.443 0.515 0.586 0.841 0.143 0.313 0.216 0.652 0.216 1.017z"></path>
<path  d="M191.289 14.518c-0.104 0.17-0.215 0.294-0.332 0.372-0.118 0.065-0.267 0.098-0.45 0.098-0.209 0-0.444-0.072-0.704-0.215-0.249-0.143-0.555-0.3-0.92-0.47-0.353-0.169-0.77-0.326-1.252-0.47-0.483-0.143-1.057-0.215-1.723-0.215-0.547 0-1.050 0.072-1.506 0.215-0.444 0.13-0.822 0.32-1.135 0.567-0.313 0.235-0.554 0.522-0.724 0.861-0.169 0.326-0.254 0.678-0.254 1.057 0 0.496 0.143 0.907 0.43 1.233 0.299 0.326 0.684 0.607 1.154 0.841 0.483 0.235 1.024 0.45 1.624 0.646 0.613 0.183 1.234 0.378 1.859 0.587 0.639 0.209 1.259 0.45 1.859 0.724 0.613 0.261 1.154 0.594 1.624 0.998 0.483 0.391 0.868 0.867 1.155 1.428 0.299 0.561 0.45 1.246 0.45 2.055 0 0.926-0.17 1.787-0.509 2.583-0.326 0.783-0.815 1.461-1.468 2.035-0.639 0.574-1.435 1.024-2.388 1.35-0.952 0.326-2.041 0.489-3.267 0.489-1.37 0-2.635-0.228-3.796-0.685-1.161-0.457-2.134-1.037-2.916-1.742l0.9-1.467c0.104-0.183 0.235-0.32 0.391-0.411 0.157-0.104 0.365-0.157 0.627-0.157 0.248 0 0.502 0.091 0.763 0.274s0.574 0.385 0.939 0.607c0.365 0.209 0.808 0.404 1.331 0.587 0.521 0.17 1.174 0.254 1.957 0.254 0.651 0 1.219-0.078 1.702-0.235 0.482-0.17 0.881-0.391 1.193-0.665 0.326-0.287 0.568-0.613 0.724-0.978 0.157-0.365 0.235-0.75 0.235-1.154 0-0.522-0.151-0.952-0.45-1.291-0.287-0.352-0.672-0.652-1.155-0.9-0.47-0.248-1.011-0.463-1.624-0.646s-1.239-0.378-1.879-0.587c-0.639-0.209-1.265-0.45-1.878-0.724s-1.161-0.62-1.644-1.037c-0.47-0.417-0.854-0.926-1.154-1.526-0.287-0.6-0.43-1.33-0.43-2.191 0-0.77 0.157-1.507 0.47-2.211 0.326-0.704 0.789-1.324 1.389-1.859 0.613-0.535 1.363-0.959 2.25-1.272 0.9-0.326 1.924-0.489 3.072-0.489 1.317 0 2.504 0.209 3.561 0.626 1.069 0.417 1.982 0.991 2.739 1.722l-0.841 1.389z"></path>
<path  d="M174.119 2.093v28.88h-3.836v-28.88h3.836z"></path>
<path  d="M162.66 18.823c0-0.757-0.11-1.454-0.332-2.094-0.209-0.639-0.521-1.194-0.939-1.663-0.417-0.47-0.926-0.835-1.526-1.096s-1.291-0.391-2.074-0.391c-1.605 0-2.871 0.463-3.797 1.389-0.913 0.926-1.494 2.211-1.741 3.855h10.409zM165.811 28.137c-0.47 0.548-1.011 1.024-1.624 1.428-0.613 0.391-1.266 0.711-1.957 0.959-0.691 0.248-1.408 0.43-2.152 0.548-0.73 0.117-1.454 0.176-2.172 0.176-1.37 0-2.642-0.228-3.815-0.685-1.161-0.47-2.172-1.148-3.033-2.035-0.847-0.9-1.513-2.009-1.995-3.326-0.47-1.331-0.705-2.857-0.705-4.579 0-1.383 0.216-2.668 0.646-3.855 0.43-1.2 1.044-2.244 1.838-3.131 0.809-0.887 1.794-1.585 2.955-2.094 1.16-0.509 2.465-0.763 3.913-0.763 1.213 0 2.328 0.202 3.346 0.607 1.030 0.391 1.918 0.965 2.661 1.722s1.324 1.689 1.741 2.798c0.43 1.109 0.646 2.374 0.646 3.796 0 0.587-0.066 0.985-0.196 1.194-0.13 0.196-0.372 0.293-0.724 0.293h-13.032c0.039 1.187 0.21 2.224 0.509 3.111 0.3 0.874 0.711 1.604 1.233 2.191 0.536 0.587 1.167 1.024 1.898 1.311s1.546 0.43 2.446 0.43c0.847 0 1.578-0.098 2.191-0.294 0.626-0.196 1.16-0.404 1.604-0.626 0.456-0.235 0.835-0.45 1.134-0.646 0.314-0.196 0.587-0.293 0.822-0.293 0.314 0 0.555 0.117 0.725 0.352l1.095 1.409z"></path>
<path  d="M143.935 2.876v28.098h-4.167v-12.66h-14.656v12.66h-4.187v-28.098h4.187v12.405h14.656v-12.405h4.167z"></path>
<path  d="M102.288 31.287c-1.604 0-2.844-0.45-3.718-1.35-0.861-0.9-1.291-2.185-1.291-3.855v-11.897h-2.309c-0.222 0-0.411-0.065-0.568-0.196-0.143-0.143-0.215-0.352-0.215-0.626v-1.546l3.229-0.45 0.861-5.929c0.052-0.222 0.15-0.391 0.293-0.509 0.157-0.13 0.352-0.196 0.587-0.196h1.937v6.672h5.635v2.778h-5.635v11.642c0 0.783 0.189 1.37 0.567 1.761 0.391 0.378 0.887 0.567 1.487 0.567 0.353 0 0.652-0.046 0.9-0.137 0.261-0.091 0.483-0.189 0.666-0.294 0.183-0.117 0.339-0.222 0.47-0.313 0.13-0.091 0.248-0.137 0.352-0.137 0.13 0 0.228 0.033 0.293 0.098 0.078 0.052 0.157 0.143 0.235 0.274l1.134 1.839c-0.626 0.574-1.37 1.018-2.231 1.331s-1.754 0.47-2.68 0.47z"></path>
<path  d="M88.674 18.823c0-0.757-0.111-1.454-0.333-2.094-0.209-0.639-0.522-1.194-0.939-1.663s-0.926-0.835-1.526-1.096c-0.6-0.261-1.291-0.391-2.074-0.391-1.604 0-2.87 0.463-3.796 1.389-0.913 0.926-1.494 2.211-1.741 3.855h10.409zM91.824 28.137c-0.47 0.548-1.011 1.024-1.624 1.428-0.613 0.391-1.265 0.711-1.957 0.959s-1.409 0.43-2.152 0.548c-0.731 0.117-1.454 0.176-2.172 0.176-1.37 0-2.641-0.228-3.815-0.685-1.161-0.47-2.172-1.148-3.033-2.035-0.848-0.9-1.513-2.009-1.996-3.326-0.47-1.331-0.704-2.857-0.704-4.579 0-1.383 0.215-2.668 0.646-3.855 0.43-1.2 1.043-2.244 1.839-3.131 0.809-0.887 1.794-1.585 2.955-2.094s2.465-0.763 3.913-0.763c1.213 0 2.328 0.202 3.346 0.607 1.031 0.391 1.918 0.965 2.661 1.722s1.324 1.689 1.741 2.798c0.43 1.109 0.646 2.374 0.646 3.796 0 0.587-0.065 0.985-0.196 1.194-0.13 0.196-0.372 0.293-0.724 0.293h-13.031c0.039 1.187 0.209 2.224 0.509 3.111 0.3 0.874 0.711 1.604 1.233 2.191 0.535 0.587 1.167 1.024 1.898 1.311s1.546 0.43 2.446 0.43c0.848 0 1.578-0.098 2.191-0.294 0.626-0.196 1.161-0.404 1.604-0.626 0.457-0.235 0.835-0.45 1.135-0.646 0.313-0.196 0.587-0.293 0.822-0.293 0.313 0 0.554 0.117 0.724 0.352l1.096 1.409z"></path>
<path  d="M62.099 17.336c1.057 0 1.983-0.137 2.779-0.411 0.809-0.274 1.481-0.659 2.015-1.154 0.548-0.509 0.959-1.109 1.233-1.8 0.274-0.704 0.411-1.481 0.411-2.328 0-1.709-0.535-3.052-1.604-4.031-1.057-0.978-2.668-1.468-4.833-1.468h-4.344v11.192h4.344zM62.099 2.876c1.8 0 3.365 0.209 4.696 0.626s2.433 1.011 3.307 1.781c0.874 0.757 1.52 1.676 1.937 2.759 0.43 1.083 0.646 2.283 0.646 3.6s-0.228 2.531-0.685 3.639c-0.457 1.096-1.128 2.041-2.015 2.837s-1.996 1.415-3.326 1.859c-1.317 0.43-2.837 0.646-4.559 0.646h-4.344v10.351h-4.168v-28.098h8.511z"></path>
</symbol>
<symbol id="icon-Thoughtsx" viewBox="0 0 19 32">
<path fill="#fff" style="fill: var(--color1, #fff)" d="M19.394 5.761c0 2.678-2.171 4.848-4.848 4.848s-4.848-2.171-4.848-4.848c0-2.678 2.171-4.848 4.848-4.848s4.848 2.171 4.848 4.848z"></path>
<path fill="#fff" style="fill: var(--color1, #fff)" d="M5.818 18.367c0 1.607-1.302 2.909-2.909 2.909s-2.909-1.302-2.909-2.909c0-1.607 1.302-2.909 2.909-2.909s2.909 1.302 2.909 2.909z"></path>
<path fill="#fff" style="fill: var(--color1, #fff)" d="M8.727 31.943c1.071 0 1.939-0.868 1.939-1.939s-0.868-1.939-1.939-1.939c-1.071 0-1.939 0.868-1.939 1.939s0.868 1.939 1.939 1.939z"></path>
</symbol>
<symbol id="icon-message" viewBox="0 0 32 32">
<path fill="none" stroke="#1e88e5" style="stroke: var(--color1, #1e88e5)" stroke-linejoin="miter" stroke-linecap="butt" stroke-miterlimit="4" stroke-width="1.3333" d="M8 8h16c1.473 0 2.667 1.194 2.667 2.667v10.667c0 1.473-1.194 2.667-2.667 2.667h-16c-1.473 0-2.667-1.194-2.667-2.667v-10.667c0-1.473 1.194-2.667 2.667-2.667z"></path>
<path fill="none" stroke="#1e88e5" style="stroke: var(--color1, #1e88e5)" stroke-linejoin="miter" stroke-linecap="butt" stroke-miterlimit="4" stroke-width="1.3333" d="M5.333 12l9.474 4.737c0.751 0.375 1.634 0.375 2.385 0l9.474-4.737"></path>
</symbol>
<symbol id="icon-arrow_down" viewBox="0 0 32 32">
<path fill="none" stroke="#1e88e5" style="stroke: var(--color1, #1e88e5)" stroke-linejoin="miter" stroke-linecap="butt" stroke-miterlimit="4" stroke-width="1.3333" d="M24 12l-8 8-8-8"></path>
</symbol>
<symbol id="icon-customer-base" viewBox="0 0 32 32">
<path fill="#80bcf0" style="fill: var(--color1, #80bcf0)" d="M16 0c8.837 0 16 7.163 16 16s-7.163 16-16 16c-8.837 0-16-7.163-16-16s7.163-16 16-16z"></path>
<path fill="none" stroke="#fff" style="stroke: var(--color2, #fff)" stroke-linejoin="miter" stroke-linecap="round" stroke-miterlimit="10" stroke-width="1" d="M18.595 16.564c1.582-1.582 1.588-4.142 0.014-5.716s-4.134-1.569-5.716 0.014c-1.582 1.582-1.588 4.142-0.014 5.716s4.134 1.569 5.716-0.014z"></path>
<path fill="none" stroke="#fff" style="stroke: var(--color2, #fff)" stroke-linejoin="miter" stroke-linecap="round" stroke-miterlimit="10" stroke-width="1" d="M8.727 24.169v-0.958c0.005-1.447 0.582-2.834 1.605-3.857s2.411-1.6 3.858-1.604h3.107c1.447 0.005 2.834 0.581 3.857 1.605s1.6 2.41 1.605 3.857v0.958"></path>
<path fill="none" stroke="#fff" style="stroke: var(--color2, #fff)" stroke-linejoin="miter" stroke-linecap="round" stroke-miterlimit="10" stroke-width="0.7" d="M21.583 11.43c0.552 0.133 1.051 0.43 1.431 0.853s0.623 0.95 0.697 1.513c0.050 0.389 0.018 0.785-0.094 1.161s-0.302 0.725-0.557 1.023-0.57 0.54-0.924 0.709c-0.354 0.169-0.74 0.262-1.133 0.273h-0.134"></path>
<path fill="none" stroke="#fff" style="stroke: var(--color2, #fff)" stroke-linejoin="miter" stroke-linecap="round" stroke-miterlimit="10" stroke-width="0.7" d="M25.793 21.433v-0.666c-0.003-1.004-0.403-1.967-1.113-2.677s-1.673-1.11-2.677-1.113h-1.003"></path>
<path fill="none" stroke="#fff" style="stroke: var(--color2, #fff)" stroke-linejoin="miter" stroke-linecap="round" stroke-miterlimit="10" stroke-width="0.7" d="M10.928 16.962h-0.134c-0.393-0.011-0.778-0.104-1.133-0.273s-0.669-0.411-0.925-0.709-0.445-0.647-0.557-1.023c-0.112-0.376-0.144-0.772-0.095-1.161 0.074-0.563 0.317-1.090 0.697-1.513s0.879-0.72 1.431-0.853"></path>
<path fill="none" stroke="#fff" style="stroke: var(--color2, #fff)" stroke-linejoin="miter" stroke-linecap="round" stroke-miterlimit="10" stroke-width="0.7" d="M10.798 16.977h-1.003c-1.005 0.002-1.968 0.401-2.679 1.111s-1.112 1.672-1.116 2.677v0.664"></path>
</symbol>
<symbol id="icon-remote-work" viewBox="0 0 32 32">
<path fill="#80bcf0" style="fill: var(--color1, #80bcf0)" d="M16 0c8.837 0 16 7.163 16 16s-7.163 16-16 16c-8.837 0-16-7.163-16-16s7.163-16 16-16z"></path>
<path fill="none" stroke="#fff" style="stroke: var(--color2, #fff)" stroke-linejoin="miter" stroke-linecap="round" stroke-miterlimit="10" stroke-width="1" d="M27.207 24.253c-2.5-2.253-7.527-3.956-11.251-3.966-4.1-0.027-8.081 1.377-11.257 3.969"></path>
<path fill="none" stroke="#fff" style="stroke: var(--color2, #fff)" stroke-linejoin="miter" stroke-linecap="butt" stroke-miterlimit="10" stroke-width="1" d="M11.708 11.799c0 3.322 2.486 6.224 3.678 7.424 0.082 0.082 0.178 0.147 0.285 0.191s0.221 0.067 0.337 0.067 0.23-0.023 0.337-0.067c0.107-0.044 0.204-0.109 0.285-0.191 1.192-1.2 3.678-4.101 3.678-7.424 0-0.565-0.111-1.124-0.327-1.646s-0.533-0.996-0.932-1.395-0.874-0.716-1.395-0.932c-0.522-0.216-1.081-0.327-1.646-0.327-1.14 0-2.234 0.453-3.040 1.259s-1.259 1.9-1.259 3.040z"></path>
<path fill="none" stroke="#fff" style="stroke: var(--color2, #fff)" stroke-linejoin="miter" stroke-linecap="butt" stroke-miterlimit="10" stroke-width="1" d="M16.005 14.107c-1.276 0-2.311-1.035-2.311-2.311s1.035-2.311 2.311-2.311c1.276 0 2.311 1.035 2.311 2.311s-1.035 2.311-2.311 2.311z"></path>
<path fill="none" stroke="#fff" style="stroke: var(--color2, #fff)" stroke-linejoin="miter" stroke-linecap="round" stroke-miterlimit="10" stroke-width="1" d="M21.707 21.5c0 0-0.579 2.642-1.78 2.964s-2.161-1.634-3.837-1.108c-1.676 0.526-4.244-0.788-4.885-0.356s-1.498-1.243-1.498-1.243"></path>
</symbol>
<symbol id="icon-additional-income" viewBox="0 0 32 32">
<path fill="#80bcf0" style="fill: var(--color1, #80bcf0)" d="M16 0c8.837 0 16 7.163 16 16s-7.163 16-16 16c-8.837 0-16-7.163-16-16s7.163-16 16-16z"></path>
<path fill="none" stroke="#fff" style="stroke: var(--color2, #fff)" stroke-linejoin="miter" stroke-linecap="round" stroke-miterlimit="10" stroke-width="1" d="M9.269 13.352l-0.367 0.227c-0.098 0.069-0.178 0.161-0.23 0.268-1.75 3.981-2.916 3.718-3.5 4.331-0.062 0.066-0.108 0.144-0.137 0.23s-0.039 0.176-0.029 0.266l0.152 1.403c0.013 0.13 0.060 0.255 0.136 0.361s0.179 0.191 0.298 0.245l4.593 2.141"></path>
<path fill="none" stroke="#fff" style="stroke: var(--color2, #fff)" stroke-linejoin="miter" stroke-linecap="round" stroke-miterlimit="10" stroke-width="1" d="M12.199 13.165c0 0 5.833-3.255 10.977 0.898 0.642 0.513 1.12 1.203 1.376 1.984s0.277 1.62 0.062 2.414c-0.285 1.042-0.811 2.003-1.534 2.806l-0.332 2.966c0.016 0.068 0.013 0.14-0.010 0.206s-0.064 0.125-0.12 0.169c-0.055 0.044-0.121 0.071-0.191 0.078s-0.14-0.005-0.203-0.036l-1.654-1.546"></path>
<path fill="none" stroke="#fff" style="stroke: var(--color2, #fff)" stroke-linejoin="miter" stroke-linecap="round" stroke-miterlimit="10" stroke-width="1" d="M21.038 23.033c0 0-5.833 0.904-8.256 0.341-0.136-0.032-0.278-0.031-0.413 0.002s-0.262 0.097-0.368 0.188l-1.54 1.292c-0.070 0.058-0.153 0.097-0.243 0.114s-0.181 0.010-0.268-0.019c-0.086-0.029-0.163-0.080-0.224-0.148s-0.103-0.15-0.123-0.238l-0.525-2.243"></path>
<path fill="none" stroke="#fff" style="stroke: var(--color2, #fff)" stroke-linejoin="miter" stroke-linecap="round" stroke-miterlimit="10" stroke-width="1" d="M9.434 13.969v-3.173c-0-0.063 0.016-0.126 0.046-0.182s0.075-0.103 0.128-0.137c0.054-0.034 0.115-0.054 0.178-0.058s0.127 0.008 0.184 0.035c0.825 0.394 2.065 1.286 2.228 3.398"></path>
<path fill="#1e88e5" style="fill: var(--color3, #1e88e5)" d="M8.836 17.068c0.33 0 0.598-0.268 0.598-0.598s-0.268-0.598-0.598-0.598c-0.33 0-0.598 0.268-0.598 0.598s0.268 0.598 0.598 0.598z"></path>
<path fill="none" stroke="#fff" style="stroke: var(--color2, #fff)" stroke-linejoin="miter" stroke-linecap="round" stroke-miterlimit="10" stroke-width="1" d="M14.326 13.974c0.78-0.389 1.63-0.615 2.5-0.665s1.741 0.077 2.56 0.373"></path>
<path fill="none" stroke="#fff" style="stroke: var(--color2, #fff)" stroke-linejoin="miter" stroke-linecap="round" stroke-miterlimit="10" stroke-width="1" d="M24.939 16.859c0 0 2.514-0.916 1.901-2.17s-1.254-1.027-1.368-0.72c-0.114 0.306 0.082 1.027 0.563 1.187 0.624 0.21 1.566-1.187 1.458-1.834"></path>
<path fill="none" stroke="#fff" style="stroke: var(--color2, #fff)" stroke-linejoin="miter" stroke-linecap="round" stroke-miterlimit="10" stroke-width="1" d="M16.744 10.284c0.907 0 1.642-0.735 1.642-1.642s-0.735-1.642-1.642-1.642c-0.907 0-1.642 0.735-1.642 1.642s0.735 1.642 1.642 1.642z"></path>
</symbol>
<symbol id="icon-advanced-training" viewBox="0 0 32 32">
<path fill="#80bcf0" style="fill: var(--color1, #80bcf0)" d="M16 0c8.837 0 16 7.163 16 16s-7.163 16-16 16c-8.837 0-16-7.163-16-16s7.163-16 16-16z"></path>
<path fill="none" stroke="#fff" style="stroke: var(--color2, #fff)" stroke-linejoin="miter" stroke-linecap="round" stroke-miterlimit="10" stroke-width="1" d="M7 8v15.597c0 0.012 0.005 0.023 0.015 0.031s0.022 0.013 0.035 0.013h17.95"></path>
<path fill="#fff" style="fill: var(--color2, #fff)" d="M10.282 17.367h1.319c0.048 0 0.094 0.017 0.128 0.046s0.053 0.070 0.053 0.112v5.17h-1.685v-5.17c-0-0.021 0.005-0.042 0.014-0.061s0.023-0.037 0.040-0.052 0.038-0.026 0.060-0.034c0.022-0.008 0.046-0.012 0.071-0.011z"></path>
<path fill="#fff" style="fill: var(--color2, #fff)" d="M13.82 16.469h1.29c0.052 0 0.102 0.018 0.139 0.050s0.057 0.076 0.057 0.121v6.051h-1.685v-6.051c0-0.023 0.005-0.045 0.015-0.066s0.025-0.040 0.043-0.056c0.018-0.016 0.040-0.029 0.065-0.037s0.050-0.013 0.076-0.012z"></path>
<path fill="#fff" style="fill: var(--color2, #fff)" d="M17.369 15.203h1.251c0.057 0 0.112 0.020 0.152 0.055s0.063 0.083 0.063 0.133v7.301h-1.682v-7.301c0-0.025 0.006-0.049 0.017-0.072s0.027-0.044 0.047-0.061c0.020-0.018 0.044-0.031 0.070-0.041s0.054-0.014 0.083-0.014z"></path>
<path fill="#fff" style="fill: var(--color2, #fff)" d="M20.916 13.938h1.216c0.062 0 0.121 0.021 0.164 0.059s0.068 0.090 0.068 0.144v8.553h-1.685v-8.553c0-0.027 0.006-0.054 0.018-0.079s0.029-0.047 0.051-0.066c0.022-0.019 0.048-0.034 0.077-0.044s0.059-0.015 0.090-0.015z"></path>
<path fill="none" stroke="#fff" style="stroke: var(--color2, #fff)" stroke-linejoin="miter" stroke-linecap="round" stroke-miterlimit="10" stroke-width="0.5" d="M10.129 15.202c0 0 9.296 0 11.736-5.718"></path>
<path fill="#fff" style="fill: var(--color2, #fff)" d="M22.163 8.516l0.099 2.766-0.881-0.935-1.365 0.205 2.147-2.036z"></path>
</symbol>
<symbol id="icon-new-experience" viewBox="0 0 32 32">
<path fill="#80bcf0" style="fill: var(--color1, #80bcf0)" d="M16 0c8.837 0 16 7.163 16 16s-7.163 16-16 16c-8.837 0-16-7.163-16-16s7.163-16 16-16z"></path>
<path fill="none" stroke="#fff" style="stroke: var(--color2, #fff)" stroke-linejoin="miter" stroke-linecap="butt" stroke-miterlimit="10" stroke-width="1" d="M15.975 22.352c4.792 0 8.676-3.884 8.676-8.676s-3.884-8.676-8.676-8.676c-4.792 0-8.676 3.884-8.676 8.676s3.884 8.676 8.676 8.676z"></path>
<path fill="none" stroke="#fff" style="stroke: var(--color2, #fff)" stroke-linejoin="miter" stroke-linecap="butt" stroke-miterlimit="10" stroke-width="1" d="M15.976 19.222c3.056 0 5.533-2.477 5.533-5.533s-2.477-5.533-5.533-5.533c-3.056 0-5.533 2.477-5.533 5.533s2.477 5.533 5.533 5.533z"></path>
<path fill="none" stroke="#fff" style="stroke: var(--color2, #fff)" stroke-linejoin="miter" stroke-linecap="butt" stroke-miterlimit="10" stroke-width="1" d="M16.425 11.007l0.568 1.149c0.035 0.071 0.087 0.133 0.151 0.179s0.139 0.077 0.217 0.089l1.272 0.186c0.090 0.014 0.175 0.053 0.245 0.112s0.122 0.137 0.15 0.224c0.028 0.087 0.032 0.18 0.010 0.269s-0.067 0.17-0.132 0.235l-0.909 0.909c-0.062 0.056-0.108 0.128-0.134 0.208s-0.030 0.165-0.012 0.247l0.218 1.267c0.016 0.090 0.006 0.183-0.029 0.269s-0.092 0.159-0.166 0.213c-0.074 0.054-0.162 0.086-0.254 0.092s-0.183-0.013-0.264-0.056l-1.136-0.6c-0.070-0.036-0.148-0.055-0.227-0.055s-0.157 0.019-0.227 0.055l-1.136 0.6c-0.081 0.043-0.173 0.062-0.264 0.056s-0.179-0.038-0.254-0.092c-0.074-0.054-0.132-0.128-0.166-0.213s-0.044-0.178-0.029-0.269l0.213-1.267c0.021-0.081 0.019-0.167-0.006-0.247s-0.071-0.152-0.135-0.207l-0.909-0.909c-0.065-0.065-0.111-0.146-0.132-0.235s-0.018-0.182 0.010-0.269c0.028-0.087 0.080-0.165 0.15-0.224s0.154-0.098 0.245-0.112l1.272-0.186c0.079-0.012 0.153-0.042 0.217-0.089s0.116-0.108 0.151-0.179l0.568-1.149c0.042-0.078 0.104-0.143 0.18-0.188s0.163-0.069 0.251-0.069c0.088 0 0.175 0.024 0.251 0.069s0.138 0.11 0.18 0.188z"></path>
<path fill="none" stroke="#fff" style="stroke: var(--color2, #fff)" stroke-linejoin="miter" stroke-linecap="butt" stroke-miterlimit="10" stroke-width="1" d="M10.44 20.367l-1.908 3.516c-0.020 0.038-0.029 0.080-0.026 0.123s0.019 0.083 0.045 0.117c0.026 0.034 0.061 0.060 0.101 0.075s0.084 0.017 0.125 0.008l3.321-0.709 1.136 3.352c0.014 0.041 0.040 0.078 0.074 0.105s0.076 0.043 0.12 0.047 0.087-0.006 0.126-0.027c0.038-0.021 0.069-0.053 0.089-0.092l2.33-4.543"></path>
<path fill="none" stroke="#fff" style="stroke: var(--color2, #fff)" stroke-linejoin="miter" stroke-linecap="butt" stroke-miterlimit="10" stroke-width="1" d="M21.781 20.367l1.903 3.516c0.020 0.038 0.029 0.080 0.026 0.123s-0.019 0.083-0.045 0.117c-0.026 0.034-0.061 0.060-0.101 0.075s-0.084 0.017-0.125 0.008l-3.321-0.709-1.136 3.352c-0.014 0.041-0.040 0.078-0.074 0.105s-0.076 0.043-0.12 0.047-0.087-0.006-0.125-0.027c-0.038-0.021-0.069-0.053-0.090-0.092l-2.33-4.543"></path>
</symbol>
<symbol id="icon-convenient-platform" viewBox="0 0 32 32">
<path fill="#80bcf0" style="fill: var(--color1, #80bcf0)" d="M16 0c8.837 0 16 7.163 16 16s-7.163 16-16 16c-8.837 0-16-7.163-16-16s7.163-16 16-16z"></path>
<path fill="none" stroke="#fff" style="stroke: var(--color2, #fff)" stroke-linejoin="miter" stroke-linecap="butt" stroke-miterlimit="10" stroke-width="1" d="M21.027 21.079h4.447c0.405-0.002 0.792-0.164 1.078-0.45s0.447-0.674 0.448-1.079v-9.020c-0.001-0.405-0.162-0.793-0.448-1.079s-0.673-0.448-1.078-0.45h-18.945c-0.405 0.002-0.793 0.164-1.079 0.45s-0.448 0.674-0.45 1.079v9.020c0.002 0.405 0.164 0.793 0.45 1.079s0.674 0.448 1.079 0.45h7.969"></path>
<path fill="none" stroke="#fff" style="stroke: var(--color2, #fff)" stroke-linejoin="miter" stroke-linecap="butt" stroke-miterlimit="5" stroke-width="1" d="M15.005 17.526c0 0.064-0.018 0.126-0.052 0.18s-0.082 0.097-0.14 0.124c-0.057 0.027-0.121 0.038-0.185 0.030s-0.123-0.033-0.172-0.073c-0.429-0.373-1.011-0.78-1.358-0.772-1.026 0-0.537 1.201-0.537 1.201l1.742 2.708c0 0 1.929 2.742 3.462 2.772 0.52 0.040 1.043-0.057 1.514-0.281s0.876-0.569 1.172-0.998c0.604-0.985 0.694-4.148 0.694-4.148s0.131-1.175-0.537-1.403c-0.172-0.048-0.356-0.027-0.513 0.059s-0.274 0.229-0.327 0.4c-0.005 0.014-0.014 0.026-0.026 0.035s-0.026 0.013-0.041 0.013c-0.015 0-0.029-0.005-0.041-0.013s-0.021-0.021-0.026-0.035c-0.049-0.179-0.045-0.451-0.090-0.705-0.018-0.1-0.058-0.195-0.119-0.277s-0.14-0.148-0.231-0.194c-0.091-0.046-0.191-0.070-0.293-0.069s-0.202 0.024-0.293 0.070l-0.295 0.149c-0.025 0.007-0.051 0.008-0.076 0.004s-0.050-0.013-0.071-0.026c-0.022-0.014-0.040-0.032-0.055-0.053s-0.024-0.045-0.029-0.070c-0.044-0.224-0.164-0.425-0.34-0.571-0.111-0.095-0.25-0.152-0.395-0.16-0.448 0-0.63 0.336-0.78 0.619-0.005 0.006-0.011 0.011-0.018 0.013s-0.015 0.003-0.022 0.001c-0.007-0.002-0.014-0.006-0.019-0.012s-0.008-0.013-0.009-0.020v-2.738c0 0 0-0.832-0.448-0.974-0.101-0.033-0.208-0.044-0.313-0.033s-0.207 0.046-0.299 0.1c-0.152 0.093-0.276 0.223-0.361 0.379s-0.128 0.331-0.124 0.509l0.049 4.26z"></path>
<path fill="none" stroke="#fff" style="stroke: var(--color2, #fff)" stroke-linejoin="miter" stroke-linecap="round" stroke-miterlimit="5" stroke-width="0.5904" d="M19.371 11.258l-1.671 0.821"></path>
<path fill="none" stroke="#fff" style="stroke: var(--color2, #fff)" stroke-linejoin="miter" stroke-linecap="round" stroke-miterlimit="5" stroke-width="0.5904" d="M19.737 13.258l-1.847-0.235"></path>
<path fill="none" stroke="#fff" style="stroke: var(--color2, #fff)" stroke-linejoin="miter" stroke-linecap="round" stroke-miterlimit="5" stroke-width="0.5904" d="M12.289 11.094l1.671 0.825"></path>
<path fill="none" stroke="#fff" style="stroke: var(--color2, #fff)" stroke-linejoin="miter" stroke-linecap="round" stroke-miterlimit="5" stroke-width="0.5904" d="M11.961 13.302l1.851-0.231"></path>
</symbol>
<symbol id="icon-arrow_left" viewBox="0 0 32 32">
<path fill="none" stroke="#1e88e5" style="stroke: var(--color1, #1e88e5)" stroke-linejoin="miter" stroke-linecap="butt" stroke-miterlimit="4" stroke-width="1.3333" d="M20 24l-8-8 8-8"></path>
</symbol>
<symbol id="icon-arrow_right_light" viewBox="0 0 32 32">
<path d="M26.667 16l0.471-0.471 0.471 0.471-0.471 0.471-0.471-0.471zM6.667 16.667c-0.368 0-0.667-0.299-0.667-0.667s0.298-0.667 0.667-0.667v1.333zM19.138 7.529l8 8-0.943 0.943-8-8 0.943-0.943zM27.138 16.471l-8 8-0.943-0.943 8-8 0.943 0.943zM26.667 16.667h-20v-1.333h20v1.333z"></path>
</symbol>
<symbol id="icon-arrow_up" viewBox="0 0 32 32">
<path fill="none" stroke="#1e88e5" style="stroke: var(--color1, #1e88e5)" stroke-linejoin="miter" stroke-linecap="butt" stroke-miterlimit="4" stroke-width="1.3333" d="M24 20l-8-8-8 8"></path>
</symbol>
<symbol id="icon-arrows-up_down" viewBox="0 0 32 32">
<path fill="none" stroke="#1e88e5" style="stroke: var(--color1, #1e88e5)" stroke-linejoin="miter" stroke-linecap="butt" stroke-miterlimit="4" stroke-width="1.3333" d="M22.667 20l-6.667 6.667-6.667-6.667"></path>
<path fill="none" stroke="#1e88e5" style="stroke: var(--color1, #1e88e5)" stroke-linejoin="miter" stroke-linecap="butt" stroke-miterlimit="4" stroke-width="1.3333" d="M22.667 12l-6.667-6.667-6.667 6.667"></path>
</symbol>
<symbol id="icon-back_arrow" viewBox="0 0 32 32">
<path d="M5.333 16l-0.471-0.471-0.471 0.471 0.471 0.471 0.471-0.471zM25.333 16.667c0.368 0 0.667-0.299 0.667-0.667s-0.299-0.667-0.667-0.667v1.333zM12.862 7.529l-8 8 0.943 0.943 8-8-0.943-0.943zM4.862 16.471l8 8 0.943-0.943-8-8-0.943 0.943zM5.333 16.667h20v-1.333h-20v1.333z"></path>
</symbol>
<symbol id="icon-bell" viewBox="0 0 32 32">
<path fill="none" stroke="#1e88e5" style="stroke: var(--color1, #1e88e5)" stroke-linejoin="miter" stroke-linecap="butt" stroke-miterlimit="4" stroke-width="1.3333" d="M8.597 11.959c0.419-3.772 3.608-6.626 7.403-6.626v0c3.795 0 6.984 2.854 7.403 6.626l0.336 3.022c0.004 0.039 0.006 0.058 0.009 0.077 0.172 1.498 0.66 2.943 1.431 4.239 0.010 0.017 0.020 0.033 0.040 0.066l0.771 1.285c0.699 1.166 1.049 1.749 0.974 2.227-0.050 0.318-0.214 0.608-0.461 0.815-0.371 0.311-1.051 0.311-2.411 0.311h-16.181c-1.359 0-2.039 0-2.411-0.311-0.247-0.207-0.411-0.496-0.461-0.815-0.075-0.479 0.274-1.061 0.974-2.227l0.771-1.285c0.020-0.033 0.030-0.050 0.040-0.066 0.771-1.296 1.259-2.741 1.431-4.239 0.002-0.019 0.004-0.038 0.009-0.077l0.336-3.022z"></path>
<path fill="none" stroke="#1e88e5" style="stroke: var(--color1, #1e88e5)" stroke-linejoin="miter" stroke-linecap="round" stroke-miterlimit="4" stroke-width="1.3333" d="M12.136 24.541c0.228 0.992 0.73 1.869 1.429 2.494s1.555 0.964 2.435 0.964 1.737-0.339 2.435-0.964c0.699-0.625 1.201-1.502 1.429-2.494"></path>
</symbol>
<symbol id="icon-burger-for-header-mobile" viewBox="0 0 32 32">
<path fill="none" stroke-linejoin="miter" stroke-linecap="round" stroke-miterlimit="4" stroke-width="1.3333" d="M7 22.334h18"></path>
<path fill="none" stroke-linejoin="miter" stroke-linecap="round" stroke-miterlimit="4" stroke-width="1.3333" d="M7 15.668h18"></path>
<path fill="none" stroke-linejoin="miter" stroke-linecap="round" stroke-miterlimit="4" stroke-width="1.3333" d="M7 9h18"></path>
</symbol>
<symbol id="icon-calendar" viewBox="0 0 32 32">
<path fill="none" stroke="#1e88e5" style="stroke: var(--color1, #1e88e5)" stroke-linejoin="round" stroke-linecap="round" stroke-miterlimit="4" stroke-width="1.3333" d="M25.333 5.333h-18.667c-1.473 0-2.667 1.194-2.667 2.667v18.667c0 1.473 1.194 2.667 2.667 2.667h18.667c1.473 0 2.667-1.194 2.667-2.667v-18.667c0-1.473-1.194-2.667-2.667-2.667z"></path>
<path fill="none" stroke="#1e88e5" style="stroke: var(--color1, #1e88e5)" stroke-linejoin="round" stroke-linecap="round" stroke-miterlimit="4" stroke-width="1.3333" d="M21.333 2.667v5.333"></path>
<path fill="none" stroke="#1e88e5" style="stroke: var(--color1, #1e88e5)" stroke-linejoin="round" stroke-linecap="round" stroke-miterlimit="4" stroke-width="1.3333" d="M10.667 2.667v5.333"></path>
<path fill="none" stroke="#1e88e5" style="stroke: var(--color1, #1e88e5)" stroke-linejoin="round" stroke-linecap="round" stroke-miterlimit="4" stroke-width="1.3333" d="M4 13.333h24"></path>
</symbol>
<symbol id="icon-chat" viewBox="0 0 32 32">
<path fill="none" stroke="#1e88e5" style="stroke: var(--color1, #1e88e5)" stroke-linejoin="miter" stroke-linecap="butt" stroke-miterlimit="4" stroke-width="1.3333" d="M26.667 16c0-5.028 0-7.542-1.562-9.105s-4.076-1.562-9.105-1.562v0c-5.028 0-7.542 0-9.105 1.562s-1.562 4.076-1.562 9.105v8c0 1.257 0 1.886 0.391 2.276s1.019 0.391 2.276 0.391h8c5.028 0 7.543 0 9.105-1.562s1.562-4.076 1.562-9.105v0z"></path>
<path fill="none" stroke="#1e88e5" style="stroke: var(--color1, #1e88e5)" stroke-linejoin="round" stroke-linecap="round" stroke-miterlimit="4" stroke-width="1.3333" d="M12 13.333h8"></path>
<path fill="none" stroke="#1e88e5" style="stroke: var(--color1, #1e88e5)" stroke-linejoin="round" stroke-linecap="round" stroke-miterlimit="4" stroke-width="1.3333" d="M12 18.667h4"></path>
</symbol>
<symbol id="icon-chat_1" viewBox="0 0 32 32">
<path fill="none" stroke="#1e88e5" style="stroke: var(--color1, #1e88e5)" stroke-linejoin="miter" stroke-linecap="butt" stroke-miterlimit="4" stroke-width="1.3333" d="M5.333 16c0-5.891 4.776-10.667 10.667-10.667v0c5.891 0 10.667 4.776 10.667 10.667v6.788c0 1.129 0 1.693-0.168 2.144-0.27 0.725-0.842 1.296-1.567 1.567-0.451 0.168-1.015 0.168-2.144 0.168h-6.788c-5.891 0-10.667-4.776-10.667-10.667v0z"></path>
<path fill="none" stroke="#1e88e5" style="stroke: var(--color1, #1e88e5)" stroke-linejoin="round" stroke-linecap="round" stroke-miterlimit="4" stroke-width="1.3333" d="M12 14.667h8"></path>
<path fill="none" stroke="#1e88e5" style="stroke: var(--color1, #1e88e5)" stroke-linejoin="round" stroke-linecap="round" stroke-miterlimit="4" stroke-width="1.3333" d="M16 20h4"></path>
</symbol>
<symbol id="icon-chat_2" viewBox="0 0 32 32">
<path fill="none" stroke="#1e88e5" style="stroke: var(--color1, #1e88e5)" stroke-linejoin="round" stroke-linecap="round" stroke-miterlimit="4" stroke-width="1.3333" d="M25.768 7.704c0.899 1.345 0.899 3.218 0.899 6.963s0 5.618-0.899 6.963c-0.389 0.582-0.889 1.082-1.471 1.471-1.175 0.785-2.753 0.884-5.63 0.897v0.002l-1.474 2.948c-0.491 0.983-1.894 0.983-2.385 0l-1.474-2.948v-0.002c-2.877-0.013-4.455-0.112-5.63-0.897-0.582-0.389-1.082-0.889-1.471-1.471-0.899-1.345-0.899-3.218-0.899-6.963s0-5.618 0.899-6.963c0.389-0.582 0.889-1.082 1.471-1.471 1.345-0.899 3.218-0.899 6.963-0.899h2.667c3.745 0 5.618 0 6.963 0.899 0.582 0.389 1.082 0.889 1.471 1.471z"></path>
<path fill="none" stroke="#1e88e5" style="stroke: var(--color1, #1e88e5)" stroke-linejoin="round" stroke-linecap="round" stroke-miterlimit="4" stroke-width="1.3333" d="M12 12h8"></path>
<path fill="none" stroke="#1e88e5" style="stroke: var(--color1, #1e88e5)" stroke-linejoin="round" stroke-linecap="round" stroke-miterlimit="4" stroke-width="1.3333" d="M12 17.333h4"></path>
</symbol>
<symbol id="icon-check-option" viewBox="0 0 32 32">
<path fill="none" stroke="#1e88e5" style="stroke: var(--color1, #1e88e5)" stroke-linejoin="miter" stroke-linecap="round" stroke-miterlimit="4" stroke-width="1.3333" d="M6.667 18.667l4.311 3.233c0.572 0.429 1.38 0.331 1.832-0.222l11.191-13.677"></path>
</symbol>
<symbol id="icon-chec_-ring_filled" viewBox="0 0 32 32">
<path fill="#1e88e5" style="fill: var(--color1, #1e88e5); stroke: var(--color1, #1e88e5)" stroke="#1e88e5" stroke-linejoin="miter" stroke-linecap="butt" stroke-miterlimit="4" stroke-width="1.6" d="M28 16c0 6.627-5.373 12-12 12s-12-5.373-12-12c0-6.627 5.373-12 12-12s12 5.373 12 12z"></path>
<path fill="none" stroke="#fff" style="stroke: var(--color2, #fff)" stroke-linejoin="miter" stroke-linecap="butt" stroke-miterlimit="4" stroke-width="1.6" d="M10.667 16l4 4 6.667-8"></path>
</symbol>
<symbol id="icon-check" viewBox="0 0 32 32">
<path fill="none" stroke="#1e88e5" style="stroke: var(--color1, #1e88e5)" stroke-linejoin="miter" stroke-linecap="butt" stroke-miterlimit="4" stroke-width="1.3333" d="M28 16c0 6.627-5.373 12-12 12s-12-5.373-12-12c0-6.627 5.373-12 12-12s12 5.373 12 12z"></path>
<path fill="none" stroke="#1e88e5" style="stroke: var(--color1, #1e88e5)" stroke-linejoin="miter" stroke-linecap="butt" stroke-miterlimit="4" stroke-width="1.3333" d="M10.667 16l4 4 6.667-8"></path>
</symbol>
<symbol id="icon-check_box_fill" viewBox="0 0 32 32">
<path fill="#1e88e5" style="fill: var(--color1, #1e88e5)" d="M9.333 5.333h13.333c2.209 0 4 1.791 4 4v13.333c0 2.209-1.791 4-4 4h-13.333c-2.209 0-4-1.791-4-4v-13.333c0-2.209 1.791-4 4-4z"></path>
<path fill="none" stroke="#fff" style="stroke: var(--color2, #fff)" stroke-linejoin="miter" stroke-linecap="butt" stroke-miterlimit="4" stroke-width="1.6" d="M12 16l2.525 2.525c0.078 0.078 0.205 0.078 0.283 0l5.192-5.192"></path>
</symbol>
<symbol id="icon-check_box_stroke" viewBox="0 0 32 32">
<path fill="#1e88e5" style="fill: var(--color1, #1e88e5)" d="M9.333 5.333h13.333c2.209 0 4 1.791 4 4v13.333c0 2.209-1.791 4-4 4h-13.333c-2.209 0-4-1.791-4-4v-13.333c0-2.209 1.791-4 4-4z"></path>
<path fill="none" stroke="#fff" style="stroke: var(--color2, #fff)" stroke-linejoin="miter" stroke-linecap="butt" stroke-miterlimit="4" stroke-width="1.6" d="M12 16l2.525 2.525c0.078 0.078 0.205 0.078 0.283 0l5.192-5.192"></path>
</symbol>
<symbol id="icon-chose_round" viewBox="0 0 32 32">
<path fill="none" stroke="#1e88e5" style="stroke: var(--color1, #1e88e5)" stroke-linejoin="miter" stroke-linecap="round" stroke-miterlimit="4" stroke-width="1.3333" d="M6.667 18.667l4.311 3.233c0.572 0.429 1.38 0.331 1.832-0.222l11.191-13.677"></path>
</symbol>
<symbol id="icon-clients_base" viewBox="0 0 32 32">
<path fill="none" stroke="#1e88e5" style="stroke: var(--color1, #1e88e5)" stroke-linejoin="miter" stroke-linecap="round" stroke-miterlimit="10" stroke-width="1.3333" d="M19.46 16.752c2.11-2.11 2.118-5.522 0.018-7.622s-5.512-2.091-7.622 0.018c-2.11 2.11-2.118 5.522-0.018 7.622s5.512 2.091 7.622-0.018z"></path>
<path fill="none" stroke="#1e88e5" style="stroke: var(--color1, #1e88e5)" stroke-linejoin="miter" stroke-linecap="round" stroke-miterlimit="10" stroke-width="1.3333" d="M6.302 26.892v-1.277c0.006-1.93 0.776-3.779 2.141-5.143s3.214-2.133 5.144-2.139h4.143c1.929 0.006 3.778 0.775 5.142 2.139s2.133 3.213 2.139 5.142v1.277"></path>
<path fill="none" stroke="#1e88e5" style="stroke: var(--color1, #1e88e5)" stroke-linejoin="miter" stroke-linecap="round" stroke-miterlimit="10" stroke-width="0.9333" d="M23.444 9.906c0.736 0.178 1.401 0.574 1.907 1.137s0.83 1.266 0.929 2.017c0.067 0.519 0.024 1.047-0.126 1.549s-0.403 0.967-0.743 1.364-0.76 0.72-1.233 0.946c-0.473 0.226-0.987 0.35-1.51 0.365h-0.179"></path>
<path fill="none" stroke="#1e88e5" style="stroke: var(--color1, #1e88e5)" stroke-linejoin="miter" stroke-linecap="round" stroke-miterlimit="10" stroke-width="0.9333" d="M29.058 23.243v-0.888c-0.004-1.339-0.537-2.622-1.484-3.569s-2.23-1.481-3.569-1.484h-1.338"></path>
<path fill="none" stroke="#1e88e5" style="stroke: var(--color1, #1e88e5)" stroke-linejoin="miter" stroke-linecap="round" stroke-miterlimit="10" stroke-width="0.9333" d="M9.238 17.283h-0.179c-0.523-0.015-1.038-0.139-1.51-0.365s-0.892-0.548-1.233-0.946-0.593-0.863-0.743-1.364c-0.15-0.502-0.193-1.029-0.126-1.549 0.099-0.751 0.423-1.454 0.929-2.017s1.171-0.959 1.907-1.137"></path>
<path fill="none" stroke="#1e88e5" style="stroke: var(--color1, #1e88e5)" stroke-linejoin="miter" stroke-linecap="round" stroke-miterlimit="10" stroke-width="0.9333" d="M9.063 17.302h-1.338c-1.34 0.002-2.624 0.535-3.572 1.481s-1.483 2.23-1.487 3.569v0.885"></path>
</symbol>
<symbol id="icon-clock" viewBox="0 0 32 32">
<path fill="none" stroke="#1e88e5" style="stroke: var(--color1, #1e88e5)" stroke-linejoin="round" stroke-linecap="round" stroke-miterlimit="4" stroke-width="1.3333" d="M16 29.333c7.364 0 13.333-5.97 13.333-13.333s-5.97-13.333-13.333-13.333c-7.364 0-13.333 5.97-13.333 13.333s5.97 13.333 13.333 13.333z"></path>
<path fill="none" stroke="#1e88e5" style="stroke: var(--color1, #1e88e5)" stroke-linejoin="round" stroke-linecap="round" stroke-miterlimit="4" stroke-width="1.3333" d="M16 8v8l5.333 2.667"></path>
</symbol>
<symbol id="icon-close" viewBox="0 0 32 32">
<path fill="none" stroke-linejoin="round" stroke-linecap="round" stroke-miterlimit="4" stroke-width="1.3333" d="M24 8l-16 16"></path>
<path fill="none" stroke-linejoin="round" stroke-linecap="round" stroke-miterlimit="4" stroke-width="1.3333" d="M8 8l16 16"></path>
</symbol>
<symbol id="icon-convenient_platform" viewBox="0 0 32 32">
<path fill="none" stroke="#1e88e5" style="stroke: var(--color1, #1e88e5)" stroke-linejoin="miter" stroke-linecap="butt" stroke-miterlimit="10" stroke-width="1.3333" d="M22.703 22.772h5.929c0.54-0.003 1.056-0.219 1.437-0.601s0.596-0.899 0.597-1.439v-12.027c-0.001-0.54-0.216-1.057-0.597-1.439s-0.898-0.598-1.437-0.601h-25.259c-0.54 0.003-1.057 0.218-1.439 0.6s-0.598 0.899-0.6 1.439v12.027c0.003 0.54 0.218 1.057 0.6 1.439s0.899 0.598 1.439 0.6h10.625"></path>
<path fill="none" stroke="#1e88e5" style="stroke: var(--color1, #1e88e5)" stroke-linejoin="miter" stroke-linecap="butt" stroke-miterlimit="5" stroke-width="1.3333" d="M14.674 18.034c0 0.085-0.023 0.168-0.069 0.24s-0.11 0.129-0.187 0.166c-0.077 0.037-0.162 0.051-0.246 0.040s-0.164-0.044-0.23-0.098c-0.572-0.497-1.348-1.040-1.811-1.030-1.368 0-0.716 1.602-0.716 1.602l2.323 3.611c0 0 2.572 3.656 4.616 3.696 0.694 0.054 1.39-0.076 2.018-0.375s1.167-0.758 1.563-1.331c0.806-1.313 0.925-5.531 0.925-5.531s0.174-1.567-0.716-1.87c-0.229-0.064-0.475-0.035-0.684 0.079s-0.365 0.305-0.435 0.533c-0.006 0.019-0.018 0.035-0.035 0.047s-0.035 0.018-0.055 0.018c-0.020 0-0.039-0.006-0.055-0.018s-0.028-0.028-0.034-0.047c-0.065-0.239-0.060-0.602-0.119-0.94-0.023-0.134-0.078-0.26-0.159-0.369s-0.187-0.197-0.308-0.258c-0.121-0.061-0.255-0.093-0.391-0.093s-0.27 0.032-0.391 0.093l-0.393 0.199c-0.033 0.009-0.068 0.011-0.101 0.006s-0.066-0.017-0.095-0.035c-0.029-0.018-0.054-0.042-0.073-0.071s-0.032-0.060-0.039-0.094c-0.059-0.298-0.219-0.567-0.453-0.761-0.148-0.127-0.333-0.202-0.527-0.214-0.597 0-0.841 0.448-1.040 0.826-0.006 0.008-0.014 0.014-0.024 0.017s-0.020 0.004-0.030 0.001c-0.010-0.003-0.018-0.008-0.025-0.016s-0.010-0.017-0.011-0.027v-3.651c0 0 0-1.109-0.597-1.298-0.135-0.044-0.277-0.059-0.418-0.043s-0.276 0.061-0.398 0.133c-0.202 0.124-0.368 0.298-0.481 0.506s-0.171 0.442-0.165 0.678l0.065 5.68z"></path>
<path fill="none" stroke="#1e88e5" style="stroke: var(--color1, #1e88e5)" stroke-linejoin="miter" stroke-linecap="round" stroke-miterlimit="5" stroke-width="0.7872" d="M20.494 9.677l-2.229 1.095"></path>
<path fill="none" stroke="#1e88e5" style="stroke: var(--color1, #1e88e5)" stroke-linejoin="miter" stroke-linecap="round" stroke-miterlimit="5" stroke-width="0.7872" d="M20.983 12.345l-2.462-0.313"></path>
<path fill="none" stroke="#1e88e5" style="stroke: var(--color1, #1e88e5)" stroke-linejoin="miter" stroke-linecap="round" stroke-miterlimit="5" stroke-width="0.7872" d="M11.052 9.458l2.228 1.1"></path>
<path fill="none" stroke="#1e88e5" style="stroke: var(--color1, #1e88e5)" stroke-linejoin="miter" stroke-linecap="round" stroke-miterlimit="5" stroke-width="0.7872" d="M10.615 12.402l2.467-0.308"></path>
</symbol>
<symbol id="icon-credit-card" viewBox="0 0 32 32">
<path fill="none" stroke="#1e88e5" style="stroke: var(--color1, #1e88e5)" stroke-linejoin="miter" stroke-linecap="butt" stroke-miterlimit="4" stroke-width="1.3333" d="M4.667 12.531c0-1.367 0-2.050 0.27-2.57 0.228-0.438 0.585-0.796 1.023-1.023 0.52-0.27 1.204-0.27 2.57-0.27h14.939c1.367 0 2.050 0 2.57 0.27 0.438 0.228 0.796 0.585 1.023 1.023 0.27 0.52 0.27 1.204 0.27 2.57v8.272c0 1.367 0 2.050-0.27 2.57-0.228 0.438-0.585 0.796-1.023 1.023-0.52 0.27-1.204 0.27-2.57 0.27h-14.939c-1.367 0-2.050 0-2.57-0.27-0.438-0.228-0.796-0.585-1.023-1.023-0.27-0.52-0.27-1.204-0.27-2.57v-8.272z"></path>
<path fill="none" stroke="#1e88e5" style="stroke: var(--color1, #1e88e5)" stroke-linejoin="miter" stroke-linecap="round" stroke-miterlimit="4" stroke-width="1.3333" d="M4.667 14h22.667"></path>
<path fill="#1e88e5" style="fill: var(--color1, #1e88e5)" d="M9.333 20.667c0 0.368-0.298 0.667-0.667 0.667s-0.667-0.298-0.667-0.667c0-0.368 0.298-0.667 0.667-0.667s0.667 0.298 0.667 0.667z"></path>
</symbol>
<symbol id="icon-dots" viewBox="0 0 32 32">
<path fill="none" stroke="#1e88e5" style="stroke: var(--color1, #1e88e5)" stroke-linejoin="miter" stroke-linecap="round" stroke-miterlimit="4" stroke-width="2.6667" d="M16.001 14.671c0.736 0 1.333 0.597 1.333 1.333s-0.597 1.333-1.333 1.333c-0.736 0-1.333-0.597-1.333-1.333s0.597-1.333 1.333-1.333z"></path>
<path fill="none" stroke="#1e88e5" style="stroke: var(--color1, #1e88e5)" stroke-linejoin="miter" stroke-linecap="round" stroke-miterlimit="4" stroke-width="2.6667" d="M16.001 22.671c0.736 0 1.333 0.597 1.333 1.333s-0.597 1.333-1.333 1.333c-0.736 0-1.333-0.597-1.333-1.333s0.597-1.333 1.333-1.333z"></path>
<path fill="none" stroke="#1e88e5" style="stroke: var(--color1, #1e88e5)" stroke-linejoin="miter" stroke-linecap="round" stroke-miterlimit="4" stroke-width="2.6667" d="M16.001 6.671c0.736 0 1.333 0.597 1.333 1.333s-0.597 1.333-1.333 1.333c-0.736 0-1.333-0.597-1.333-1.333s0.597-1.333 1.333-1.333z"></path>
</symbol>
<symbol id="icon-dots_more" viewBox="0 0 32 32">
<path fill="#1e88e5" style="fill: var(--color1, #1e88e5)" d="M20 25.333c0 1.473-1.194 2.667-2.667 2.667s-2.667-1.194-2.667-2.667c0-1.473 1.194-2.667 2.667-2.667s2.667 1.194 2.667 2.667z"></path>
<path fill="#1e88e5" style="fill: var(--color1, #1e88e5)" d="M12 25.333c0 1.473-1.194 2.667-2.667 2.667s-2.667-1.194-2.667-2.667c0-1.473 1.194-2.667 2.667-2.667s2.667 1.194 2.667 2.667z"></path>
<path fill="#1e88e5" style="fill: var(--color1, #1e88e5)" d="M28 25.333c0 1.473-1.194 2.667-2.667 2.667s-2.667-1.194-2.667-2.667c0-1.473 1.194-2.667 2.667-2.667s2.667 1.194 2.667 2.667z"></path>
</symbol>
<symbol id="icon-error" viewBox="0 0 32 32">
<path fill="none" stroke="#1e88e5" style="stroke: var(--color1, #1e88e5)" stroke-linejoin="miter" stroke-linecap="round" stroke-miterlimit="4" stroke-width="1.3333" d="M16 28c-1.576 0-3.136-0.31-4.592-0.913s-2.779-1.487-3.893-2.601c-1.114-1.114-1.998-2.437-2.601-3.893s-0.913-3.016-0.913-4.592 0.31-3.136 0.913-4.592c0.603-1.456 1.487-2.779 2.601-3.893s2.437-1.998 3.893-2.601c1.456-0.603 3.016-0.913 4.592-0.913s3.136 0.31 4.592 0.913c1.456 0.603 2.779 1.487 3.893 2.601s1.998 2.437 2.601 3.893 0.913 3.016 0.913 4.592c0 1.576-0.31 3.136-0.913 4.592s-1.487 2.779-2.601 3.893c-1.114 1.114-2.437 1.998-3.893 2.601s-3.016 0.913-4.592 0.913v0z"></path>
<path fill="none" stroke="#1e88e5" style="stroke: var(--color1, #1e88e5)" stroke-linejoin="miter" stroke-linecap="round" stroke-miterlimit="4" stroke-width="1.3333" d="M12 12l8 8"></path>
<path fill="none" stroke="#1e88e5" style="stroke: var(--color1, #1e88e5)" stroke-linejoin="miter" stroke-linecap="round" stroke-miterlimit="4" stroke-width="1.3333" d="M20 12l-8 8"></path>
</symbol>
<symbol id="icon-expand_right_light" viewBox="0 0 32 32">
<path fill="none" stroke="#1e88e5" style="stroke: var(--color1, #1e88e5)" stroke-linejoin="miter" stroke-linecap="butt" stroke-miterlimit="4" stroke-width="1.3333" d="M12 8l8 8-8 8"></path>
</symbol>
<symbol id="icon-expert_increasing" viewBox="0 0 32 32">
<path fill="none" stroke="#1e88e5" style="stroke: var(--color1, #1e88e5)" stroke-linejoin="miter" stroke-linecap="round" stroke-miterlimit="10" stroke-width="1.3333" d="M4 5.333v20.796c0 0.015 0.007 0.030 0.019 0.041s0.029 0.017 0.047 0.017h23.934"></path>
<path fill="#1e88e5" style="fill: var(--color1, #1e88e5)" d="M8.376 17.823h1.759c0.064 0 0.125 0.022 0.171 0.062s0.071 0.093 0.071 0.149v6.894h-2.247v-6.893c-0-0.028 0.006-0.056 0.018-0.082s0.030-0.049 0.053-0.069 0.050-0.035 0.080-0.046c0.030-0.010 0.062-0.016 0.094-0.015z"></path>
<path fill="#1e88e5" style="fill: var(--color1, #1e88e5)" d="M13.093 16.625h1.72c0.069 0 0.136 0.024 0.185 0.067s0.077 0.101 0.077 0.162v8.067h-2.247v-8.067c0-0.030 0.007-0.060 0.020-0.088s0.033-0.053 0.058-0.075c0.025-0.021 0.054-0.038 0.086-0.049s0.067-0.017 0.101-0.017z"></path>
<path fill="#1e88e5" style="fill: var(--color1, #1e88e5)" d="M17.825 14.937h1.668c0.076 0 0.149 0.026 0.203 0.073s0.084 0.111 0.084 0.177v9.735h-2.243v-9.735c0-0.033 0.008-0.066 0.022-0.096s0.036-0.058 0.063-0.081c0.027-0.023 0.059-0.042 0.094-0.054s0.073-0.019 0.11-0.019z"></path>
<path fill="#1e88e5" style="fill: var(--color1, #1e88e5)" d="M22.554 13.25h1.622c0.082 0 0.161 0.029 0.219 0.079s0.091 0.12 0.091 0.192v11.404h-2.247v-11.404c0-0.036 0.008-0.071 0.024-0.105s0.039-0.063 0.068-0.088c0.029-0.025 0.064-0.045 0.102-0.058s0.079-0.020 0.12-0.019z"></path>
<path fill="none" stroke="#1e88e5" style="stroke: var(--color1, #1e88e5)" stroke-linejoin="miter" stroke-linecap="round" stroke-miterlimit="10" stroke-width="0.6667" d="M8.172 14.936c0 0 12.394 0 15.647-7.624"></path>
<path fill="#1e88e5" style="fill: var(--color1, #1e88e5)" d="M24.217 6.021l0.132 3.688-1.175-1.247-1.82 0.273 2.863-2.714z"></path>
</symbol>
<symbol id="icon-eye_open" viewBox="0 0 32 32">
<path fill="none" stroke="#1e88e5" style="stroke: var(--color1, #1e88e5)" stroke-linejoin="miter" stroke-linecap="butt" stroke-miterlimit="4" stroke-width="1.3333" d="M20.667 16c0 2.577-2.089 4.667-4.667 4.667s-4.667-2.089-4.667-4.667c0-2.577 2.089-4.667 4.667-4.667s4.667 2.089 4.667 4.667z"></path>
<path fill="none" stroke="#1e88e5" style="stroke: var(--color1, #1e88e5)" stroke-linejoin="miter" stroke-linecap="butt" stroke-miterlimit="4" stroke-width="1.3333" d="M26.917 14.579c0.518 0.628 0.776 0.943 0.776 1.421s-0.259 0.793-0.776 1.421c-1.893 2.299-6.070 6.579-10.917 6.579s-9.024-4.28-10.917-6.579c-0.518-0.628-0.776-0.943-0.776-1.421s0.259-0.793 0.776-1.421c1.893-2.299 6.070-6.579 10.917-6.579s9.024 4.28 10.917 6.579z"></path>
</symbol>
<symbol id="icon-file" viewBox="0 0 32 32">
<path fill="none" stroke="#1e88e5" style="stroke: var(--color1, #1e88e5)" stroke-linejoin="miter" stroke-linecap="round" stroke-miterlimit="4" stroke-width="1.3333" d="M12.667 16.667h7.778"></path>
<path fill="none" stroke="#1e88e5" style="stroke: var(--color1, #1e88e5)" stroke-linejoin="miter" stroke-linecap="round" stroke-miterlimit="4" stroke-width="1.3333" d="M12.667 20h4.444"></path>
<path fill="none" stroke="#1e88e5" style="stroke: var(--color1, #1e88e5)" stroke-linejoin="miter" stroke-linecap="butt" stroke-miterlimit="4" stroke-width="1.3333" d="M8.957 7.456c-0.165 0.324-0.231 0.668-0.261 1.043-0.029 0.361-0.029 0.804-0.029 1.34v12.544c0 0.537 0 0.98 0.029 1.34 0.031 0.375 0.096 0.719 0.261 1.043 0.256 0.502 0.664 0.91 1.165 1.165 0.324 0.165 0.668 0.231 1.043 0.261 0.361 0.029 0.804 0.029 1.34 0.029h8.1c0.537 0 0.98 0 1.34-0.029 0.375-0.031 0.719-0.096 1.043-0.261 0.502-0.256 0.91-0.664 1.165-1.165 0.165-0.323 0.231-0.668 0.261-1.043 0.029-0.361 0.029-0.804 0.029-1.34v-8.835c0-0.023 0-0.046 0-0.068 0-0.423 0-0.743-0.074-1.052-0.065-0.272-0.173-0.532-0.319-0.771-0.166-0.27-0.392-0.497-0.691-0.796-0.016-0.016-0.032-0.032-0.048-0.048l-3.681-3.681c-0.016-0.016-0.032-0.032-0.048-0.048-0.299-0.299-0.525-0.526-0.796-0.692-0.239-0.146-0.499-0.254-0.771-0.319-0.308-0.074-0.628-0.074-1.052-0.074-0.022 0-0.045 0-0.068 0h-4.391c-0.537 0-0.98 0-1.34 0.029-0.375 0.031-0.719 0.096-1.043 0.261-0.502 0.256-0.91 0.664-1.165 1.165z"></path>
<path fill="none" stroke="#1e88e5" style="stroke: var(--color1, #1e88e5)" stroke-linejoin="miter" stroke-linecap="butt" stroke-miterlimit="4" stroke-width="1.3333" d="M17.109 6.667v3.467c0 1.12 0 1.68 0.218 2.108 0.192 0.376 0.498 0.682 0.874 0.874 0.428 0.218 0.988 0.218 2.108 0.218h3.467"></path>
</symbol>
<symbol id="icon-filter_alt_light" viewBox="0 0 32 32">
<path fill="#1e88e5" style="fill: var(--color1, #1e88e5)" d="M12.877 26.374v0zM19.544 24.152v0zM26.276 9.724v0zM20.391 15.609v0zM6.667 6h18.667v-1.333h-18.667v1.333zM6 8.781v-2.114h-1.333v2.114h1.333zM12.081 15.138l-5.886-5.886-0.943 0.943 5.886 5.886 0.943-0.943zM11.333 16.552v9.189h1.333v-9.189h-1.333zM11.333 25.742c0 0.91 0.892 1.553 1.755 1.265l-0.422-1.265h-1.333zM13.088 27.007l6.667-2.222-0.422-1.265-6.667 2.222 0.422 1.265zM19.755 24.784c0.545-0.181 0.912-0.691 0.912-1.265h-1.333l0.422 1.265zM20.667 23.519v-6.967h-1.333v6.967h1.333zM25.805 9.252l-5.886 5.886 0.943 0.943 5.886-5.886-0.943-0.943zM26 6.667v2.114h1.333v-2.114h-1.333zM26.748 10.195c0.375-0.375 0.586-0.884 0.586-1.414h-1.333c0 0.177-0.070 0.346-0.195 0.471l0.943 0.943zM20.667 16.552c0-0.177 0.070-0.346 0.195-0.471l-0.943-0.943c-0.375 0.375-0.586 0.884-0.586 1.414h1.333zM11.138 16.081c0.125 0.125 0.195 0.295 0.195 0.471h1.333c0-0.53-0.211-1.039-0.586-1.414l-0.943 0.943zM4.667 8.781c0 0.53 0.211 1.039 0.586 1.414l0.943-0.943c-0.125-0.125-0.195-0.295-0.195-0.471h-1.333zM25.333 6c0.368 0 0.667 0.298 0.667 0.667h1.333c0-1.105-0.895-2-2-2v1.333zM6.667 4.667c-1.105 0-2 0.895-2 2h1.333c0-0.368 0.298-0.667 0.667-0.667v-1.333z"></path>
</symbol>
<symbol id="icon-group" viewBox="0 0 32 32">
<path fill="none" stroke="#1e88e5" style="stroke: var(--color1, #1e88e5)" stroke-linejoin="miter" stroke-linecap="round" stroke-miterlimit="4" stroke-width="1.3333" d="M18 12c0 1.105-0.895 2-2 2s-2-0.895-2-2c0-1.105 0.895-2 2-2s2 0.895 2 2z"></path>
<path fill="none" stroke="#1e88e5" style="stroke: var(--color1, #1e88e5)" stroke-linejoin="miter" stroke-linecap="butt" stroke-miterlimit="4" stroke-width="1.3333" d="M20.935 11c0.265-0.459 0.702-0.795 1.214-0.932s1.058-0.065 1.518 0.2 0.795 0.702 0.932 1.214c0.137 0.512 0.065 1.058-0.2 1.518s-0.702 0.795-1.214 0.932c-0.512 0.137-1.058 0.065-1.518-0.2s-0.795-0.702-0.932-1.214-0.065-1.058 0.2-1.518v0z"></path>
<path fill="none" stroke="#1e88e5" style="stroke: var(--color1, #1e88e5)" stroke-linejoin="miter" stroke-linecap="butt" stroke-miterlimit="4" stroke-width="1.3333" d="M7.601 11c0.265-0.459 0.702-0.795 1.214-0.932s1.058-0.065 1.518 0.2c0.459 0.265 0.795 0.702 0.932 1.214s0.065 1.058-0.2 1.518c-0.265 0.459-0.702 0.795-1.214 0.932s-1.058 0.065-1.518-0.2c-0.459-0.265-0.795-0.702-0.932-1.214s-0.065-1.058 0.2-1.518v0z"></path>
<path fill="#1e88e5" style="fill: var(--color1, #1e88e5)" d="M27.152 20.683v0zM18.8 17.581l-0.388-0.542-0.71 0.507 0.676 0.552 0.422-0.516zM20.507 20.68v0zM26 21.333h-6.667v1.333h6.667v-1.333zM26.504 20.838c0.031 0.131-0.003 0.237-0.081 0.324-0.086 0.094-0.234 0.171-0.423 0.171v1.333c1.066 0 2.095-0.911 1.8-2.139l-1.297 0.311zM22 17.333c1.635 0 2.653 0.545 3.31 1.216 0.675 0.689 1.020 1.565 1.194 2.289l1.297-0.311c-0.205-0.855-0.633-1.987-1.538-2.911-0.923-0.943-2.292-1.616-4.262-1.616v1.333zM19.188 18.123c0.637-0.455 1.532-0.79 2.812-0.79v-1.333c-1.527 0-2.701 0.405-3.588 1.038l0.775 1.085zM18.379 18.097c0.871 0.711 1.286 1.815 1.476 2.72l1.305-0.274c-0.215-1.023-0.72-2.484-1.938-3.478l-0.843 1.033zM19.855 20.817c0.029 0.137-0.009 0.251-0.093 0.343-0.090 0.098-0.241 0.174-0.429 0.174v1.333c1.072 0 2.082-0.907 1.826-2.124l-1.305 0.274z"></path>
<path fill="#1e88e5" style="fill: var(--color1, #1e88e5)" d="M13.2 17.581l0.422 0.516 0.676-0.552-0.71-0.507-0.388 0.543zM4.848 20.683v0zM11.493 20.68v0zM10 17.333c1.28 0 2.175 0.334 2.812 0.79l0.775-1.085c-0.887-0.634-2.060-1.038-3.588-1.038v1.333zM5.496 20.838c0.173-0.724 0.519-1.6 1.194-2.289 0.657-0.671 1.675-1.216 3.31-1.216v-1.333c-1.97 0-3.339 0.673-4.262 1.616-0.905 0.924-1.333 2.056-1.538 2.911l1.297 0.311zM6 21.333c-0.188 0-0.337-0.077-0.423-0.171-0.078-0.087-0.112-0.193-0.081-0.324l-1.297-0.311c-0.294 1.229 0.734 2.139 1.8 2.139v-1.333zM12.667 21.333h-6.667v1.333h6.667v-1.333zM12.667 21.333c-0.188 0-0.339-0.076-0.429-0.174-0.084-0.091-0.122-0.205-0.093-0.343l-1.305-0.274c-0.256 1.217 0.754 2.124 1.826 2.124v-1.333zM12.145 20.817c0.19-0.905 0.606-2.009 1.476-2.72l-0.843-1.033c-1.218 0.995-1.723 2.456-1.938 3.478l1.305 0.274z"></path>
<path fill="none" stroke="#1e88e5" style="stroke: var(--color1, #1e88e5)" stroke-linejoin="miter" stroke-linecap="round" stroke-miterlimit="4" stroke-width="1.3333" d="M16 16.667c3.152 0 4.175 2.433 4.507 4.013 0.151 0.721-0.437 1.32-1.174 1.32h-6.667c-0.736 0-1.325-0.6-1.174-1.32 0.332-1.579 1.355-4.013 4.507-4.013z"></path>
<path fill="none" stroke="#1e88e5" style="stroke: var(--color1, #1e88e5)" stroke-linejoin="miter" stroke-linecap="round" stroke-miterlimit="4" stroke-width="1.3333" d="M24.667 28.667h2c1.105 0 2-0.895 2-2v-2"></path>
<path fill="none" stroke="#1e88e5" style="stroke: var(--color1, #1e88e5)" stroke-linejoin="miter" stroke-linecap="round" stroke-miterlimit="4" stroke-width="1.3333" d="M24.667 3.333h2c1.105 0 2 0.895 2 2v2"></path>
<path fill="none" stroke="#1e88e5" style="stroke: var(--color1, #1e88e5)" stroke-linejoin="miter" stroke-linecap="round" stroke-miterlimit="4" stroke-width="1.3333" d="M7.333 28.667h-2c-1.105 0-2-0.895-2-2v-2"></path>
<path fill="none" stroke="#1e88e5" style="stroke: var(--color1, #1e88e5)" stroke-linejoin="miter" stroke-linecap="round" stroke-miterlimit="4" stroke-width="1.3333" d="M7.333 3.333h-2c-1.105 0-2 0.895-2 2v2"></path>
</symbol>
<symbol id="icon-group_add" viewBox="0 0 32 32">
<path fill="none" stroke="#1e88e5" style="stroke: var(--color1, #1e88e5)" stroke-linejoin="miter" stroke-linecap="round" stroke-miterlimit="4" stroke-width="1.3333" d="M14 10.667c0 1.841-1.492 3.333-3.333 3.333s-3.333-1.492-3.333-3.333c0-1.841 1.492-3.333 3.333-3.333s3.333 1.492 3.333 3.333z"></path>
<path fill="none" stroke="#1e88e5" style="stroke: var(--color1, #1e88e5)" stroke-linejoin="miter" stroke-linecap="butt" stroke-miterlimit="4" stroke-width="1.3333" d="M15.691 11.333c0.354-0.613 0.936-1.059 1.619-1.242s1.411-0.087 2.023 0.266 1.059 0.936 1.243 1.619c0.183 0.683 0.087 1.411-0.266 2.024s-0.936 1.059-1.619 1.243c-0.683 0.183-1.411 0.087-2.023-0.266s-1.059-0.936-1.243-1.619c-0.183-0.683-0.087-1.411 0.266-2.023v0z"></path>
<path fill="#1e88e5" style="fill: var(--color1, #1e88e5)" d="M17.874 23.343v0zM16.667 24h-12v1.333h12v-1.333zM4.118 23.448c0.173-1.085 0.589-2.628 1.567-3.886 0.954-1.227 2.473-2.228 4.981-2.228v-1.333c-2.932 0-4.835 1.201-6.034 2.743-1.175 1.511-1.642 3.307-1.831 4.495l1.317 0.21zM10.667 17.333c2.508 0 4.028 1.001 4.981 2.228 0.978 1.258 1.394 2.801 1.567 3.886l1.317-0.21c-0.189-1.188-0.657-2.983-1.831-4.495-1.199-1.543-3.102-2.743-6.034-2.743v1.333zM4.667 24c-0.389 0-0.591-0.29-0.549-0.552l-1.317-0.21c-0.19 1.192 0.782 2.096 1.866 2.096v-1.333zM16.667 25.333c1.084 0 2.056-0.904 1.866-2.096l-1.317 0.21c0.042 0.263-0.16 0.552-0.549 0.552v1.333z"></path>
<path fill="#1e88e5" style="fill: var(--color1, #1e88e5)" d="M23.062 23.222v0zM15.734 18.641l-0.357-0.563-0.687 0.436 0.562 0.588 0.482-0.461zM17.874 23.343v0zM21.86 24h-5.193v1.333h5.193v-1.333zM22.415 23.384c0.072 0.287-0.139 0.616-0.555 0.616v1.333c1.161 0 2.16-1.030 1.849-2.274l-1.293 0.324zM18 18.667c1.37 0 2.333 0.67 3.038 1.609 0.719 0.958 1.141 2.165 1.378 3.108l1.293-0.324c-0.255-1.018-0.732-2.421-1.605-3.584-0.887-1.182-2.21-2.142-4.104-2.142v1.333zM16.091 19.204c0.52-0.33 1.144-0.537 1.909-0.537v-1.333c-1.024 0-1.895 0.283-2.623 0.745l0.714 1.126zM15.252 19.102c1.263 1.32 1.768 3.118 1.963 4.346l1.317-0.21c-0.213-1.333-0.778-3.449-2.317-5.057l-0.963 0.922zM17.215 23.448c0.042 0.263-0.16 0.552-0.549 0.552v1.333c1.084 0 2.056-0.904 1.865-2.096l-1.317 0.21z"></path>
<path fill="none" stroke="#1e88e5" style="stroke: var(--color1, #1e88e5)" stroke-linejoin="miter" stroke-linecap="round" stroke-miterlimit="4" stroke-width="0.6667" d="M22 7h5.333c0.184 0 0.333 0.149 0.333 0.333s-0.149 0.333-0.333 0.333h-5.333c-0.184 0-0.333-0.149-0.333-0.333s0.149-0.333 0.333-0.333z"></path>
<path fill="none" stroke="#1e88e5" style="stroke: var(--color1, #1e88e5)" stroke-linejoin="miter" stroke-linecap="round" stroke-miterlimit="4" stroke-width="0.6667" d="M25 4.667v5.333c0 0.184-0.149 0.333-0.333 0.333s-0.333-0.149-0.333-0.333v-5.333c0-0.184 0.149-0.333 0.333-0.333s0.333 0.149 0.333 0.333z"></path>
</symbol>
<symbol id="icon-hide" viewBox="0 0 32 32">
<path fill="none" stroke="#1e88e5" style="stroke: var(--color1, #1e88e5)" stroke-linejoin="round" stroke-linecap="round" stroke-miterlimit="4" stroke-width="1.3333" d="M26 5.662v20.677M20.646 16h-14.646M6 16l6.031-6.031M6 16l6.031 6.031"></path>
</symbol>
<symbol id="icon-home" viewBox="0 0 32 32">
<path fill="none" stroke="#1e88e5" style="stroke: var(--color1, #1e88e5)" stroke-linejoin="miter" stroke-linecap="butt" stroke-miterlimit="4" stroke-width="1.3333" d="M6.667 15.712c0-1.81 0-2.716 0.366-3.511s1.053-1.385 2.428-2.563l1.333-1.143c2.484-2.13 3.727-3.194 5.206-3.194s2.722 1.065 5.206 3.194l1.333 1.143c1.375 1.178 2.062 1.767 2.428 2.563s0.366 1.701 0.366 3.511v5.654c0 2.514 0 3.771-0.781 4.552s-2.038 0.781-4.552 0.781h-8c-2.514 0-3.771 0-4.552-0.781s-0.781-2.038-0.781-4.552v-5.654z"></path>
<path fill="none" stroke="#1e88e5" style="stroke: var(--color1, #1e88e5)" stroke-linejoin="round" stroke-linecap="round" stroke-miterlimit="4" stroke-width="1.3333" d="M19.333 26.699v-6.667c0-0.736-0.597-1.333-1.333-1.333h-4c-0.736 0-1.333 0.597-1.333 1.333v6.667"></path>
</symbol>
<symbol id="icon-import" viewBox="0 0 32 32">
<path fill="#1e88e5" style="fill: var(--color1, #1e88e5)" d="M16 18.667l-0.471 0.471 0.471 0.471 0.471-0.471-0.471-0.471zM16.667 6.667c0-0.368-0.299-0.667-0.667-0.667s-0.667 0.298-0.667 0.667h1.333zM8.862 12.471l6.667 6.667 0.943-0.943-6.667-6.667-0.943 0.943zM16.471 19.138l6.667-6.667-0.943-0.943-6.667 6.667 0.943 0.943zM16.667 18.667v-12h-1.333v12h1.333z"></path>
<path fill="none" stroke="#1e88e5" style="stroke: var(--color1, #1e88e5)" stroke-linejoin="miter" stroke-linecap="butt" stroke-miterlimit="4" stroke-width="1.3333" d="M6.667 21.333v1.333c0 1.473 1.194 2.667 2.667 2.667h13.333c1.473 0 2.667-1.194 2.667-2.667v-1.333"></path>
</symbol>
<symbol id="icon-info_light" viewBox="0 0 32 32">
<path fill="none" stroke="#1e88e5" style="stroke: var(--color1, #1e88e5)" stroke-linejoin="miter" stroke-linecap="butt" stroke-miterlimit="4" stroke-width="1.3333" d="M28 16c0 6.627-5.373 12-12 12s-12-5.373-12-12c0-6.627 5.373-12 12-12s12 5.373 12 12z"></path>
<path fill="#1e88e5" style="fill: var(--color1, #1e88e5)" d="M16 10.8c0.442 0 0.8-0.358 0.8-0.8s-0.358-0.8-0.8-0.8c-0.442 0-0.8 0.358-0.8 0.8s0.358 0.8 0.8 0.8z"></path>
<path fill="none" stroke="#1e88e5" style="stroke: var(--color1, #1e88e5)" stroke-linejoin="miter" stroke-linecap="butt" stroke-miterlimit="4" stroke-width="1.3333" d="M16 22.667v-9.333"></path>
</symbol>
<symbol id="icon-Landings-illustrations3" viewBox="0 0 39 32">
<path fill="#002652" style="fill: var(--color1, #002652)" opacity="0.8" d="M38.358 23.509v-1.705c-0-0.011-0.003-0.022-0.008-0.031s-0.013-0.017-0.023-0.023c-0.009-0.006-0.020-0.009-0.031-0.009s-0.022 0.002-0.031 0.008l-1.719 0.934-2.744 1.358c-12.837 6.139-12.839 5.925-13.364 6.129l-18.025-4.514-1.955-0.804v1.732c-0.016 0.249 0.445 0.543 1.281 0.763l16.704 4.399c1.22 0.321 2.697 0.343 3.294 0.050l16.455-8.072c0.103-0.050 0.158-0.111 0.166-0.177 0.001-0.013 0.001-0.025 0-0.038z"></path>
<path fill="#2888ff" style="fill: var(--color2, #2888ff)" opacity="0.8" d="M18.444 30.002l-16.705-4.399c-1.22-0.321-1.641-0.8-0.946-1.067l19.15-7.362c0.522-0.202 1.791-0.139 2.839 0.136l14.329 3.773c1.047 0.276 1.533 0.676 1.084 0.896l-16.458 8.072c-0.596 0.292-2.073 0.271-3.294-0.050z"></path>
<path fill="#53a0ff" style="fill: var(--color3, #53a0ff)" opacity="0.8" d="M18.606 29.769l-16.236-4.276c-0.925-0.243-1.247-0.606-0.724-0.809l18.85-7.306c0.394-0.157 1.361-0.107 2.159 0.103l14 3.687c0.794 0.213 1.163 0.515 0.821 0.686l-16.369 7.953c-0.455 0.223-1.575 0.206-2.5-0.038z"></path>
<path fill="#dbebff" style="fill: var(--color4, #dbebff)" opacity="0.8" d="M1.519 24.609l18.505-7.174 17 4.477-16.070 7.815-19.435-5.118z"></path>
<path fill="#a9cfff" style="fill: var(--color5, #a9cfff)" opacity="0.8" d="M17.564 6.602c0-1.415-1.149-2.562-2.566-2.562s-2.566 1.147-2.566 2.562v1.413c0 1.415 1.149 2.562 2.566 2.562s2.566-1.147 2.566-2.562v-1.413z"></path>
<path fill="#a9cfff" style="fill: var(--color5, #a9cfff)" opacity="0.8" d="M13.327 10.951c0 0-2.909 1.102-3.483 1.61s-0.818 1.372-0.818 2.41c0 0.33 0 0.741 0 1.146 0 0.95 0.42 1.125 1.723 1.72 3.096 1.164 5.836 1.186 8.575 0 1.057-0.482 1.723-0.77 1.723-1.72v-1.902c0 0-0.079-1.558-1.775-2.147l-2.511-1.116c0 0-0.431 1.637-1.724 1.595 0.001-0.002-1.227 0.136-1.71-1.597z"></path>
<path fill="#a9cfff" style="fill: var(--color5, #a9cfff)" opacity="0.8" d="M32.374 6.602c0-1.415-1.149-2.562-2.566-2.562s-2.566 1.147-2.566 2.562v1.413c0 1.415 1.149 2.562 2.566 2.562s2.566-1.147 2.566-2.562v-1.413z"></path>
<path fill="#a9cfff" style="fill: var(--color5, #a9cfff)" opacity="0.8" d="M28.138 10.951c0 0-2.91 1.102-3.483 1.61s-0.818 1.372-0.818 2.41c0 0.33 0 0.741 0 1.146 0 0.95 0.42 1.125 1.723 1.72 3.096 1.164 5.836 1.186 8.575 0 1.057-0.482 1.723-0.77 1.723-1.72v-1.902c0 0-0.079-1.558-1.775-2.147l-2.511-1.116c0 0-0.431 1.637-1.724 1.595 0.001-0.002-1.227 0.136-1.71-1.597z"></path>
<path fill="#75b3ff" style="fill: var(--color6, #75b3ff)" opacity="0.8" d="M26.415 4.009c0-2.214-1.798-4.009-4.015-4.009s-4.015 1.795-4.015 4.009v2.212c0 2.214 1.798 4.009 4.015 4.009s4.015-1.795 4.015-4.009v-2.212z"></path>
<path fill="#75b3ff" style="fill: var(--color6, #75b3ff)" opacity="0.8" d="M29.090 12.563l-3.93-1.746c0 0-0.675 2.562-2.698 2.495 0 0-1.922 0.217-2.678-2.495 0 0-4.553 1.727-5.451 2.52s-1.28 2.147-1.279 3.771c0 0.517 0 1.159 0 1.795 0 1.487 0.657 1.761 2.697 2.692 1.735 0.65 3.391 1.072 5.008 1.26 0.249 0.524 0.538 1.689-1.047 2.749 0 0 3.922-1.098 4.57-2.711 1.688-0.176 3.338-0.615 4.89-1.299 1.656-0.756 2.697-1.206 2.697-2.693v-2.979c0 0-0.127-2.438-2.779-3.358z"></path>
<path fill="none" opacity="0.8" stroke="#e1f5ff" style="stroke: var(--color7, #e1f5ff)" stroke-linejoin="round" stroke-linecap="round" stroke-miterlimit="4" stroke-width="0.5989" d="M20.065 18.389h1.005v-2.090c0.005-0.361-0.057-0.721-0.183-1.060-0.327-0.844-0.966-1.376-2.042-1.472"></path>
<path fill="none" opacity="0.8" stroke="#e1f5ff" style="stroke: var(--color7, #e1f5ff)" stroke-linejoin="round" stroke-linecap="round" stroke-miterlimit="4" stroke-width="0.5989" d="M18.779 11.319v2.441c-1.076 0.096-1.715 0.63-2.042 1.472-0.127 0.34-0.191 0.701-0.186 1.064v2.094h1.007"></path>
<path fill="none" opacity="0.8" stroke="#e1f5ff" style="stroke: var(--color7, #e1f5ff)" stroke-linejoin="bevel" stroke-linecap="round" stroke-miterlimit="4" stroke-width="0.5989" d="M26.396 11.319v1.84"></path>
<path fill="none" opacity="0.8" stroke="#e1f5ff" style="stroke: var(--color7, #e1f5ff)" stroke-linejoin="bevel" stroke-linecap="round" stroke-miterlimit="4" stroke-width="0.5989" d="M26.396 14.697c0.417 0 0.755-0.337 0.755-0.754s-0.338-0.754-0.755-0.754c-0.417 0-0.755 0.337-0.755 0.754s0.338 0.754 0.755 0.754z"></path>
<path fill="#93c3ff" style="fill: var(--color8, #93c3ff)" opacity="0.8" d="M26.788 15.87c0.167 0 0.303 0.254 0.303 0.472s-0.136 0.39-0.303 0.39c-0.167 0-0.304-0.174-0.304-0.39s0.136-0.472 0.304-0.472z"></path>
<path fill="#93c3ff" style="fill: var(--color8, #93c3ff)" opacity="0.8" d="M25.927 15.87c0.167 0 0.303 0.254 0.303 0.472s-0.136 0.39-0.303 0.39c-0.167 0-0.303-0.174-0.303-0.39s0.136-0.472 0.303-0.472z"></path>
<path fill="#93c3ff" style="fill: var(--color8, #93c3ff)" opacity="0.8" d="M25.019 17.003c-0.071-0.177-0.040-0.433 0.102-0.49s0.341 0.108 0.412 0.285 0.014 0.368-0.128 0.424c-0.142 0.057-0.312-0.042-0.386-0.22z"></path>
<path fill="#93c3ff" style="fill: var(--color8, #93c3ff)" opacity="0.8" d="M27.695 17.003c-0.071 0.178-0.244 0.276-0.386 0.22s-0.199-0.246-0.128-0.424c0.071-0.178 0.27-0.341 0.412-0.285s0.172 0.313 0.102 0.49z"></path>
<path fill="#93c3ff" style="fill: var(--color8, #93c3ff)" opacity="0.8" d="M27.441 17.984c-0.038-0.144-0.105-0.28-0.196-0.398-0.2-0.284-0.522-0.572-0.888-0.572s-0.688 0.288-0.888 0.572c-0.091 0.119-0.157 0.254-0.196 0.398-0.018 0.073-0.021 0.148-0.007 0.222s0.043 0.143 0.086 0.204c0.044 0.060 0.106 0.103 0.178 0.124s0.148 0.017 0.217-0.011c0.079-0.038 0.144-0.115 0.232-0.122 0.081 0.006 0.158 0.038 0.218 0.093 0.045 0.041 0.103 0.063 0.163 0.063s0.119-0.022 0.163-0.063c0.060-0.055 0.137-0.087 0.218-0.093 0.088 0.007 0.152 0.084 0.232 0.122 0.069 0.027 0.145 0.031 0.217 0.011s0.134-0.064 0.178-0.124c0.042-0.062 0.070-0.132 0.083-0.205s0.009-0.149-0.010-0.221zM26.676 17.809c-0.044 0.072-0.098 0.137-0.162 0.193-0.030 0.028-0.061 0.054-0.093 0.079-0.019 0.013-0.041 0.021-0.064 0.021s-0.045-0.007-0.064-0.021c-0.032-0.024-0.063-0.050-0.093-0.079-0.062-0.056-0.115-0.121-0.158-0.193-0.037-0.061-0.050-0.133-0.035-0.202 0.007-0.034 0.024-0.064 0.048-0.088s0.055-0.041 0.089-0.048c0.042-0 0.083 0.009 0.12 0.027s0.070 0.045 0.096 0.078c0.025-0.033 0.058-0.060 0.096-0.078s0.079-0.028 0.12-0.027c0.034 0.007 0.064 0.024 0.089 0.048s0.041 0.055 0.048 0.088c0.013 0.070-0 0.142-0.039 0.202z"></path>
</symbol>
<symbol id="icon-Landings-illustrations2" viewBox="0 0 39 32">
<path fill="#002652" style="fill: var(--color1, #002652)" opacity="0.8" d="M38.915 21.459v-1.75c-0-0.011-0.003-0.022-0.009-0.032s-0.014-0.018-0.023-0.023c-0.010-0.006-0.021-0.009-0.032-0.009s-0.022 0.002-0.032 0.008l-1.765 0.959-2.817 1.394c-13.18 6.303-13.183 6.084-13.721 6.293l-18.507-4.634-2.007-0.825v1.779c-0.016 0.255 0.457 0.557 1.315 0.783l17.151 4.516c1.253 0.33 2.77 0.352 3.382 0.052l16.896-8.288c0.106-0.052 0.162-0.114 0.17-0.182 0.001-0.013 0.001-0.026 0-0.039z"></path>
<path fill="#2888ff" style="fill: var(--color2, #2888ff)" opacity="0.8" d="M18.468 28.128l-17.152-4.516c-1.253-0.33-1.685-0.821-0.972-1.096l19.663-7.559c0.536-0.207 1.839-0.143 2.915 0.14l14.712 3.874c1.075 0.283 1.574 0.694 1.113 0.92l-16.898 8.288c-0.612 0.3-2.129 0.278-3.382-0.052z"></path>
<path fill="#53a0ff" style="fill: var(--color3, #53a0ff)" opacity="0.8" d="M18.634 27.889l-16.67-4.39c-0.95-0.25-1.28-0.623-0.743-0.831l19.354-7.501c0.405-0.162 1.398-0.11 2.216 0.106l14.375 3.785c0.815 0.219 1.194 0.529 0.843 0.704l-16.807 8.166c-0.467 0.229-1.617 0.211-2.567-0.039z"></path>
<path fill="#dbebff" style="fill: var(--color4, #dbebff)" opacity="0.8" d="M1.090 22.59l19-7.366 17.455 4.596-16.5 8.024-19.955-5.255z"></path>
<path fill="#e1f5ff" style="fill: var(--color7, #e1f5ff)" opacity="0.6400000000000001" d="M15.157 3.436h9.929c0 0 0 3.062-0.627 4.018s-3.962 3.767-3.962 3.767 2.649 2.058 3.464 2.951c0.814 0.894 1.167 4.569 1.122 4.841s-9.929 0-9.929 0c0 0 0.198-4.215 1.484-5.236s3.167-2.492 3.167-2.492l-1.225-1.113c-0.226-0.205-0.472-0.388-0.734-0.544-0.63-0.375-2.023-1.447-2.554-3.787-0.221-0.964-0.135-2.404-0.135-2.404z"></path>
<path fill="#335175" style="fill: var(--color9, #335175)" opacity="0.8" d="M15.072 19.040v-0c0-1.643 0.064-2.816 0.438-3.783 0.37-0.959 1.051-1.73 2.318-2.55v0l0.001-0.001c0.626-0.415 1.217-0.88 1.766-1.392l0.102-0.095-0.102-0.095c-0.549-0.511-1.139-0.976-1.765-1.391l-0.001-0.001c-1.266-0.82-1.947-1.59-2.317-2.55-0.374-0.967-0.439-2.14-0.439-3.784 0-0.030 0.012-0.059 0.034-0.081s0.051-0.034 0.081-0.034h9.852c0.031 0 0.060 0.012 0.082 0.034s0.034 0.051 0.034 0.081c0 1.643-0.064 2.816-0.438 3.783-0.371 0.959-1.051 1.73-2.318 2.55l-0.001 0.001c-0.606 0.4-1.163 0.869-1.66 1.397l-0.084 0.089 0.084 0.089c0.497 0.528 1.054 0.997 1.66 1.396l0.001 0.001c1.266 0.82 1.947 1.59 2.317 2.55 0.374 0.968 0.439 2.14 0.439 3.783v0.001c0 0.015-0.003 0.030-0.009 0.044s-0.014 0.027-0.025 0.038c-0.011 0.011-0.024 0.019-0.038 0.025s-0.029 0.009-0.044 0.009h-9.853c-0.015 0-0.030-0.003-0.044-0.009s-0.027-0.014-0.037-0.025c-0.011-0.011-0.019-0.023-0.025-0.037s-0.009-0.029-0.009-0.044zM15.743 15.274c-0.363 0.893-0.433 1.973-0.44 3.465l-0.186 0.185h9.808l-0-0.13c-0.006-1.521-0.073-2.616-0.44-3.52-0.37-0.912-1.039-1.616-2.211-2.375-0.688-0.451-1.313-0.991-1.859-1.606-0.017-0.020-0.026-0.046-0.026-0.073s0.009-0.052 0.026-0.073c0.546-0.615 1.172-1.155 1.861-1.606 1.171-0.758 1.84-1.462 2.211-2.375 0.367-0.905 0.434-2 0.44-3.521l0-0.13h-9.624l0.001 0.13c0.006 1.521 0.073 2.616 0.441 3.521 0.37 0.912 1.039 1.616 2.21 2.374 0.712 0.471 1.378 1.007 1.99 1.601 0.021 0.022 0.033 0.050 0.033 0.081s-0.012 0.059-0.033 0.081c-0.612 0.593-1.279 1.129-1.99 1.599-1.171 0.757-1.84 1.46-2.21 2.371z"></path>
<path fill="#2888ff" style="fill: var(--color2, #2888ff)" opacity="0.8" d="M18.416 9.436c0.615 0.404 1.198 0.854 1.745 1.347 0.503-0.505 1.057-0.956 1.653-1.347 0.867-0.561 1.406-1.055 1.739-1.683h-6.876c0.334 0.628 0.872 1.122 1.739 1.683z"></path>
<path fill="#2888ff" style="fill: var(--color2, #2888ff)" opacity="0.8" d="M21.814 17.115c-0.615-0.404-1.198-0.854-1.744-1.347-0.503 0.504-1.058 0.956-1.654 1.347-0.866 0.561-1.405 1.055-1.739 1.679h6.876c-0.337-0.624-0.872-1.118-1.74-1.679z"></path>
<path fill="#a9cfff" style="fill: var(--color5, #a9cfff)" opacity="0.8" d="M25.683 18.598h-11.136c-0.228 0-0.412 0.184-0.412 0.412v2.335c0 0.227 0.185 0.412 0.412 0.412h11.136c0.228 0 0.412-0.184 0.412-0.412v-2.335c0-0.227-0.185-0.412-0.412-0.412z"></path>
<path fill="#a9cfff" style="fill: var(--color5, #a9cfff)" opacity="0.8" d="M25.682 1.829h-11.137c-0.228 0-0.412 0.184-0.412 0.412v2.335c0 0.227 0.185 0.412 0.412 0.412h11.137c0.228 0 0.412-0.184 0.412-0.412v-2.335c0-0.227-0.185-0.412-0.412-0.412z"></path>
<path fill="#53a0ff" style="fill: var(--color3, #53a0ff)" opacity="0.8" d="M26.576 20.178h-12.923c-0.152 0-0.275 0.123-0.275 0.274v1.030c0 0.152 0.123 0.274 0.275 0.274h12.923c0.152 0 0.275-0.123 0.275-0.274v-1.030c0-0.152-0.123-0.274-0.275-0.274z"></path>
<path fill="#53a0ff" style="fill: var(--color3, #53a0ff)" opacity="0.8" d="M26.576 1.829h-12.923c-0.152 0-0.275 0.123-0.275 0.274v1.030c0 0.152 0.123 0.274 0.275 0.274h12.923c0.152 0 0.275-0.123 0.275-0.274v-1.030c0-0.152-0.123-0.274-0.275-0.274z"></path>
</symbol>
<symbol id="icon-Landings-illustrations" viewBox="0 0 39 32">
<path fill="#002652" style="fill: var(--color1, #002652)" opacity="0.8" d="M38.792 22.086v-1.745c-0-0.011-0.003-0.022-0.009-0.032s-0.014-0.018-0.023-0.023c-0.010-0.006-0.020-0.009-0.032-0.009s-0.022 0.002-0.032 0.008l-1.759 0.956-2.808 1.389c-13.139 6.283-13.141 6.065-13.678 6.273l-18.449-4.62-2.001-0.823v1.773c-0.016 0.255 0.455 0.555 1.311 0.781l17.097 4.502c1.249 0.329 2.761 0.351 3.371 0.052l16.842-8.262c0.106-0.052 0.161-0.114 0.169-0.181 0.001-0.013 0.001-0.026 0-0.039z"></path>
<path fill="#2888ff" style="fill: var(--color2, #2888ff)" opacity="0.8" d="M18.409 28.733l-17.098-4.502c-1.249-0.329-1.68-0.819-0.969-1.092l19.601-7.535c0.534-0.206 1.833-0.143 2.906 0.139l14.666 3.862c1.071 0.282 1.569 0.692 1.11 0.917l-16.845 8.262c-0.61 0.299-2.122 0.277-3.371-0.052z"></path>
<path fill="#53a0ff" style="fill: var(--color3, #53a0ff)" opacity="0.8" d="M18.574 28.495l-16.618-4.376c-0.947-0.249-1.276-0.621-0.741-0.829l19.293-7.478c0.404-0.161 1.393-0.11 2.209 0.106l14.329 3.774c0.813 0.218 1.191 0.527 0.84 0.702l-16.754 8.14c-0.466 0.228-1.612 0.21-2.559-0.039z"></path>
<path fill="#dbebff" style="fill: var(--color4, #dbebff)" opacity="0.8" d="M1.086 23.214l18.94-7.342 17.4 4.582-16.448 7.998-19.892-5.237z"></path>
<path fill="#93c3ff" style="fill: var(--color8, #93c3ff)" opacity="0.8" d="M6.486 1.143h10.712c0.987 0 1.933 0.391 2.631 1.088s1.090 1.642 1.090 2.627v10.599c0 0.985-0.392 1.931-1.090 2.628s-1.644 1.089-2.631 1.089h-1.891c-0.646 1.306-0.895 3.047 1.274 4.243 0 0-5.689-1.427-6.726-4.243h-3.369c-0.987 0-1.934-0.392-2.632-1.088s-1.090-1.642-1.090-2.628v-10.599c0-0.488 0.096-0.971 0.283-1.422s0.461-0.86 0.807-1.205c0.346-0.345 0.756-0.619 1.208-0.805s0.936-0.283 1.424-0.283z"></path>
<path fill="#2888ff" style="fill: var(--color2, #2888ff)" opacity="0.8" d="M8.607 11.785c0.809 0 1.465-0.655 1.465-1.463s-0.656-1.463-1.465-1.463-1.465 0.655-1.465 1.463c0 0.808 0.656 1.463 1.465 1.463z"></path>
<path fill="#2888ff" style="fill: var(--color2, #2888ff)" opacity="0.8" d="M12.458 11.785c0.809 0 1.465-0.655 1.465-1.463s-0.656-1.463-1.465-1.463-1.465 0.655-1.465 1.463c0 0.808 0.656 1.463 1.465 1.463z"></path>
<path fill="#2888ff" style="fill: var(--color2, #2888ff)" opacity="0.8" d="M16.308 11.785c0.809 0 1.465-0.655 1.465-1.463s-0.656-1.463-1.465-1.463-1.465 0.655-1.465 1.463c0 0.808 0.656 1.463 1.465 1.463z"></path>
<path fill="#93c3ff" style="fill: var(--color8, #93c3ff)" opacity="0.8" d="M35.827 9.111h-10.951c-1.211 0-2.19 1.010-2.19 2.257v6.432c0 1.245 0.98 2.257 2.19 2.257h1.112c0.38 0.793 0.527 1.85-0.75 2.579 0 0 3.348-0.866 3.955-2.579h6.631c1.211 0 2.19-1.010 2.19-2.257v-6.432c0.002-1.245-0.978-2.257-2.188-2.257z"></path>
<path fill="#dbebff" style="fill: var(--color4, #dbebff)" opacity="0.8" d="M28.073 15.586c0.513 0 0.929-0.415 0.929-0.926s-0.416-0.926-0.929-0.926c-0.513 0-0.929 0.415-0.929 0.926s0.416 0.926 0.929 0.926z"></path>
<path fill="#dbebff" style="fill: var(--color4, #dbebff)" opacity="0.8" d="M30.515 15.586c0.513 0 0.929-0.415 0.929-0.926s-0.416-0.926-0.929-0.926c-0.513 0-0.929 0.415-0.929 0.926s0.416 0.926 0.929 0.926z"></path>
<path fill="#dbebff" style="fill: var(--color4, #dbebff)" opacity="0.8" d="M32.959 15.586c0.513 0 0.929-0.415 0.929-0.926s-0.416-0.926-0.929-0.926c-0.513 0-0.929 0.415-0.929 0.926s0.416 0.926 0.929 0.926z"></path>
</symbol>
<symbol id="icon-list" viewBox="0 0 32 32">
<path fill="none" stroke="#1e88e5" style="stroke: var(--color1, #1e88e5)" stroke-linejoin="miter" stroke-linecap="butt" stroke-miterlimit="4" stroke-width="1.3333" d="M9.333 5.333h13.333c1.473 0 2.667 1.194 2.667 2.667v17.333c0 1.473-1.194 2.667-2.667 2.667h-13.333c-1.473 0-2.667-1.194-2.667-2.667v-17.333c0-1.473 1.194-2.667 2.667-2.667z"></path>
<path fill="none" stroke="#1e88e5" style="stroke: var(--color1, #1e88e5)" stroke-linejoin="miter" stroke-linecap="round" stroke-miterlimit="4" stroke-width="1.3333" d="M12 12h8"></path>
<path fill="none" stroke="#1e88e5" style="stroke: var(--color1, #1e88e5)" stroke-linejoin="miter" stroke-linecap="round" stroke-miterlimit="4" stroke-width="1.3333" d="M12 17.333h8"></path>
<path fill="none" stroke="#1e88e5" style="stroke: var(--color1, #1e88e5)" stroke-linejoin="miter" stroke-linecap="round" stroke-miterlimit="4" stroke-width="1.3333" d="M12 22.667h5.333"></path>
</symbol>
<symbol id="icon-lock" viewBox="0 0 32 32">
<path fill="#1e88e5" style="fill: var(--color1, #1e88e5)" d="M18.667 20c0 1.473-1.194 2.667-2.667 2.667s-2.667-1.194-2.667-2.667c0-1.473 1.194-2.667 2.667-2.667s2.667 1.194 2.667 2.667z"></path>
<path fill="none" stroke="#1e88e5" style="stroke: var(--color1, #1e88e5)" stroke-linejoin="miter" stroke-linecap="butt" stroke-miterlimit="4" stroke-width="1.3333" d="M6 18c0-2.514 0-3.771 0.781-4.552s2.038-0.781 4.552-0.781h9.333c2.514 0 3.771 0 4.552 0.781s0.781 2.038 0.781 4.552v1.333c0 3.771 0 5.657-1.172 6.828s-3.057 1.172-6.828 1.172h-4c-3.771 0-5.657 0-6.828-1.172s-1.172-3.057-1.172-6.828v-1.333z"></path>
<path fill="none" stroke="#1e88e5" style="stroke: var(--color1, #1e88e5)" stroke-linejoin="miter" stroke-linecap="round" stroke-miterlimit="4" stroke-width="1.3333" d="M22 12.667v-2c0-3.314-2.686-6-6-6v0c-3.314 0-6 2.686-6 6v2"></path>
</symbol>
<symbol id="icon-message_light" viewBox="0 0 32 32">
<path fill="none" stroke="#1e88e5" style="stroke: var(--color1, #1e88e5)" stroke-linejoin="miter" stroke-linecap="butt" stroke-miterlimit="4" stroke-width="1.3333" d="M8 8h16c1.473 0 2.667 1.194 2.667 2.667v10.667c0 1.473-1.194 2.667-2.667 2.667h-16c-1.473 0-2.667-1.194-2.667-2.667v-10.667c0-1.473 1.194-2.667 2.667-2.667z"></path>
<path fill="none" stroke="#1e88e5" style="stroke: var(--color1, #1e88e5)" stroke-linejoin="miter" stroke-linecap="butt" stroke-miterlimit="4" stroke-width="1.3333" d="M5.333 12l9.474 4.737c0.751 0.375 1.634 0.375 2.385 0l9.474-4.737"></path>
</symbol>
<symbol id="icon-name-search" viewBox="0 0 32 32">
<path fill="none" stroke="#1e88e5" style="stroke: var(--color1, #1e88e5)" stroke-linejoin="miter" stroke-linecap="butt" stroke-miterlimit="4" stroke-width="1.3333" d="M22.667 14.667c0 4.418-3.582 8-8 8s-8-3.582-8-8c0-4.418 3.582-8 8-8s8 3.582 8 8z"></path>
<path fill="none" stroke="#1e88e5" style="stroke: var(--color1, #1e88e5)" stroke-linejoin="miter" stroke-linecap="round" stroke-miterlimit="4" stroke-width="1.3333" d="M14.667 10.667c-0.525 0-1.045 0.103-1.531 0.304s-0.926 0.496-1.298 0.867-0.666 0.812-0.867 1.298c-0.201 0.485-0.304 1.005-0.304 1.531"></path>
<path fill="none" stroke="#1e88e5" style="stroke: var(--color1, #1e88e5)" stroke-linejoin="miter" stroke-linecap="round" stroke-miterlimit="4" stroke-width="1.3333" d="M26.667 26.667l-4-4"></path>
</symbol>
<symbol id="icon-open_menu" viewBox="0 0 32 32">
<path fill="none" stroke="#1e88e5" style="stroke: var(--color1, #1e88e5)" stroke-linejoin="round" stroke-linecap="round" stroke-miterlimit="4" stroke-width="1.3333" d="M6 26.338v-20.677M11.354 16h14.646M26 16l-6.031 6.031M26 16l-6.031-6.031"></path>
</symbol>
<symbol id="icon-out" viewBox="0 0 32 32">
<path fill="none" stroke="#1e88e5" style="stroke: var(--color1, #1e88e5)" stroke-linejoin="miter" stroke-linecap="butt" stroke-miterlimit="4" stroke-width="1.3333" d="M20 4.667h7.333M27.333 4.667v7.333M27.333 4.667l-10.667 10.667"></path>
<path fill="none" stroke="#1e88e5" style="stroke: var(--color1, #1e88e5)" stroke-linejoin="miter" stroke-linecap="round" stroke-miterlimit="4" stroke-width="1.3333" d="M15.333 7.333h-5.333c-1.473 0-2.667 1.194-2.667 2.667v12c0 1.473 1.194 2.667 2.667 2.667h12c1.473 0 2.667-1.194 2.667-2.667v-5.333"></path>
</symbol>
<symbol id="icon-pdf" viewBox="0 0 32 32">
<path fill="#1e88e5" style="fill: var(--color1, #1e88e5)" d="M11.957 17.182h0.976v-2.19h1.267c0.277 0 0.509-0.094 0.696-0.281s0.281-0.419 0.281-0.696v-1.267c0-0.277-0.094-0.509-0.281-0.696s-0.419-0.281-0.696-0.281h-2.243v5.41zM12.933 14.015v-1.267h1.267v1.267h-1.267zM16.337 17.182h2.217c0.264 0 0.493-0.094 0.686-0.281s0.29-0.419 0.29-0.696v-3.457c0-0.277-0.097-0.509-0.29-0.696s-0.422-0.281-0.686-0.281h-2.217v5.41zM17.314 16.206v-3.457h1.24v3.457h-1.24zM20.824 17.182h0.976v-2.19h1.319v-0.976h-1.319v-1.267h1.319v-0.976h-2.296v5.41zM10.083 23.278c-0.422 0-0.792-0.158-1.108-0.475s-0.475-0.686-0.475-1.108v-14.778c0-0.422 0.158-0.792 0.475-1.108s0.686-0.475 1.108-0.475h14.778c0.422 0 0.792 0.158 1.108 0.475s0.475 0.686 0.475 1.108v14.778c0 0.422-0.158 0.792-0.475 1.108s-0.686 0.475-1.108 0.475h-14.778zM10.083 21.694h14.778v-14.778h-14.778v14.778zM6.917 26.444c-0.422 0-0.792-0.158-1.108-0.475s-0.475-0.686-0.475-1.108v-16.361h1.583v16.361h16.361v1.583h-16.361z"></path>
</symbol>
<symbol id="icon-pen" viewBox="0 0 32 32">
<path fill="none" stroke="#1e88e5" style="stroke: var(--color1, #1e88e5)" stroke-linejoin="miter" stroke-linecap="butt" stroke-miterlimit="4" stroke-width="1.3333" d="M7.906 25.711v0l0.029-0.007 3.51-0.877c0.020-0.005 0.040-0.010 0.060-0.015 0.297-0.074 0.56-0.139 0.799-0.275s0.43-0.327 0.646-0.543c0.014-0.015 0.029-0.029 0.044-0.044l9.623-9.623c0.418-0.418 0.778-0.778 1.028-1.105 0.267-0.351 0.47-0.74 0.47-1.221s-0.203-0.87-0.47-1.221c-0.25-0.327-0.61-0.687-1.028-1.105l-0.031-0.031-0.26-0.26c-0.418-0.418-0.778-0.778-1.105-1.028-0.351-0.267-0.74-0.47-1.221-0.47s-0.87 0.203-1.221 0.47c-0.327 0.25-0.687 0.61-1.105 1.028l-0.031 0.031-9.592 9.592c-0.015 0.015-0.029 0.029-0.044 0.044-0.217 0.216-0.408 0.408-0.544 0.646s-0.201 0.502-0.274 0.799c-0.005 0.020-0.010 0.040-0.015 0.060l-0.885 3.539c-0.003 0.012-0.006 0.024-0.009 0.036-0.052 0.209-0.108 0.432-0.127 0.619-0.020 0.206-0.015 0.554 0.264 0.834s0.627 0.284 0.834 0.264c0.187-0.018 0.41-0.074 0.619-0.127 0.012-0.003 0.024-0.006 0.036-0.009z"></path>
<path fill="#1e88e5" style="fill: var(--color1, #1e88e5)" d="M16.667 10l4-2.667 4 4-2.667 4-5.333-5.333z"></path>
</symbol>
<symbol id="icon-play" viewBox="0 0 32 32">
<path fill="none" stroke="#1e88e5" style="stroke: var(--color1, #1e88e5)" stroke-linejoin="round" stroke-linecap="round" stroke-miterlimit="4" stroke-width="1.3333" d="M21.615 14.807l-8.633-4.316c-1.064-0.532-2.316 0.242-2.316 1.431v8.156c0 1.189 1.252 1.963 2.316 1.431l8.633-4.316c0.983-0.491 0.983-1.894 0-2.385z"></path>
</symbol>
<symbol id="icon-play_fill" viewBox="0 0 32 32">
<path fill="#1e88e5" style="fill: var(--color1, #1e88e5)" d="M21.517 14.091l-8.71-4.355c-1.596-0.798-3.473 0.363-3.473 2.147v8.233c0 1.784 1.878 2.945 3.473 2.147l8.71-4.355c1.572-0.786 1.572-3.030 0-3.816z"></path>
</symbol>
<symbol id="icon-plus" viewBox="0 0 32 32">
<path fill="none" stroke="#1e88e5" style="stroke: var(--color1, #1e88e5)" stroke-linejoin="miter" stroke-linecap="round" stroke-miterlimit="4" stroke-width="1.3333" d="M16 8v16"></path>
<path fill="none" stroke="#1e88e5" style="stroke: var(--color1, #1e88e5)" stroke-linejoin="miter" stroke-linecap="round" stroke-miterlimit="4" stroke-width="1.3333" d="M24 16h-16"></path>
</symbol>
<symbol id="icon-progress" viewBox="0 0 32 32">
<path fill="none" stroke="#1e88e5" style="stroke: var(--color1, #1e88e5)" stroke-linejoin="round" stroke-linecap="round" stroke-miterlimit="4" stroke-width="1.3333" d="M16 9.333v-4"></path>
<path fill="none" stroke="#b1d5f6" style="stroke: var(--color4, #b1d5f6)" stroke-linejoin="round" stroke-linecap="round" stroke-miterlimit="4" stroke-width="1.3333" d="M16 26.667v-2.667"></path>
<path fill="none" stroke="#b1d5f6" style="stroke: var(--color4, #b1d5f6)" stroke-linejoin="round" stroke-linecap="round" stroke-miterlimit="4" stroke-width="1.3333" d="M24 16h2.667"></path>
<path fill="none" stroke="#1e88e5" style="stroke: var(--color1, #1e88e5)" stroke-linejoin="round" stroke-linecap="round" stroke-miterlimit="4" stroke-width="1.3333" d="M5.333 16h4"></path>
<path fill="none" stroke="#b1d5f6" style="stroke: var(--color4, #b1d5f6)" stroke-linejoin="round" stroke-linecap="round" stroke-miterlimit="4" stroke-width="1.3333" d="M22.583 9.414l0.943-0.943"></path>
<path fill="none" stroke="#b1d5f6" style="stroke: var(--color4, #b1d5f6)" stroke-linejoin="round" stroke-linecap="round" stroke-miterlimit="4" stroke-width="1.3333" d="M8.458 23.544l1.886-1.886"></path>
<path fill="none" stroke="#b1d5f6" style="stroke: var(--color4, #b1d5f6)" stroke-linejoin="round" stroke-linecap="round" stroke-miterlimit="4" stroke-width="1.3333" d="M21.656 21.656l1.886 1.886"></path>
<path fill="none" stroke="#1e88e5" style="stroke: var(--color1, #1e88e5)" stroke-linejoin="round" stroke-linecap="round" stroke-miterlimit="4" stroke-width="1.3333" d="M8.458 8.456l2.828 2.828"></path>
</symbol>
<symbol id="icon-question_duotone_line" viewBox="0 0 32 32">
<path fill="none" stroke="#1e88e5" style="stroke: var(--color1, #1e88e5)" stroke-linejoin="miter" stroke-linecap="butt" stroke-miterlimit="4" stroke-width="1.92" d="M28 16c0 6.627-5.373 12-12 12s-12-5.373-12-12c0-6.627 5.373-12 12-12s12 5.373 12 12z"></path>
<path fill="#1e88e5" style="fill: var(--color1, #1e88e5)" d="M16.827 24c0 0.457-0.37 0.827-0.827 0.827s-0.827-0.37-0.827-0.827c0-0.457 0.37-0.827 0.827-0.827s0.827 0.37 0.827 0.827z"></path>
<path fill="none" stroke="#1e88e5" style="stroke: var(--color1, #1e88e5)" stroke-linejoin="miter" stroke-linecap="butt" stroke-miterlimit="4" stroke-width="1.92" d="M16 21.333v-1.142c0-0.952 0.476-1.842 1.268-2.37l0.798-0.532c1.208-0.805 1.934-2.161 1.934-3.613v-0.343c0-2.209-1.791-4-4-4v0c-2.209 0-4 1.791-4 4v0"></path>
</symbol>
<symbol id="icon-radiobutton_fill" viewBox="0 0 32 32">
<path fill="none" stroke="#1e88e5" style="stroke: var(--color1, #1e88e5)" stroke-linejoin="miter" stroke-linecap="butt" stroke-miterlimit="4" stroke-width="1.3333" d="M26 16c0 5.523-4.477 10-10 10s-10-4.477-10-10c0-5.523 4.477-10 10-10s10 4.477 10 10z"></path>
<path fill="#1e88e5" style="fill: var(--color1, #1e88e5)" d="M21.333 16c0 2.946-2.388 5.333-5.333 5.333s-5.333-2.388-5.333-5.333c0-2.946 2.388-5.333 5.333-5.333s5.333 2.388 5.333 5.333z"></path>
</symbol>
<symbol id="icon-radiobutton_stroke" viewBox="0 0 32 32">
<path fill="none" stroke="#1e88e5" style="stroke: var(--color1, #1e88e5)" stroke-linejoin="miter" stroke-linecap="butt" stroke-miterlimit="4" stroke-width="1.3333" d="M26 16c0 5.523-4.477 10-10 10s-10-4.477-10-10c0-5.523 4.477-10 10-10s10 4.477 10 10z"></path>
</symbol>
<symbol id="icon-refresh_2_light" viewBox="0 0 32 32">
<path fill="none" stroke="#1e88e5" style="stroke: var(--color1, #1e88e5)" stroke-linejoin="miter" stroke-linecap="butt" stroke-miterlimit="4" stroke-width="1.3333" d="M18.672 20l-5.333 5.333 5.333 5.333"></path>
<path fill="none" stroke="#1e88e5" style="stroke: var(--color1, #1e88e5)" stroke-linejoin="miter" stroke-linecap="round" stroke-miterlimit="4" stroke-width="1.3333" d="M24.088 11.333c0.869 1.505 1.3 3.222 1.246 4.959s-0.593 3.424-1.554 4.871c-0.961 1.447-2.308 2.598-3.887 3.322s-3.33 0.992-5.054 0.775"></path>
<path fill="none" stroke="#1e88e5" style="stroke: var(--color1, #1e88e5)" stroke-linejoin="miter" stroke-linecap="butt" stroke-miterlimit="4" stroke-width="1.3333" d="M13.328 12l5.333-5.333-5.333-5.333"></path>
<path fill="none" stroke="#1e88e5" style="stroke: var(--color1, #1e88e5)" stroke-linejoin="miter" stroke-linecap="round" stroke-miterlimit="4" stroke-width="1.3333" d="M7.912 20.667c-0.881-1.527-1.312-3.272-1.243-5.033s0.636-3.467 1.634-4.92c0.999-1.453 2.388-2.593 4.008-3.289s3.403-0.919 5.144-0.643"></path>
</symbol>
<symbol id="icon-repeat" viewBox="0 0 32 32">
<path fill="none" stroke="#1e88e5" style="stroke: var(--color1, #1e88e5)" stroke-linejoin="miter" stroke-linecap="butt" stroke-miterlimit="4" stroke-width="1.3333" d="M18.667 12l-5.333-5.333 5.333-5.333"></path>
<path fill="none" stroke="#1e88e5" style="stroke: var(--color1, #1e88e5)" stroke-linejoin="miter" stroke-linecap="round" stroke-miterlimit="4" stroke-width="1.3333" d="M7.34 11c-1.133 1.962-1.566 4.251-1.228 6.492s1.427 4.3 3.088 5.841c1.661 1.541 3.797 2.472 6.057 2.64s4.509-0.436 6.381-1.713 3.254-3.153 3.92-5.318c0.666-2.166 0.577-4.493-0.252-6.602s-2.351-3.873-4.314-5.004-4.253-1.562-6.493-1.221"></path>
</symbol>
<symbol id="icon-save" viewBox="0 0 32 32">
<path fill="none" stroke="#1e88e5" style="stroke: var(--color1, #1e88e5)" stroke-linejoin="miter" stroke-linecap="butt" stroke-miterlimit="4" stroke-width="1.3333" d="M21.333 28v-2.667c0-2.514 0-3.771-0.781-4.552s-2.038-0.781-4.552-0.781h-1.333c-2.514 0-3.771 0-4.552 0.781s-0.781 2.038-0.781 4.552v2.667"></path>
<path fill="none" stroke="#1e88e5" style="stroke: var(--color1, #1e88e5)" stroke-linejoin="miter" stroke-linecap="round" stroke-miterlimit="4" stroke-width="1.3333" d="M9.333 10.667h6.667"></path>
<path fill="none" stroke="#1e88e5" style="stroke: var(--color1, #1e88e5)" stroke-linejoin="miter" stroke-linecap="butt" stroke-miterlimit="4" stroke-width="1.3333" d="M4 12c0-3.771 0-5.657 1.172-6.828s3.057-1.172 6.828-1.172h9.562c0.545 0 0.817 0 1.063 0.101s0.438 0.294 0.823 0.68l3.771 3.771c0.385 0.385 0.578 0.578 0.68 0.823s0.101 0.518 0.101 1.063v9.562c0 3.771 0 5.657-1.172 6.828s-3.057 1.172-6.828 1.172h-8c-3.771 0-5.657 0-6.828-1.172s-1.172-3.057-1.172-6.828v-8z"></path>
</symbol>
<symbol id="icon-settings" viewBox="0 0 32 32">
<path fill="none" stroke="#1e88e5" style="stroke: var(--color1, #1e88e5)" stroke-linejoin="miter" stroke-linecap="butt" stroke-miterlimit="4" stroke-width="1.3333" d="M4.109 18.593c-0.705-1.267-1.057-1.901-1.057-2.593s0.352-1.325 1.057-2.593l1.799-3.234 1.901-3.175c0.745-1.244 1.117-1.866 1.717-2.212s1.324-0.357 2.774-0.381l3.7-0.059 3.7 0.059c1.45 0.023 2.175 0.035 2.774 0.381s0.972 0.968 1.717 2.212l1.901 3.175 1.799 3.234c0.705 1.267 1.057 1.901 1.057 2.593s-0.353 1.325-1.057 2.593l-1.799 3.234-1.901 3.175c-0.745 1.244-1.117 1.866-1.717 2.212s-1.324 0.357-2.774 0.381l-3.7 0.059-3.7-0.059c-1.45-0.023-2.175-0.035-2.774-0.381s-0.972-0.968-1.717-2.212l-1.901-3.175-1.799-3.234z"></path>
<path fill="none" stroke="#1e88e5" style="stroke: var(--color1, #1e88e5)" stroke-linejoin="miter" stroke-linecap="butt" stroke-miterlimit="4" stroke-width="1.3333" d="M20 16c0 2.209-1.791 4-4 4s-4-1.791-4-4c0-2.209 1.791-4 4-4s4 1.791 4 4z"></path>
</symbol>
<symbol id="icon-sign_in_squre_light" viewBox="0 0 32 32">
<path fill="none" stroke="#1e88e5" style="stroke: var(--color1, #1e88e5)" stroke-linejoin="miter" stroke-linecap="butt" stroke-miterlimit="4" stroke-width="1.3333" d="M9.333 9.509v-0.693c0-2.861 0-4.292 0.919-5.089s2.336-0.595 5.168-0.191l5.71 0.816c3.275 0.468 4.912 0.702 5.891 1.83s0.978 2.782 0.978 6.090v7.457c0 3.308 0 4.962-0.978 6.090s-2.616 1.362-5.891 1.83l-5.71 0.816c-2.832 0.405-4.249 0.607-5.168-0.191s-0.919-2.228-0.919-5.089v-0.429"></path>
<path fill="#1e88e5" style="fill: var(--color1, #1e88e5)" d="M21.333 16l0.521-0.416 0.333 0.416-0.333 0.416-0.521-0.416zM5.333 16.667c-0.368 0-0.667-0.299-0.667-0.667s0.298-0.667 0.667-0.667v1.333zM16.521 8.917l5.333 6.667-1.041 0.833-5.333-6.667 1.041-0.833zM21.854 16.416l-5.333 6.667-1.041-0.833 5.333-6.667 1.041 0.833zM21.333 16.667h-16v-1.333h16v1.333z"></path>
</symbol>
<symbol id="icon-sign_out_squre_light" viewBox="0 0 32 32">
<path fill="#1e88e5" style="fill: var(--color1, #1e88e5)" d="M2.667 16l-0.521-0.416-0.333 0.416 0.333 0.416 0.521-0.416zM14.667 16.667c0.368 0 0.667-0.299 0.667-0.667s-0.299-0.667-0.667-0.667v1.333zM7.479 8.917l-5.333 6.667 1.041 0.833 5.333-6.667-1.041-0.833zM2.146 16.416l5.333 6.667 1.041-0.833-5.333-6.667-1.041 0.833zM2.667 16.667h12v-1.333h-12v1.333z"></path>
<path fill="none" stroke="#1e88e5" style="stroke: var(--color1, #1e88e5)" stroke-linejoin="miter" stroke-linecap="butt" stroke-miterlimit="4" stroke-width="1.3333" d="M13.333 10.843v-0.991c0-2.158 0-3.237 0.632-3.983s1.696-0.923 3.825-1.278l2.228-0.371c4.324-0.721 6.486-1.081 7.901 0.117s1.415 3.39 1.415 7.774v7.779c0 4.384 0 6.576-1.415 7.774s-3.577 0.838-7.901 0.117l-2.228-0.371c-2.128-0.355-3.193-0.532-3.825-1.278s-0.632-1.825-0.632-3.983v-0.727"></path>
</symbol>
<symbol id="icon-star_fill" viewBox="0 0 32 32">
<path fill="#1e88e5" style="fill: var(--color1, #1e88e5); stroke: var(--color1, #1e88e5)" stroke="#1e88e5" stroke-linejoin="miter" stroke-linecap="butt" stroke-miterlimit="4" stroke-width="1.3333" d="M12.061 7.573c1.034-2.661 1.55-3.991 2.439-3.991s1.405 1.33 2.439 3.991l0.048 0.124c0.584 1.503 0.876 2.255 1.471 2.712s1.376 0.529 2.938 0.674l0.282 0.026c2.557 0.236 3.835 0.355 4.109 1.195s-0.676 1.732-2.575 3.516l-0.634 0.595c-0.961 0.903-1.442 1.355-1.666 1.946-0.042 0.11-0.077 0.224-0.104 0.339-0.147 0.617-0.007 1.272 0.275 2.582l0.088 0.408c0.517 2.408 0.776 3.611 0.324 4.131-0.169 0.194-0.388 0.334-0.632 0.402-0.652 0.184-1.578-0.595-3.429-2.153-1.216-1.023-1.823-1.534-2.521-1.649-0.275-0.045-0.554-0.045-0.829 0-0.698 0.115-1.306 0.627-2.521 1.649-1.851 1.558-2.777 2.337-3.429 2.153-0.244-0.069-0.463-0.208-0.632-0.402-0.452-0.519-0.193-1.723 0.324-4.131l0.088-0.408c0.281-1.31 0.422-1.965 0.275-2.582-0.027-0.115-0.062-0.228-0.104-0.339-0.224-0.592-0.705-1.043-1.666-1.946l-0.634-0.595c-1.899-1.784-2.848-2.676-2.574-3.516s1.552-0.958 4.108-1.195l0.282-0.026c1.562-0.144 2.343-0.217 2.938-0.674s0.887-1.209 1.471-2.712l0.048-0.124z"></path>
</symbol>
<symbol id="icon-star_outlined" viewBox="0 0 32 32">
<path fill="none" stroke="#1e88e5" style="stroke: var(--color1, #1e88e5)" stroke-linejoin="miter" stroke-linecap="butt" stroke-miterlimit="4" stroke-width="1.3333" d="M13.394 8.907c1.033-2.661 1.55-3.991 2.439-3.991s1.405 1.33 2.439 3.991l0.048 0.124c0.584 1.503 0.876 2.255 1.471 2.712s1.376 0.529 2.938 0.674l0.282 0.026c2.557 0.236 3.835 0.355 4.109 1.195s-0.676 1.732-2.575 3.516l-0.634 0.595c-0.961 0.903-1.442 1.355-1.666 1.946-0.042 0.11-0.077 0.224-0.104 0.339-0.147 0.617-0.007 1.272 0.275 2.582l0.088 0.408c0.517 2.408 0.776 3.611 0.324 4.131-0.169 0.194-0.388 0.334-0.632 0.402-0.652 0.184-1.578-0.595-3.429-2.153-1.216-1.023-1.823-1.534-2.521-1.649-0.275-0.045-0.554-0.045-0.829 0-0.698 0.115-1.306 0.627-2.521 1.649-1.851 1.558-2.777 2.337-3.429 2.153-0.244-0.069-0.463-0.208-0.632-0.402-0.452-0.519-0.193-1.723 0.324-4.131l0.088-0.408c0.281-1.31 0.422-1.965 0.275-2.582-0.027-0.115-0.062-0.228-0.104-0.339-0.224-0.592-0.705-1.043-1.666-1.946l-0.634-0.595c-1.899-1.784-2.848-2.676-2.574-3.516s1.552-0.958 4.108-1.195l0.282-0.026c1.562-0.144 2.343-0.217 2.938-0.674s0.887-1.208 1.471-2.712l0.048-0.124z"></path>
</symbol>
<symbol id="icon-trash" viewBox="0 0 32 32">
<path fill="none" stroke="#1e88e5" style="stroke: var(--color1, #1e88e5)" stroke-linejoin="miter" stroke-linecap="round" stroke-miterlimit="4" stroke-width="1.3333" d="M12.667 19.333v-4"></path>
<path fill="none" stroke="#1e88e5" style="stroke: var(--color1, #1e88e5)" stroke-linejoin="miter" stroke-linecap="round" stroke-miterlimit="4" stroke-width="1.3333" d="M19.333 19.333v-4"></path>
<path fill="none" stroke="#1e88e5" style="stroke: var(--color1, #1e88e5)" stroke-linejoin="miter" stroke-linecap="round" stroke-miterlimit="4" stroke-width="1.3333" d="M4 8.667h24c-1.873 0-2.809 0-3.481 0.449-0.291 0.195-0.541 0.445-0.736 0.736-0.449 0.673-0.449 1.609-0.449 3.482v7.333c0 2.514 0 3.771-0.781 4.552s-2.038 0.781-4.552 0.781h-4c-2.514 0-3.771 0-4.552-0.781s-0.781-2.038-0.781-4.552v-7.333c0-1.873 0-2.809-0.449-3.482-0.195-0.291-0.445-0.541-0.736-0.736-0.673-0.449-1.609-0.449-3.482-0.449v0z"></path>
<path fill="none" stroke="#1e88e5" style="stroke: var(--color1, #1e88e5)" stroke-linejoin="miter" stroke-linecap="round" stroke-miterlimit="4" stroke-width="1.3333" d="M12.667 4.667c0 0 0.667-1.334 3.333-1.334s3.333 1.333 3.333 1.333"></path>
</symbol>
<symbol id="icon-trash-2" viewBox="0 0 32 32">
<path fill="none" stroke="#1e88e5" style="stroke: var(--color1, #1e88e5)" stroke-linejoin="round" stroke-linecap="round" stroke-miterlimit="4" stroke-width="1.3333" d="M4 8h24"></path>
<path fill="none" stroke="#1e88e5" style="stroke: var(--color1, #1e88e5)" stroke-linejoin="round" stroke-linecap="round" stroke-miterlimit="4" stroke-width="1.3333" d="M25.333 8v18.667c0 0.707-0.281 1.385-0.781 1.886s-1.178 0.781-1.886 0.781h-13.333c-0.707 0-1.386-0.281-1.886-0.781s-0.781-1.178-0.781-1.886v-18.667M10.667 8v-2.667c0-0.707 0.281-1.386 0.781-1.886s1.178-0.781 1.886-0.781h5.333c0.707 0 1.385 0.281 1.886 0.781s0.781 1.178 0.781 1.886v2.667"></path>
<path fill="none" stroke="#1e88e5" style="stroke: var(--color1, #1e88e5)" stroke-linejoin="round" stroke-linecap="round" stroke-miterlimit="4" stroke-width="1.3333" d="M13.333 14.667v8"></path>
<path fill="none" stroke="#1e88e5" style="stroke: var(--color1, #1e88e5)" stroke-linejoin="round" stroke-linecap="round" stroke-miterlimit="4" stroke-width="1.3333" d="M18.667 14.667v8"></path>
</symbol>
<symbol id="icon-user" viewBox="0 0 32 32">
<path fill="none" stroke="#1e88e5" style="stroke: var(--color1, #1e88e5)" stroke-linejoin="miter" stroke-linecap="round" stroke-miterlimit="4" stroke-width="1.3333" d="M26.303 27.263c-0.608-1.701-1.947-3.204-3.81-4.276s-4.145-1.653-6.493-1.653-4.631 0.581-6.493 1.653c-1.863 1.072-3.202 2.575-3.81 4.276"></path>
<path fill="none" stroke="#1e88e5" style="stroke: var(--color1, #1e88e5)" stroke-linejoin="miter" stroke-linecap="round" stroke-miterlimit="4" stroke-width="1.3333" d="M21.333 10.667c0 2.946-2.388 5.333-5.333 5.333s-5.333-2.388-5.333-5.333c0-2.946 2.388-5.333 5.333-5.333s5.333 2.388 5.333 5.333z"></path>
</symbol>
<symbol id="icon-view_hide" viewBox="0 0 32 32">
<path fill="#1e88e5" style="fill: var(--color1, #1e88e5)" d="M21.227 17.065c0.070-0.344 0.106-0.7 0.106-1.065 0-2.946-2.388-5.333-5.333-5.333-0.365 0-0.721 0.037-1.065 0.106l1.23 1.23c2.078 0.084 3.747 1.754 3.831 3.831l1.23 1.23zM12.524 14.019c-0.334 0.584-0.524 1.26-0.524 1.981 0 2.209 1.791 4 4 4 0.721 0 1.397-0.191 1.981-0.524l0.968 0.968c-0.845 0.562-1.859 0.889-2.949 0.889-2.946 0-5.333-2.388-5.333-5.333 0-1.091 0.327-2.105 0.889-2.949l0.968 0.968z"></path>
<path fill="#1e88e5" style="fill: var(--color1, #1e88e5)" d="M21.538 23.033l-0.979-0.979c-1.419 0.772-2.961 1.279-4.559 1.279-2.229 0-4.349-0.987-6.177-2.302-1.823-1.311-3.299-2.909-4.226-4.034-0.566-0.687-0.624-0.806-0.624-0.997s0.058-0.31 0.624-0.997c0.892-1.083 2.294-2.605 4.024-3.887l-0.952-0.952c-1.775 1.344-3.197 2.894-4.1 3.992l-0.078 0.095c-0.441 0.533-0.85 1.027-0.85 1.75s0.409 1.217 0.85 1.75l0.078 0.095c0.967 1.174 2.525 2.865 4.476 4.269 1.945 1.4 4.337 2.553 6.956 2.553 2.013 0 3.893-0.682 5.538-1.633zM12.253 8.091c1.173-0.467 2.431-0.758 3.747-0.758 2.619 0 5.011 1.153 6.956 2.553 1.951 1.403 3.509 3.095 4.476 4.269l0.078 0.095c0.441 0.533 0.85 1.027 0.85 1.75s-0.409 1.217-0.85 1.75l-0.078 0.095c-0.641 0.778-1.541 1.783-2.644 2.781l-0.944-0.944c1.061-0.955 1.934-1.927 2.559-2.685 0.566-0.687 0.624-0.806 0.624-0.997s-0.058-0.31-0.624-0.997c-0.927-1.125-2.403-2.723-4.226-4.034-1.828-1.315-3.948-2.302-6.177-2.302-0.926 0-1.833 0.17-2.708 0.464l-1.039-1.039z"></path>
<path fill="none" stroke="#1e88e5" style="stroke: var(--color1, #1e88e5)" stroke-linejoin="miter" stroke-linecap="butt" stroke-miterlimit="4" stroke-width="1.3333" d="M6.667 2.667l21.333 21.333"></path>
</symbol>
<symbol id="icon-Arrow" viewBox="0 0 18 32">
<path fill="none" stroke="#333f5d" style="stroke: var(--color1, #333f5d)" stroke-linejoin="miter" stroke-linecap="round" stroke-miterlimit="4" stroke-width="0.4776" d="M0.3 0.477c6.693 2.021 12.319 4.227 15.589 9.674 2.107 3.51 2.278 7.957 0.889 11.662-1.162 3.1-4.562 4.667-7.475 6.46-1.101 0.678-2.854 1.001-3.762 1.747-0.247 0.203 2.672 1.24 3.217 1.463 0.179 0.074-2.352-0.616-3.118-0.651-4.173-0.191 2.24-3.637 1.337-5.12"></path>
</symbol>
<symbol id="icon-calendar" viewBox="0 0 31 32">
<path fill="none" stroke="#1e88e5" style="stroke: var(--color1, #1e88e5)" stroke-linejoin="round" stroke-linecap="round" stroke-miterlimit="4" stroke-width="1.28" d="M24.32 5.76h-17.92c-1.414 0-2.56 1.146-2.56 2.56v17.92c0 1.414 1.146 2.56 2.56 2.56h17.92c1.414 0 2.56-1.146 2.56-2.56v-17.92c0-1.414-1.146-2.56-2.56-2.56z"></path>
<path fill="none" stroke="#1e88e5" style="stroke: var(--color1, #1e88e5)" stroke-linejoin="round" stroke-linecap="round" stroke-miterlimit="4" stroke-width="1.28" d="M20.48 3.2v5.12"></path>
<path fill="none" stroke="#1e88e5" style="stroke: var(--color1, #1e88e5)" stroke-linejoin="round" stroke-linecap="round" stroke-miterlimit="4" stroke-width="1.28" d="M10.24 3.2v5.12"></path>
<path fill="none" stroke="#1e88e5" style="stroke: var(--color1, #1e88e5)" stroke-linejoin="round" stroke-linecap="round" stroke-miterlimit="4" stroke-width="1.28" d="M3.84 13.44h23.040"></path>
</symbol>
<symbol id="icon-dash" viewBox="0 0 32 32">
<path fill="none" stroke="#1e88e5" style="stroke: var(--color1, #1e88e5)" stroke-linejoin="miter" stroke-linecap="round" stroke-miterlimit="4" stroke-width="1.3333" d="M24 16h-16"></path>
</symbol>
</defs>
</svg>
